<svg width="80" height="80" viewBox="0 0 80 80" fill="none" xmlns="http://www.w3.org/2000/svg">
<circle cx="40" cy="40" r="40" fill="#02AA3D"/>
<path fill-rule="evenodd" clip-rule="evenodd" d="M26.875 31C26.875 27.065 30.065 23.875 34 23.875H46C49.935 23.875 53.125 27.065 53.125 31V49C53.125 52.935 49.935 56.125 46 56.125H34C30.065 56.125 26.875 52.935 26.875 49V31ZM32.875 32.5C32.875 31.0503 34.0503 29.875 35.5 29.875H44.5C45.9497 29.875 47.125 31.0503 47.125 32.5V34C47.125 35.4497 45.9497 36.625 44.5 36.625H35.5C34.0503 36.625 32.875 35.4497 32.875 34V32.5ZM36.625 49C36.625 49.6213 36.1213 50.125 35.5 50.125H34C33.3787 50.125 32.875 49.6213 32.875 49C32.875 48.3787 33.3787 47.875 34 47.875H35.5C36.1213 47.875 36.625 48.3787 36.625 49ZM35.5 44.125C36.1213 44.125 36.625 43.6213 36.625 43C36.625 42.3787 36.1213 41.875 35.5 41.875H34C33.3787 41.875 32.875 42.3787 32.875 43C32.875 43.6213 33.3787 44.125 34 44.125H35.5ZM43.375 49C43.375 48.3787 43.8787 47.875 44.5 47.875H46C46.6213 47.875 47.125 48.3787 47.125 49C47.125 49.6213 46.6213 50.125 46 50.125H44.5C43.8787 50.125 43.375 49.6213 43.375 49ZM44.5 41.875C43.8787 41.875 43.375 42.3787 43.375 43C43.375 43.6213 43.8787 44.125 44.5 44.125H46C46.6213 44.125 47.125 43.6213 47.125 43C47.125 42.3787 46.6213 41.875 46 41.875H44.5Z" fill="white"/>
</svg>
