<svg width="250" height="80" viewBox="0 0 250 80" fill="none" xmlns="http://www.w3.org/2000/svg">
<g clip-path="url(#clip0_1904_12204)">
<path d="M75.2204 45.2436C75.2529 45.2436 75.2897 45.2721 75.3301 45.3291C75.371 45.3861 75.3914 45.431 75.3914 45.4635C75.3752 45.6917 75.3629 46.1117 75.3548 46.7229C75.3465 47.3339 75.3423 48.0387 75.3423 48.8375C75.3423 49.6361 75.3423 50.4797 75.3423 51.368C75.3423 52.2565 75.3465 53.0955 75.3548 53.8862C75.3629 54.6769 75.3712 55.3734 75.3793 55.9765C75.3877 56.5796 75.3997 56.9869 75.416 57.1991C75.4324 57.4273 75.4648 57.5619 75.5135 57.6024C75.5626 57.643 75.701 57.6634 75.9292 57.6634C76.0923 57.6634 76.2512 57.6634 76.4058 57.6634C76.5606 57.6634 76.7118 57.6715 76.858 57.6879C76.9887 57.7042 77.0987 57.7368 77.1882 57.7859C77.2778 57.8344 77.3143 57.9486 77.2982 58.1281C77.2818 58.405 77.2737 58.7189 77.2737 59.0691C77.2737 59.4196 77.2573 59.7333 77.225 60.0104C77.2086 60.1735 77.1433 60.2794 77.0293 60.3283C76.915 60.377 76.7846 60.4098 76.6382 60.426C76.5404 60.426 76.2591 60.426 75.7946 60.426C75.3299 60.426 74.7678 60.43 74.1075 60.4381C73.4474 60.4464 72.7345 60.4504 71.9683 60.4504C71.2025 60.4504 70.4728 60.4504 69.7802 60.4504C69.0875 60.4504 68.4802 60.4546 67.9587 60.4629C67.4372 60.4708 67.0867 60.4832 66.9073 60.4995C66.7282 60.5159 66.6059 60.4791 66.5408 60.3894C66.4757 60.2998 66.4511 60.1244 66.4673 59.8637C66.5 59.6355 66.504 59.3869 66.4794 59.1182C66.4549 58.8492 66.4592 58.6008 66.4917 58.3724C66.5408 58.0953 66.6957 57.9648 66.9564 57.9813C67.1191 57.9813 67.2784 57.9769 67.4332 57.9688C67.588 57.9609 67.7469 57.9567 67.9098 57.9567C68.1054 57.9567 68.195 57.8671 68.1788 57.6878C68.1624 57.378 68.1545 56.9014 68.1545 56.2575C68.1545 55.6139 68.1503 54.8887 68.142 54.0815C68.1339 53.2746 68.1299 52.4312 68.1299 51.5513C68.1299 50.6711 68.1256 49.844 68.1176 49.0697C68.1093 48.2956 68.101 47.6189 68.0931 47.0405C68.085 46.4618 68.0806 46.0663 68.0806 45.8548C68.0806 45.5937 68.1212 45.4227 68.2031 45.3413C68.2847 45.26 68.4557 45.2026 68.7166 45.1703C68.7817 45.1703 68.9816 45.1703 69.3153 45.1703C69.6496 45.1703 70.045 45.1703 70.5013 45.1703C70.9575 45.1703 71.4466 45.1703 71.9681 45.1703C72.4898 45.1703 72.9787 45.1743 73.4353 45.1824C73.8915 45.1907 74.2826 45.1988 74.6086 45.207C74.9348 45.2149 75.1387 45.2273 75.2202 45.2436H75.2204ZM72.8976 47.8839C72.8976 47.6883 72.8079 47.5904 72.6288 47.5904C72.3354 47.5904 72.0502 47.5904 71.7729 47.5904C71.4958 47.5904 71.2104 47.5823 70.9173 47.5658C70.7378 47.5658 70.6483 47.6636 70.6483 47.8596C70.6644 47.9736 70.6768 48.0792 70.6849 48.1774C70.6931 48.275 70.697 48.3809 70.697 48.4951C70.697 48.6908 70.701 49.0372 70.7093 49.5342C70.7174 50.0314 70.7214 50.606 70.7214 51.2577C70.7214 51.9097 70.7214 52.5945 70.7214 53.3114C70.7214 54.0287 70.7257 54.6971 70.7338 55.3164C70.7421 55.9359 70.7461 56.4656 70.7461 56.9055C70.7461 57.3457 70.7461 57.6147 70.7461 57.7125C70.7461 57.745 70.7667 57.7899 70.8073 57.8469C70.8478 57.9041 70.8846 57.9324 70.9173 57.9324C71.2269 57.9324 71.5325 57.9324 71.8341 57.9324C72.1357 57.9324 72.4411 57.9241 72.7511 57.908C72.9304 57.908 73.0201 57.8019 73.0201 57.59C73.0036 57.476 72.9955 57.1949 72.9955 56.7468C72.9955 56.2983 72.9914 55.7605 72.9833 55.1329C72.9749 54.5055 72.971 53.8292 72.971 53.104C72.971 52.3784 72.9668 51.6775 72.9585 51.0014C72.9506 50.3249 72.9423 49.7096 72.934 49.1554C72.9261 48.6012 72.9136 48.1776 72.8974 47.8841L72.8976 47.8839ZM81.5204 47.5456C81.4877 47.5621 81.443 47.5987 81.386 47.6557C81.329 47.7127 81.3003 47.7574 81.3003 47.7901C81.3167 48.1163 81.329 48.4381 81.3369 48.7476C81.3452 49.0574 81.3656 49.3753 81.3983 49.7012C81.3983 49.7339 81.4268 49.7747 81.4838 49.8234C81.5408 49.8725 81.5855 49.8968 81.6182 49.8968C81.8628 49.8968 82.1197 49.8928 82.3885 49.8845C82.6575 49.8764 82.9181 49.8683 83.1707 49.86C83.4232 49.8521 83.6598 49.8479 83.8799 49.8479C84.0998 49.8479 84.2832 49.8479 84.4299 49.8479C84.7232 49.8479 84.9231 49.9049 85.0288 50.0191C85.1349 50.1331 85.1959 50.3043 85.2123 50.5365C85.2123 50.716 85.2164 50.8951 85.2244 51.0745C85.2327 51.2538 85.2287 51.4329 85.2123 51.6124C85.1632 51.9384 84.9023 52.1175 84.4299 52.15C84.0226 52.1826 83.5988 52.1866 83.1584 52.1625C82.7182 52.1381 82.2947 52.1421 81.8869 52.1745C81.6916 52.191 81.5734 52.2276 81.5325 52.2846C81.4921 52.3416 81.4715 52.4681 81.4715 52.668C81.4877 53.0102 81.496 53.4418 81.496 53.9638C81.496 54.4851 81.496 54.9985 81.496 55.4959C81.496 55.9931 81.496 56.4371 81.496 56.8323C81.496 57.2236 81.504 57.4518 81.5204 57.5169C81.5368 57.566 81.5734 57.6149 81.6304 57.6638C81.6874 57.7129 81.7405 57.7372 81.7892 57.7372C82.1314 57.7537 82.551 57.7576 83.0484 57.7497C83.5456 57.7412 84.0305 57.7372 84.5029 57.7372H86.1655C86.2959 57.7537 86.4264 57.7576 86.5566 57.7497C86.687 57.7412 86.7767 57.8512 86.8256 58.0757C86.8418 58.1408 86.8541 58.2592 86.862 58.4258C86.8701 58.597 86.8741 58.7805 86.8741 58.9719C86.8741 59.1676 86.8701 59.3509 86.862 59.5304C86.8539 59.7096 86.8497 59.8277 86.8497 59.893C86.8497 60.0235 86.805 60.1416 86.7151 60.2434C86.6255 60.3495 86.5073 60.4104 86.3607 60.4268C86.2629 60.4268 86.0307 60.4268 85.664 60.4268C85.297 60.4268 84.8693 60.4268 84.3802 60.4268C83.8911 60.4268 83.374 60.4268 82.8279 60.4268C82.2816 60.4268 81.7765 60.4268 81.312 60.4268C80.8472 60.4268 80.4522 60.4268 80.126 60.4268C79.8 60.4268 79.6209 60.4268 79.5886 60.4268C79.4255 60.4268 79.2908 60.3698 79.1851 60.2558C79.079 60.1416 79.018 60.0029 79.0016 59.8402C78.9852 59.6442 78.9772 59.1718 78.9772 58.4221C78.9772 57.6721 78.9731 56.7921 78.9648 55.7817C78.9567 54.7711 78.9527 53.6912 78.9527 52.5423C78.9527 51.3931 78.9527 50.3213 78.9527 49.3272C78.9527 48.3332 78.9483 47.4817 78.9404 46.7723C78.9319 46.0634 78.928 45.6438 78.928 45.5133C78.928 45.2198 79.0584 45.0732 79.3193 45.0732C79.5146 45.0732 79.8936 45.0732 80.4559 45.0732C81.0184 45.0732 81.6336 45.0692 82.3016 45.0609C82.9702 45.0528 83.6222 45.0445 84.2575 45.0363C84.8932 45.0282 85.3823 45.0243 85.7247 45.0243C86.3931 44.9916 86.6779 45.3093 86.5804 45.9777C86.5477 46.1125 86.5313 46.2467 86.5313 46.3852C86.5313 46.5238 86.5313 46.6581 86.5313 46.7884C86.5477 46.9517 86.4988 47.094 86.3848 47.2165C86.2706 47.3386 86.1239 47.3998 85.9444 47.3998C85.912 47.3998 85.7857 47.4039 85.5656 47.412C85.3457 47.4204 85.0807 47.4283 84.7707 47.4364C84.4612 47.4449 84.1229 47.4528 83.7563 47.4609C83.3896 47.4692 83.0515 47.4776 82.7418 47.4855C82.432 47.494 82.1632 47.5061 81.9348 47.5223C81.7068 47.5387 81.5681 47.5466 81.5192 47.5466L81.5204 47.5456ZM97.3065 50.6711C97.3065 51.1111 97.2412 51.5513 97.1108 51.9914C96.9804 52.4314 96.7848 52.8431 96.5239 53.2261C96.2633 53.6091 95.9496 53.9596 95.583 54.2773C95.2161 54.5954 94.7883 54.8521 94.2995 55.0474C94.0384 55.1452 93.6922 55.2147 93.2602 55.2552C92.8281 55.2958 92.4004 55.3326 91.9764 55.3653C91.8299 55.3817 91.7363 55.4183 91.6956 55.4753C91.6546 55.5323 91.6342 55.6262 91.6342 55.7562C91.6668 56.4408 91.6708 57.1215 91.6467 57.7978C91.6221 58.4743 91.6182 59.1546 91.6342 59.8394C91.6342 60.312 91.3816 60.5159 90.8763 60.4504C90.6974 60.4179 90.4933 60.4098 90.2653 60.426C90.0371 60.4425 89.8335 60.4504 89.6541 60.4504C89.214 60.434 88.9939 60.2222 88.9939 59.8149C88.9939 59.4562 88.9899 58.8696 88.9818 58.0545C88.9735 57.2396 88.9695 56.3225 88.9695 55.3041C88.9695 54.2854 88.9695 53.2259 88.9695 52.1256C88.9695 51.0256 88.9695 50.0027 88.9695 49.0572C88.9695 48.1119 88.9654 47.3054 88.957 46.6368C88.9489 45.9686 88.945 45.5612 88.945 45.4146C88.945 45.2186 89.0428 45.0965 89.2383 45.0478C89.4501 44.9823 89.768 44.9419 90.1915 44.9253C90.6155 44.9089 91.0557 44.9089 91.5121 44.9253C91.9683 44.9419 92.3881 44.958 92.7709 44.9744C93.1543 44.9904 93.4106 45.0068 93.5412 45.0231C93.9974 45.0557 94.4416 45.1618 94.8734 45.3409C95.3055 45.5203 95.6883 45.7566 96.0228 46.0499C96.3569 46.3434 96.6338 46.6896 96.8539 47.089C97.0738 47.4882 97.2082 47.9243 97.2573 48.3969C97.2899 48.7069 97.3062 49.0897 97.3062 49.5463C97.3062 50.0025 97.3062 50.3774 97.3062 50.6707L97.3065 50.6711ZM91.6342 52.3091C91.6342 52.3416 91.6546 52.3867 91.6956 52.4439C91.7363 52.5009 91.7729 52.5375 91.8056 52.5536C91.8707 52.5862 92.0132 52.6149 92.2335 52.6393C92.4534 52.6636 92.6976 52.6555 92.9666 52.6147C93.2358 52.5741 93.5048 52.4882 93.7736 52.3578C94.0426 52.2274 94.2666 52.0237 94.4461 51.7466C94.6579 51.4044 94.7883 51.046 94.8372 50.6709C94.8863 50.2958 94.9107 49.913 94.9107 49.5217C94.9107 49.3424 94.862 49.1471 94.7638 48.9353C94.6662 48.7231 94.5441 48.5275 94.3972 48.3482C94.2504 48.1689 94.0792 48.0141 93.8838 47.8839C93.6881 47.7535 93.4846 47.6721 93.2726 47.6393C93.0444 47.6068 92.8039 47.5904 92.5514 47.5904C92.2984 47.5904 92.0991 47.5904 91.9523 47.5904C91.7076 47.5904 91.5855 47.7208 91.5855 47.9815C91.6019 48.2588 91.614 48.6253 91.6221 49.0817C91.6302 49.5382 91.6342 49.9904 91.6342 50.4387C91.6342 50.8868 91.6342 51.2904 91.6342 51.649C91.6342 52.0077 91.6342 52.2274 91.6342 52.3089V52.3091ZM101.577 47.5456C101.545 47.5621 101.5 47.5987 101.443 47.6557C101.386 47.7127 101.357 47.7574 101.357 47.7901C101.374 48.1163 101.386 48.4381 101.394 48.7476C101.402 49.0574 101.422 49.3753 101.455 49.7012C101.455 49.7339 101.483 49.7747 101.541 49.8234C101.598 49.8725 101.642 49.8968 101.675 49.8968C101.92 49.8968 102.176 49.8928 102.445 49.8845C102.714 49.8764 102.975 49.8683 103.227 49.86C103.48 49.8521 103.716 49.8479 103.936 49.8479C104.156 49.8479 104.34 49.8479 104.486 49.8479C104.78 49.8479 104.98 49.9049 105.086 50.0191C105.191 50.1331 105.252 50.3043 105.269 50.5365C105.269 50.716 105.273 50.8951 105.281 51.0745C105.289 51.2538 105.285 51.4329 105.269 51.6124C105.22 51.9384 104.959 52.1175 104.486 52.15C104.079 52.1826 103.655 52.1866 103.215 52.1625C102.775 52.1381 102.351 52.1421 101.944 52.1745C101.748 52.191 101.63 52.2276 101.589 52.2846C101.548 52.3416 101.528 52.4681 101.528 52.668C101.545 53.0102 101.553 53.4418 101.553 53.9638C101.553 54.4851 101.553 54.9985 101.553 55.4959C101.553 55.9931 101.553 56.4371 101.553 56.8323C101.553 57.2236 101.561 57.4518 101.577 57.5169C101.593 57.566 101.63 57.6149 101.687 57.6638C101.744 57.7129 101.797 57.7372 101.846 57.7372C102.188 57.7537 102.608 57.7576 103.105 57.7497C103.602 57.7412 104.087 57.7372 104.56 57.7372H106.222C106.353 57.7537 106.483 57.7576 106.613 57.7497C106.744 57.7412 106.833 57.8512 106.882 58.0757C106.899 58.1408 106.911 58.2592 106.919 58.4258C106.927 58.597 106.931 58.7805 106.931 58.9719C106.931 59.1676 106.927 59.3509 106.919 59.5304C106.911 59.7096 106.907 59.8277 106.907 59.893C106.907 60.0235 106.862 60.1416 106.772 60.2434C106.683 60.3495 106.565 60.4104 106.418 60.4268C106.32 60.4268 106.088 60.4268 105.721 60.4268C105.354 60.4268 104.926 60.4268 104.437 60.4268C103.949 60.4268 103.431 60.4268 102.885 60.4268C102.339 60.4268 101.834 60.4268 101.369 60.4268C100.904 60.4268 100.509 60.4268 100.183 60.4268C99.8574 60.4268 99.6781 60.4268 99.6456 60.4268C99.4825 60.4268 99.3482 60.3698 99.2423 60.2558C99.1364 60.1416 99.0752 60.0029 99.059 59.8402C99.0426 59.6442 99.0344 59.1718 99.0344 58.4221C99.0344 57.6721 99.0301 56.7921 99.0222 55.7817C99.0137 54.7711 99.0097 53.6912 99.0097 52.5423C99.0097 51.3931 99.0097 50.3213 99.0097 49.3272C99.0097 48.3332 99.0057 47.4817 98.9976 46.7723C98.9893 46.0634 98.9854 45.6438 98.9854 45.5133C98.9854 45.2198 99.1158 45.0732 99.3765 45.0732C99.572 45.0732 99.9508 45.0732 100.513 45.0732C101.075 45.0732 101.691 45.0692 102.359 45.0609C103.027 45.0528 103.679 45.0445 104.315 45.0363C104.951 45.0282 105.44 45.0243 105.782 45.0243C106.45 44.9916 106.736 45.3093 106.638 45.9777C106.605 46.1125 106.589 46.2467 106.589 46.3852C106.589 46.5238 106.589 46.6581 106.589 46.7884C106.605 46.9517 106.556 47.094 106.442 47.2165C106.328 47.3386 106.181 47.3998 106.002 47.3998C105.969 47.3998 105.843 47.4039 105.623 47.412C105.403 47.4204 105.138 47.4283 104.828 47.4364C104.519 47.4449 104.181 47.4528 103.814 47.4609C103.447 47.4692 103.109 47.4776 102.799 47.4855C102.489 47.494 102.221 47.5061 101.992 47.5223C101.764 47.5387 101.625 47.5466 101.577 47.5466L101.577 47.5456ZM109.075 44.8034C109.075 44.7709 109.108 44.7301 109.173 44.6813C109.239 44.6326 109.296 44.5997 109.344 44.5835C109.948 44.551 110.542 44.5429 111.129 44.5591C111.716 44.5756 112.311 44.5835 112.914 44.5835C113.37 44.5835 113.794 44.6405 114.185 44.7547C114.576 44.8687 114.935 45.105 115.261 45.4635C115.554 45.7406 115.77 46.0586 115.909 46.4173C116.048 46.7755 116.141 47.13 116.19 47.4807C116.238 47.8309 116.255 48.1612 116.238 48.4707C116.222 48.7805 116.198 49.0249 116.166 49.2045C116.132 49.3509 116.088 49.4897 116.031 49.6201C115.974 49.7505 115.913 49.881 115.847 50.0112C115.814 50.0763 115.774 50.1294 115.725 50.1699C115.676 50.2107 115.648 50.2475 115.639 50.28C115.632 50.3124 115.648 50.3574 115.688 50.4142C115.729 50.4716 115.823 50.549 115.969 50.6465C116.1 50.7443 116.238 50.8912 116.385 51.0865C116.532 51.2823 116.662 51.5022 116.776 51.7468C116.89 51.9914 116.988 52.248 117.069 52.5167C117.15 52.7859 117.2 53.0424 117.216 53.2869C117.265 53.9064 117.301 54.5215 117.326 55.1327C117.35 55.7441 117.355 56.3593 117.338 56.9786C117.338 58.1359 116.898 59.1138 116.018 59.9126C115.757 60.1406 115.472 60.3118 115.162 60.426C114.853 60.5401 114.535 60.6135 114.209 60.6461C114.062 60.6622 113.744 60.6826 113.255 60.7071C112.766 60.7316 112.253 60.7558 111.715 60.7805C111.177 60.8051 110.684 60.817 110.236 60.817C109.788 60.817 109.515 60.8005 109.417 60.7681C109.336 60.7356 109.27 60.6665 109.221 60.5602C109.173 60.4544 109.132 60.3607 109.099 60.2792C109.099 60.2628 109.095 60.0346 109.087 59.5946C109.079 59.1544 109.071 58.5798 109.063 57.8708C109.054 57.1621 109.046 56.3591 109.038 55.4627C109.03 54.5665 109.026 53.6453 109.026 52.7C109.026 51.7547 109.026 50.8257 109.026 49.9128C109.026 49 109.026 48.1772 109.026 47.4437C109.026 46.71 109.03 46.1069 109.038 45.6343C109.046 45.1618 109.058 44.8845 109.075 44.803L109.075 44.8034ZM114.283 52.9205C114.152 52.6925 113.981 52.4966 113.77 52.3339C113.558 52.1708 113.313 52.0728 113.036 52.0403C112.808 52.0239 112.588 52.0239 112.376 52.0403C112.164 52.0566 111.944 52.0728 111.716 52.0892C111.504 52.0892 111.398 52.2032 111.398 52.4314C111.414 52.7085 111.427 52.9856 111.435 53.2627C111.443 53.5398 111.455 53.8167 111.471 54.094C111.471 54.7458 111.471 55.3979 111.471 56.0499C111.471 56.7017 111.463 57.3538 111.447 58.0058C111.447 58.2503 111.569 58.3645 111.814 58.348C112.058 58.3316 112.302 58.3316 112.547 58.348C112.791 58.3645 113.036 58.3645 113.281 58.348C113.607 58.3156 113.888 58.1853 114.124 57.9569C114.36 57.7285 114.519 57.4595 114.601 57.15C114.633 57.0031 114.678 56.767 114.735 56.4408C114.793 56.1148 114.825 55.7481 114.833 55.3405C114.841 54.9332 114.809 54.5136 114.735 54.0815C114.662 53.6497 114.512 53.2627 114.283 52.9203V52.9205ZM112.205 46.9307C112.074 46.9471 111.956 46.955 111.851 46.955C111.745 46.955 111.626 46.9715 111.496 47.0041C111.447 47.0205 111.398 47.0572 111.349 47.114C111.3 47.1712 111.276 47.2238 111.276 47.2729C111.292 47.6151 111.296 47.9536 111.288 48.2873C111.28 48.6216 111.292 48.9598 111.325 49.302C111.325 49.5302 111.439 49.628 111.667 49.5956C111.83 49.5791 111.989 49.5748 112.144 49.5833C112.298 49.5912 112.449 49.5791 112.596 49.5467C112.922 49.4651 113.17 49.3426 113.341 49.1797C113.513 49.017 113.623 48.8294 113.672 48.6174C113.72 48.4056 113.712 48.1853 113.647 47.9573C113.582 47.7291 113.476 47.5011 113.329 47.2727C113.183 47.0607 113.003 46.9588 112.791 46.9671C112.58 46.975 112.384 46.9627 112.205 46.9305L112.205 46.9307ZM125.204 53.752C125.106 53.752 125.029 53.8007 124.971 53.8989C124.915 53.9964 124.87 54.0861 124.837 54.1678C124.756 54.3143 124.613 54.5629 124.409 54.9134C124.205 55.2638 123.982 55.6551 123.737 56.0869C123.492 56.519 123.236 56.9713 122.967 57.4439C122.698 57.9164 122.454 58.3482 122.234 58.7397C122.014 59.1308 121.826 59.4568 121.671 59.7175C121.516 59.9783 121.439 60.1167 121.439 60.1331C121.178 60.6058 120.819 60.7117 120.363 60.451C120.233 60.3696 120.07 60.2758 119.874 60.1699C119.678 60.0642 119.507 59.9867 119.361 59.9378C119.181 59.8889 119.076 59.8113 119.043 59.7056C119.01 59.5995 119.027 59.4813 119.091 59.3509C119.141 59.2369 119.292 58.9517 119.54 58.4953C119.793 58.0391 120.074 57.5336 120.388 56.9794C120.706 56.4254 121.019 55.8712 121.333 55.317C121.65 54.7628 121.904 54.3145 122.099 53.9721C122.23 53.7441 122.188 53.5891 121.976 53.508C121.687 53.3937 121.382 53.2594 121.068 53.1046C120.754 52.9496 120.457 52.7256 120.184 52.432C119.91 52.1389 119.682 51.7514 119.503 51.2708C119.328 50.7898 119.238 50.1583 119.238 49.3761C119.238 48.4795 119.434 47.7461 119.825 47.1757C120.216 46.6053 120.656 46.1608 121.145 45.8429C121.634 45.525 122.094 45.3012 122.526 45.1707C122.958 45.0401 123.223 44.9589 123.32 44.9261C123.468 44.8772 123.749 44.8487 124.164 44.8404C124.58 44.8323 125.012 44.8283 125.46 44.8283C125.908 44.8283 126.324 44.8362 126.707 44.8527C127.09 44.8691 127.322 44.8772 127.404 44.8772C127.55 44.8608 127.648 44.8855 127.697 44.9506C127.746 45.016 127.77 45.1137 127.77 45.2442C127.77 45.391 127.775 45.7085 127.783 46.1974C127.791 46.6866 127.795 47.2814 127.795 47.9821C127.795 48.6829 127.795 49.4612 127.795 50.3172C127.795 51.1726 127.795 52.0326 127.795 52.8962C127.795 53.7601 127.795 54.6037 127.795 55.4268C127.795 56.25 127.799 56.9792 127.807 57.6151C127.815 58.2506 127.82 58.768 127.82 59.1674C127.82 59.5667 127.82 59.7745 127.82 59.7909C127.852 60.182 127.681 60.4021 127.306 60.451C127.192 60.4674 127.045 60.4755 126.866 60.4755C126.687 60.4755 126.508 60.4755 126.328 60.4755C126.149 60.4755 125.986 60.4672 125.839 60.451C125.692 60.4346 125.595 60.4185 125.546 60.4021C125.366 60.337 125.257 60.2313 125.216 60.0844C125.175 59.9376 125.154 59.7828 125.154 59.6197C125.154 59.2775 125.159 58.8132 125.167 58.2263C125.175 57.6397 125.187 57.0568 125.203 56.4782C125.22 55.8997 125.232 55.3778 125.24 54.9134C125.248 54.4489 125.252 54.1595 125.252 54.0453C125.252 54.0129 125.252 53.9559 125.252 53.8743C125.252 53.7928 125.236 53.7522 125.203 53.7522L125.204 53.752ZM125.252 47.4198C125.252 47.3218 125.176 47.2689 125.02 47.2606C124.862 47.2527 124.662 47.2486 124.417 47.2486C124.283 47.2486 124.083 47.2648 123.81 47.2972C123.541 47.3299 123.26 47.4154 122.975 47.5542C122.686 47.6927 122.437 47.9005 122.225 48.1778C122.009 48.4547 121.904 48.8377 121.904 49.3266C121.904 49.7668 121.981 50.1212 122.136 50.39C122.294 50.659 122.478 50.8712 122.69 51.026C122.906 51.1807 123.122 51.2868 123.346 51.3438C123.566 51.4008 123.741 51.4293 123.876 51.4293H124.833C125.114 51.4293 125.252 51.2908 125.252 51.0137C125.252 50.8506 125.257 50.598 125.265 50.2558C125.273 49.9136 125.277 49.5591 125.277 49.1924C125.277 48.8258 125.273 48.4753 125.265 48.1412C125.257 47.8071 125.252 47.5664 125.252 47.42L125.252 47.4198ZM142.139 45.0237C142.156 45.0399 142.168 45.2558 142.176 45.6715C142.184 46.0871 142.192 46.629 142.2 47.2972C142.209 47.9656 142.217 48.7318 142.225 49.5958C142.233 50.4595 142.237 51.3395 142.237 52.2361C142.237 53.1325 142.237 54.0168 142.237 54.8889C142.237 55.7609 142.237 56.5471 142.237 57.248C142.237 57.9488 142.233 58.5234 142.225 58.9715C142.217 59.4198 142.212 59.6767 142.212 59.7418C142.196 59.9209 142.18 60.0597 142.163 60.1575C142.147 60.2552 142.115 60.3285 142.066 60.3772C142.017 60.4262 141.951 60.4548 141.87 60.4629C141.789 60.4708 141.675 60.4668 141.528 60.4504C141.446 60.4504 141.129 60.4464 140.575 60.4381C140.021 60.43 139.344 60.426 138.546 60.426C137.747 60.426 136.891 60.4219 135.978 60.4136C135.065 60.4057 134.214 60.4013 133.423 60.4013C132.633 60.4013 131.969 60.4013 131.431 60.4013C130.894 60.4013 130.608 60.4013 130.575 60.4013C130.445 60.4013 130.364 60.3487 130.331 60.2426C130.298 60.1369 130.282 59.9696 130.282 59.7414C130.282 59.497 130.282 58.9875 130.282 58.2132C130.282 57.4392 130.282 56.5427 130.282 55.524C130.282 54.5055 130.286 53.4298 130.294 52.297C130.302 51.1641 130.307 50.1086 130.307 49.131C130.307 48.1529 130.31 47.3216 130.319 46.6372C130.327 45.9525 130.331 45.5533 130.331 45.4393C130.347 45.146 130.6 44.9993 131.089 44.9993C131.236 44.9993 131.448 45.0031 131.725 45.0116C132.001 45.0197 132.222 45.0072 132.385 44.975C132.613 44.9586 132.751 45.0644 132.8 45.2927C132.816 45.5697 132.829 46.0464 132.837 46.7231C132.845 47.3994 132.853 48.1693 132.861 49.0332C132.869 49.8972 132.873 50.798 132.873 51.7349C132.873 52.6721 132.878 53.5402 132.886 54.3388C132.894 55.1377 132.898 55.8098 132.898 56.3559C132.898 56.902 132.898 57.2076 132.898 57.2727C132.898 57.452 132.979 57.5417 133.142 57.5417C133.468 57.5417 133.77 57.5379 134.047 57.5294C134.324 57.5215 134.626 57.5171 134.952 57.5171C135.164 57.5171 135.261 57.4031 135.245 57.1749C135.229 56.8002 135.216 56.3232 135.208 55.7449C135.2 55.1662 135.192 54.555 135.184 53.9111C135.176 53.2673 135.171 52.6072 135.171 51.9309C135.171 51.2544 135.171 50.6351 135.171 50.0726C135.171 49.5104 135.171 49.0212 135.171 48.6055C135.171 48.1901 135.171 47.9171 135.171 47.7867C135.171 47.5749 135.286 47.4686 135.514 47.4686H137.176C137.356 47.4686 137.469 47.5013 137.518 47.5662C137.567 47.6317 137.6 47.7701 137.616 47.9819C137.616 48.2754 137.62 48.6788 137.629 49.1922C137.637 49.7056 137.641 50.2719 137.641 50.8916C137.641 51.5109 137.645 52.1464 137.653 52.7984C137.661 53.4504 137.669 54.0697 137.677 54.6563C137.686 55.2434 137.694 55.7689 137.702 56.2336C137.71 56.6979 137.722 57.0362 137.738 57.248C137.738 57.297 137.767 57.3497 137.824 57.4071C137.881 57.4641 137.934 57.5007 137.983 57.5167C138.228 57.5494 138.472 57.5534 138.717 57.529C138.961 57.5047 139.214 57.5086 139.475 57.5413C139.654 57.5577 139.744 57.4597 139.744 57.248C139.744 57.0526 139.739 56.6328 139.731 55.9892C139.723 55.3453 139.719 54.5912 139.719 53.7275C139.719 52.8637 139.719 51.9509 139.719 50.9892C139.719 50.0274 139.719 49.1352 139.719 48.312C139.719 47.489 139.719 46.7965 139.719 46.234C139.719 45.6717 139.727 45.3499 139.743 45.2683C139.743 45.203 139.772 45.1339 139.829 45.0605C139.886 44.9871 139.939 44.9504 139.988 44.9504C140.167 44.9504 140.371 44.9463 140.599 44.9384C140.827 44.9301 141.047 44.9259 141.259 44.9259C141.471 44.9259 141.658 44.9301 141.822 44.9384C141.985 44.9463 142.091 44.975 142.139 45.0239L142.139 45.0237Z" fill="black"/>
<path d="M147.266 49.8886C147.266 49.9702 147.388 50.0111 147.633 50.0111C147.877 50.0111 148.147 49.9375 148.44 49.791C148.733 49.6442 149.002 49.412 149.247 49.0943C149.491 48.7763 149.613 48.3484 149.613 47.8106C149.613 47.6802 149.609 47.4642 149.6 47.1628C149.593 46.8611 149.588 46.5556 149.588 46.246C149.588 45.936 149.588 45.6633 149.588 45.4268C149.588 45.1907 149.588 45.0642 149.588 45.0481C149.605 45.0317 149.678 45.0236 149.809 45.0236C149.939 45.0236 150.094 45.0236 150.273 45.0236C150.453 45.0236 150.64 45.0236 150.835 45.0236C151.031 45.0236 151.202 45.0236 151.349 45.0236C151.675 45.0236 151.863 45.0521 151.911 45.1093C151.96 45.1665 151.993 45.3496 152.009 45.6595C152.009 45.8387 152.009 46.0752 152.009 46.3683C152.009 46.6616 152.009 46.955 152.009 47.2485C152.009 47.5416 152.004 47.8189 151.996 48.0796C151.989 48.3404 151.984 48.5279 151.984 48.6419C151.968 48.7725 151.935 48.9396 151.887 49.1434C151.838 49.3471 151.764 49.5591 151.666 49.779C151.569 49.9993 151.443 50.215 151.288 50.4268C151.133 50.6386 150.933 50.81 150.689 50.9402C150.574 51.0055 150.526 51.0706 150.542 51.1357C150.558 51.2011 150.607 51.2502 150.689 51.2826C150.966 51.4455 151.198 51.6413 151.385 51.8693C151.573 52.0975 151.732 52.3257 151.863 52.5539C152.026 52.8474 152.131 53.157 152.18 53.4831C152.229 53.8093 152.237 54.1351 152.204 54.4611C152.204 54.608 152.204 54.8401 152.204 55.158C152.204 55.4759 152.201 55.8385 152.192 56.2458C152.184 56.6533 152.184 57.0771 152.192 57.5171C152.201 57.9575 152.201 58.3648 152.192 58.7399C152.184 59.1145 152.18 59.4366 152.18 59.7055C152.18 59.9745 152.18 60.1416 152.18 60.2067C152.18 60.2558 152.164 60.3086 152.131 60.3654C152.098 60.4226 152.066 60.4511 152.033 60.4511C151.936 60.4676 151.801 60.4757 151.63 60.4757C151.459 60.4757 151.283 60.4757 151.104 60.4757C150.925 60.4757 150.762 60.4757 150.615 60.4757C150.468 60.4757 150.387 60.4757 150.371 60.4757C150.224 60.4757 150.11 60.4674 150.029 60.4511C149.947 60.4347 149.89 60.3941 149.857 60.329C149.825 60.2637 149.805 60.1659 149.796 60.0355C149.788 59.905 149.784 59.7259 149.784 59.4979C149.784 59.2533 149.78 58.8782 149.772 58.3733C149.763 57.8678 149.759 57.3259 149.759 56.7475C149.759 56.1686 149.755 55.6186 149.747 55.097C149.739 54.5753 149.726 54.1759 149.711 53.8992C149.662 53.4752 149.503 53.137 149.233 52.8844C148.965 52.6317 148.667 52.4648 148.341 52.3833C148.227 52.3669 148.105 52.3423 147.975 52.3096C147.844 52.2772 147.726 52.2732 147.62 52.2976C147.514 52.3219 147.428 52.3833 147.364 52.4811C147.298 52.5786 147.265 52.7334 147.265 52.9452C147.265 53.1734 147.261 53.4913 147.253 53.899C147.245 54.3063 147.236 54.7588 147.229 55.2558C147.221 55.753 147.216 56.2622 147.216 56.784C147.216 57.3053 147.212 57.7904 147.204 58.2385C147.196 58.6868 147.192 59.0823 147.192 59.4243C147.192 59.7665 147.192 59.9947 147.192 60.1089C147.192 60.2393 147.155 60.329 147.082 60.3779C147.009 60.427 146.923 60.4596 146.825 60.4759C146.728 60.4759 146.577 60.484 146.373 60.5004C146.169 60.5168 145.957 60.5248 145.737 60.5248C145.517 60.5248 145.314 60.5208 145.126 60.5125C144.939 60.5044 144.812 60.484 144.747 60.4513C144.714 60.4349 144.694 60.4024 144.686 60.3537C144.678 60.3047 144.674 60.2562 144.674 60.2069V45.3912C144.674 45.2443 144.69 45.1342 144.722 45.061C144.755 44.9876 144.853 44.951 145.016 44.951C145.309 44.951 145.624 44.9468 145.957 44.9389C146.292 44.9306 146.597 44.9185 146.874 44.9023C147.119 44.9023 147.233 45.0244 147.216 45.2688C147.216 45.5135 147.216 45.868 147.216 46.3323C147.216 46.797 147.221 47.2736 147.229 47.7627C147.236 48.2514 147.245 48.6997 147.253 49.1074C147.261 49.5147 147.265 49.7756 147.265 49.8896L147.266 49.8886ZM157.502 53.3848C157.568 53.2379 157.694 52.9325 157.881 52.468C158.069 52.0035 158.281 51.4697 158.517 50.8666C158.754 50.2637 159.002 49.624 159.262 48.9475C159.523 48.2712 159.764 47.6517 159.984 47.0894C160.204 46.5269 160.387 46.0502 160.534 45.6593C160.681 45.268 160.763 45.0563 160.779 45.0236C160.795 44.9749 160.893 44.9423 161.072 44.9258C161.251 44.9094 161.459 44.9015 161.696 44.9015C161.932 44.9015 162.164 44.9054 162.392 44.9136C162.62 44.9219 162.784 44.9179 162.881 44.9015C163.012 44.8851 163.11 44.9015 163.175 44.9502C163.24 44.9993 163.272 45.097 163.272 45.2437C163.272 45.3086 163.272 45.5736 163.272 46.0384C163.272 46.5025 163.272 47.0896 163.272 47.7987C163.272 48.5075 163.272 49.3022 163.272 50.1823C163.272 51.0625 163.272 51.9589 163.272 52.8716C163.272 53.7844 163.272 54.677 163.272 55.5489C163.272 56.4208 163.272 57.1992 163.272 57.8836C163.272 58.5683 163.272 59.1262 163.272 59.5583C163.272 59.9904 163.272 60.2223 163.272 60.2552C163.272 60.3201 163.191 60.3648 163.028 60.3896C162.865 60.4139 162.673 60.4262 162.453 60.4262C162.233 60.4262 162.021 60.422 161.817 60.4137C161.614 60.4058 161.479 60.4014 161.414 60.4014C161.153 60.3854 161.011 60.3157 160.986 60.1938C160.962 60.0713 160.942 59.8148 160.925 59.4235C160.925 58.9022 160.922 58.3032 160.913 57.6265C160.905 56.95 160.901 56.2575 160.901 55.5485C160.901 54.8393 160.897 54.1468 160.889 53.4705C160.88 52.7938 160.877 52.195 160.877 51.6733C160.877 51.6409 160.868 51.5959 160.852 51.5389C160.835 51.4817 160.811 51.4532 160.779 51.4532C160.746 51.4532 160.701 51.5227 160.644 51.661C160.587 51.7998 160.542 51.918 160.51 52.0155C160.461 52.146 160.342 52.4393 160.155 52.8955C159.968 53.3521 159.744 53.8857 159.482 54.4969C159.221 55.1081 158.945 55.7559 158.651 56.4406C158.358 57.1254 158.085 57.7568 157.833 58.3355C157.579 58.9138 157.36 59.399 157.172 59.7901C156.985 60.1812 156.867 60.3852 156.817 60.4012C156.753 60.4337 156.63 60.4543 156.45 60.4626C156.272 60.4705 156.084 60.4705 155.888 60.4626C155.693 60.4543 155.51 60.4422 155.338 60.426C155.168 60.4096 155.057 60.3933 155.008 60.3769C154.747 60.312 154.617 60.1408 154.617 59.8635C154.617 59.7493 154.613 59.4643 154.605 59.0077C154.596 58.5514 154.592 57.9889 154.592 57.3207C154.592 56.6525 154.589 55.9067 154.58 55.0836C154.572 54.2608 154.568 53.4212 154.568 52.5654C154.568 51.7097 154.564 50.8745 154.555 50.0596C154.547 49.2448 154.543 48.5152 154.543 47.8716C154.543 47.2275 154.547 46.6937 154.555 46.2701C154.564 45.8464 154.568 45.6019 154.568 45.5364C154.601 45.3082 154.666 45.1495 154.764 45.0598C154.861 44.9702 155.024 44.909 155.253 44.8763C155.481 44.8599 155.721 44.8518 155.974 44.8518C156.226 44.8518 156.467 44.8682 156.695 44.9009C156.744 44.9173 156.797 44.9783 156.854 45.084C156.911 45.1901 156.931 45.2839 156.915 45.3652C156.915 45.447 156.915 45.6954 156.915 46.1112C156.915 46.5265 156.911 47.0238 156.903 47.6022C156.895 48.1809 156.891 48.8085 156.891 49.4849C156.891 50.1614 156.891 50.805 156.891 51.4166C156.891 52.0278 156.891 52.5575 156.891 53.0056C156.891 53.4539 156.891 53.7515 156.891 53.8982C156.891 53.9469 156.891 54.053 156.891 54.2159C156.891 54.379 156.915 54.4603 156.964 54.4603C157.013 54.4603 157.094 54.3299 157.209 54.0692C157.323 53.8085 157.42 53.5801 157.502 53.3846L157.502 53.3848ZM168.13 60.2793C168.081 60.2793 167.984 60.2833 167.837 60.2918C167.69 60.2997 167.523 60.3037 167.335 60.3037C167.148 60.3037 166.96 60.3037 166.773 60.3037C166.586 60.3037 166.419 60.2956 166.272 60.2793C166.027 60.2467 165.896 60.1736 165.881 60.0594C165.864 59.9454 165.848 59.7659 165.832 59.5215C165.832 59.4073 165.832 59.1343 165.832 58.7025C165.832 58.2706 165.832 57.7328 165.832 57.089C165.832 56.4453 165.832 55.7241 165.832 54.9254C165.832 54.1264 165.832 53.3115 165.832 52.4807C165.832 51.6494 165.832 50.8343 165.832 50.0355C165.832 49.2369 165.832 48.5115 165.832 47.8599C165.832 47.2077 165.832 46.6616 165.832 46.2215C165.832 45.7813 165.832 45.5044 165.832 45.3906C165.832 45.3415 165.832 45.2845 165.832 45.2192C165.832 45.154 165.856 45.097 165.906 45.0483C165.921 45.0319 166.039 45.0198 166.259 45.0117C166.48 45.0032 166.72 44.9995 166.981 44.9995C167.242 44.9995 167.49 45.0032 167.727 45.0117C167.963 45.0198 168.122 45.0238 168.203 45.0238C168.236 45.04 168.281 45.0644 168.338 45.0972C168.395 45.1299 168.423 45.1626 168.423 45.1948C168.44 45.423 168.452 45.7815 168.46 46.2707C168.468 46.7598 168.472 47.2691 168.472 47.7989C168.472 48.3284 168.468 48.8337 168.46 49.3144C168.452 49.7956 168.448 50.1416 168.448 50.3537C168.415 50.5657 168.497 50.6635 168.692 50.6471C169.165 50.6144 169.613 50.6105 170.037 50.6348C170.461 50.6593 170.909 50.6552 171.381 50.6227C171.398 50.6227 171.455 50.6063 171.553 50.5736C171.553 50.4596 171.557 50.1784 171.566 49.7301C171.573 49.282 171.582 48.7891 171.59 48.251C171.598 47.7132 171.606 47.1796 171.614 46.6498C171.622 46.1201 171.627 45.7005 171.627 45.391C171.627 45.1627 171.749 45.0487 171.993 45.0487C172.319 45.0323 172.678 45.028 173.069 45.0361C173.46 45.0444 173.819 45.0323 174.144 44.9997C174.275 44.983 174.373 44.9997 174.438 45.0485C174.503 45.0972 174.528 45.2031 174.511 45.3662C174.495 45.578 174.483 45.945 174.475 46.4665C174.467 46.988 174.458 47.5992 174.45 48.3001C174.442 49.0009 174.438 49.7671 174.438 50.5984C174.438 51.4297 174.434 52.2649 174.426 53.1045C174.418 53.9439 174.409 54.7629 174.401 55.5614C174.393 56.36 174.389 57.0733 174.389 57.7006C174.389 58.3282 174.385 58.8455 174.377 59.2531C174.368 59.6604 174.365 59.8969 174.365 59.9619C174.332 60.1901 174.283 60.3452 174.218 60.4266C174.152 60.5079 174.006 60.5649 173.778 60.5976C173.517 60.6302 173.227 60.6506 172.91 60.6585C172.592 60.6671 172.303 60.671 172.042 60.671C171.863 60.671 171.728 60.6015 171.639 60.4632C171.549 60.3247 171.512 60.1412 171.529 59.9132C171.545 59.7172 171.553 59.3384 171.553 58.7763C171.553 58.2136 171.553 57.5986 171.553 56.9302C171.553 56.262 171.553 55.6017 171.553 54.95C171.553 54.2982 171.561 53.8008 171.578 53.4586C171.578 53.3608 171.561 53.2874 171.529 53.2385C171.496 53.1898 171.415 53.157 171.284 53.1409C170.86 53.1409 170.432 53.1409 170 53.1409C169.569 53.1409 169.14 53.1326 168.717 53.1164C168.521 53.1164 168.423 53.2225 168.423 53.4343C168.408 54.3142 168.395 55.1907 168.387 56.0625C168.378 56.9346 168.366 57.8106 168.35 58.6906C168.35 58.821 168.354 58.9758 168.362 59.1551C168.371 59.3344 168.371 59.5054 168.362 59.6685C168.354 59.8312 168.334 59.9741 168.301 60.0962C168.268 60.2186 168.211 60.2797 168.13 60.2797V60.2793Z" fill="black"/>
<path d="M157.569 11.3264C159.334 10.9982 160.743 13.1605 161.366 14.4845C162.506 16.9045 162.744 19.7725 161.892 22.3168C161.764 22.6942 161.475 22.9777 161.057 22.9895C160.951 22.9923 160.844 22.9955 160.738 22.9986C160.637 23.1109 160.491 23.1962 160.289 23.232C149.894 25.0747 140.877 30.7694 131.141 34.5243C141.391 34.3396 151.637 33.9643 161.889 34.0108C167.818 34.0378 168.708 33.9709 174.638 33.9273C177.278 33.9071 179.953 34.0738 182.574 33.7155C184.632 33.4349 186.738 33.1239 188.708 33.8774C190.583 34.1892 192.514 35.5634 193.747 37.2319C193.932 37.3229 194.091 37.4803 194.181 37.7231C194.232 37.8605 194.28 37.9979 194.328 38.1354C194.662 38.7399 194.899 39.3633 195.002 39.9743C195.023 40.0895 195.017 40.1974 195 40.2987C195.597 42.5242 196.28 44.8037 196.273 47.1327C196.269 48.235 196.177 49.335 196.084 50.4325C195.962 51.8736 196.033 53.2941 196.069 54.7388C196.149 57.8454 195.533 60.8977 194.348 63.8016C193.524 65.8217 192.192 68.8768 189.866 69.6543C189.748 69.7339 189.605 69.7901 189.432 69.8037C173.266 71.0675 162.091 70.7645 145.895 70.464C137.86 70.3152 129.824 70.1893 121.788 70.2847C113.876 70.3789 105.981 70.9865 98.0696 70.9996C84.1934 71.0233 70.361 69.6701 56.493 69.3986C56.4912 69.3994 56.489 69.3978 56.4868 69.398C54.6675 69.6345 53.4443 67.7352 52.7407 66.2979C51.3386 63.4349 50.7606 60.1723 50.5108 57.0191C49.8712 48.9334 52.1376 40.201 58.4277 34.7333C58.5898 34.5925 58.7675 34.5227 58.9431 34.5056C59.0472 34.4799 59.159 34.468 59.2811 34.4811C62.7836 34.8684 66.3791 34.7408 69.8953 34.7067C74.5644 34.662 79.2326 34.5308 83.8993 34.3748C87.1014 34.2679 90.3034 34.1446 93.5049 34.0053C93.7616 33.9934 94.0183 33.9825 94.275 33.9709C94.3045 33.955 94.3573 33.9307 94.4486 33.895C95.7381 33.3888 97.0271 32.8821 98.316 32.3746C106.33 29.2193 114.325 26.021 122.316 22.809C133.543 18.2965 144.694 13.1206 156.695 11.0154C157.065 10.9505 157.369 11.0974 157.569 11.3264H157.569ZM170.925 67.8724C168.97 67.7255 167.093 67.6285 165.132 67.7635C163.25 67.8931 161.377 68.101 159.488 68.1229C157.419 68.1477 155.455 67.6705 153.409 67.4955C151.404 67.3237 149.376 67.508 147.372 67.6022C145.318 67.6988 137.973 67.6008 136.048 67.3851C134.947 67.6835 134.449 65.9867 135.549 65.6883C139.809 66.0384 142.721 65.9501 146.411 65.8686C148.424 65.8242 150.427 65.6376 152.442 65.6799C154.503 65.7229 156.499 66.2547 158.556 66.3426C162.364 66.5051 166.127 65.6419 169.941 66.0045C174.564 66.6508 182.728 66.0695 183.981 65.4381C181.383 57.8423 181.034 45.8692 182.999 39.6064C180.897 39.5817 182.73 39.6727 179.948 39.7022C178.832 39.5844 178.768 37.8154 179.898 37.9351C181.411 37.9013 181.749 38.0246 183.421 37.8789C183.808 36.5126 184.001 36.1726 184.906 35.1711C183.887 35.257 182.866 35.4543 181.921 35.5764C179.235 35.924 176.41 35.6799 173.703 35.7019C167.768 35.7502 166.873 35.7934 160.937 35.7742C149.14 35.7362 137.349 36.2644 125.554 36.3717C124.568 36.3806 124.294 34.9205 125.27 34.642C136.803 31.3586 146.892 24.1563 158.696 21.747C158.082 21.0473 157.518 20.292 157.023 19.4963C154.298 21.267 151.351 22.2723 148.217 23.0576C144.507 23.9867 141.098 25.2035 137.874 27.312C136.916 27.9379 135.987 26.4344 136.939 25.8116C139.987 23.8183 143.242 22.5038 146.758 21.6027C150.103 20.7462 153.251 19.8603 156.172 17.9418C155.964 17.5034 155.778 17.0573 155.618 16.6052C155.242 15.5426 155.173 14.1191 155.632 13.0034C148.437 14.4358 141.511 16.9508 134.706 19.6581C128.211 22.2426 121.76 24.9401 115.271 27.5432C110.118 29.6105 104.955 31.6535 99.7886 33.6892C98.2929 34.2788 96.7962 34.868 95.2992 35.4555C94.8601 35.6277 94.5151 35.7304 94.0468 35.7506C88.5629 35.9958 83.0769 36.1906 77.5891 36.3315C71.5711 36.4873 65.386 36.8566 59.3763 36.251C58.5082 37.0409 58.4481 36.9944 57.7516 37.8983C62.4604 37.0508 67.3003 37.5826 72.0066 37.8169C78.3052 38.1305 83.1674 37.4445 89.4792 37.3894C93.171 37.199 93.4235 37.2812 97.5271 36.3723C99.728 35.4757 103.873 34.2832 105.964 33.1566C110.444 30.7409 116.432 28.9206 121.124 26.9243C124.174 25.6267 127.346 23.9705 130.507 22.9769C131.597 22.6345 132.111 24.3267 131.025 24.6678C127.944 25.636 124.958 27.218 121.737 28.5641C116.215 30.8711 110.698 32.7004 104.954 35.5064C103.027 36.4473 98.3352 38.3264 96.2156 38.5623C93.4247 38.8731 92.5546 38.9425 89.9897 39.0771C79.5008 39.6286 75.8463 39.7202 62.6156 39.2016C60.3982 39.2549 58.8025 39.3964 56.6418 39.9314C56.5409 39.9561 56.4466 39.9597 56.3564 39.9543C54.9139 42.3829 53.2464 45.9818 52.7153 48.7852C55.896 48.6928 54.6756 49.2966 56.8565 48.5406C57.9333 48.1556 58.4433 49.8494 57.3745 50.232C55.1912 51.4386 54.4897 50.5744 52.6767 50.5554C52.591 50.558 52.5135 50.5465 52.4396 50.5305C52.214 52.3106 52.1443 54.1177 52.2152 55.9099C52.2989 58.0269 53.0035 61.6227 53.5528 63.6767C54.8482 64.0051 55.9532 63.865 57.3339 64.0726C58.4085 64.2339 59.6192 64.794 61.4183 64.7368C62.5578 64.7127 62.3704 66.5393 61.2301 66.5635C59.6206 66.4043 58.3115 66.305 57.3337 65.8986C55.9924 65.3409 55.2041 65.7637 54.3368 65.5737C54.7322 66.6442 55.1073 67.6012 56.4429 67.6315C71.833 67.9323 87.1857 69.544 102.59 69.1755C110.596 68.9833 118.576 68.503 126.589 68.4832C134.607 68.4628 142.626 68.6391 150.643 68.7856C164.048 69.0308 172.429 69.1514 185.812 68.288C185.117 67.51 185.258 68.0865 184.825 67.1389C183.309 67.9858 173.318 68.0519 170.924 67.8724H170.925ZM160.187 16.3018C159.918 15.4096 159.079 13.1714 157.895 13.0836C157.387 13.0461 157.135 14.0098 157.059 14.356C156.868 15.2259 157.345 16.3 157.703 17.0648C158.37 18.4935 159.322 19.856 160.417 21.0131C160.764 19.4488 160.658 17.8652 160.187 16.3016V16.3018ZM192.456 63.7662C193.881 60.6487 194.379 57.3566 194.281 53.9891C194.208 51.4966 194.527 49.0463 194.504 46.5564C194.48 43.9515 193.586 41.4162 192.747 38.9647C191.869 37.3926 190.18 36.034 188.503 35.6756C188.483 35.672 188.464 35.6687 188.444 35.6633C188.229 35.621 188.015 35.5881 187.803 35.5804C185.484 35.4929 184.795 39.2012 184.4 40.8759C182.911 47.1994 183.688 54.1015 184.494 60.4676C184.795 62.8357 185.605 65.5384 187.292 67.3004C189.62 69.7313 191.653 65.5182 192.456 63.7662Z" fill="black"/>
<path d="M186.978 62.6503C186.289 61.7422 185.987 60.2164 185.969 59.146C185.946 57.845 185.87 56.6143 185.685 55.3262C184.943 50.1853 183.897 42.7451 188.257 38.7587C188.607 38.4386 189.145 38.3666 189.506 38.7232C192.181 41.3582 192.794 45.73 193.088 49.2901C193.387 52.9115 193.327 57.063 191.877 60.4719C191.786 61.6799 191.22 62.7886 190.082 63.3335C188.986 63.8586 187.707 63.61 186.978 62.6503H186.978ZM190.121 60.3037C190.124 60.2126 190.141 60.1307 190.164 60.0535C190.178 59.9882 190.199 59.9215 190.23 59.8542C191.609 56.7798 191.555 52.9476 191.344 49.6584C191.161 46.8095 190.734 43.0833 188.878 40.6817C186.33 43.8222 186.627 48.9075 187.084 52.6133C187.315 54.4815 187.714 56.3402 187.73 58.2261C187.738 59.181 188.06 60.1606 188.252 61.1007C188.567 62.6384 190.091 61.3978 190.121 60.3037H190.121Z" fill="black"/>
<path d="M188.537 55.2895C188.459 52.5124 188.381 49.7351 188.302 46.9582C188.27 45.8181 190.037 45.7685 190.069 46.9083C190.148 49.6852 190.226 52.4625 190.304 55.24C190.336 56.3797 188.569 56.4293 188.537 55.2895Z" fill="black"/>
</g>
<defs>
<clipPath id="clip0_1904_12204">
<rect width="145.867" height="60" fill="white" transform="translate(50.4068 11)"/>
</clipPath>
</defs>
</svg>
