<svg width="250" height="80" viewBox="0 0 250 80" fill="none" xmlns="http://www.w3.org/2000/svg">
<path fill-rule="evenodd" clip-rule="evenodd" d="M86.7322 26.8615H84.2227C83.9317 26.8615 83.6731 26.7609 83.4665 26.555C83.2654 26.3538 83.16 26.1042 83.16 25.8192C83.16 25.5534 83.284 25.3205 83.4564 25.1254C83.6581 24.8979 83.9185 24.7769 84.2227 24.7769H91.3671C91.649 24.7769 91.8999 24.8763 92.1112 25.0625C92.3363 25.2607 92.45 25.5199 92.45 25.8192C92.45 26.1084 92.3375 26.3586 92.1291 26.5585C91.9184 26.7609 91.6586 26.8615 91.3671 26.8615H88.8575V38.7287C88.8575 39.0142 88.7515 39.2645 88.5546 39.4704C88.3498 39.6841 88.0906 39.7913 87.7949 39.7913C87.4991 39.7913 87.2399 39.6841 87.0352 39.4704C86.8382 39.2645 86.7322 39.0136 86.7322 38.7287V26.8615ZM96.6538 26.8615V31.1096H100.848C101.123 31.1096 101.364 31.2137 101.565 31.3987C101.783 31.5987 101.89 31.8567 101.89 32.1518C101.89 32.4374 101.796 32.6942 101.593 32.8971C101.39 33.1001 101.134 33.1935 100.848 33.1935H96.6538V37.5026H101.436C101.718 37.5026 101.968 37.602 102.175 37.7918C102.382 37.9816 102.5 38.2222 102.5 38.5042C102.5 38.7963 102.399 39.0556 102.197 39.2663C101.992 39.48 101.733 39.5872 101.437 39.5872H96.0581C95.7061 39.5872 95.3613 39.5201 95.0482 39.3555C94.6728 39.1579 94.5286 38.7927 94.5286 38.3827V25.9808C94.5286 25.6671 94.6591 25.3942 94.8668 25.1631C95.0961 24.908 95.39 24.7757 95.7331 24.7757H101.234C101.524 24.7757 101.783 24.8763 101.99 25.0823C102.196 25.2888 102.296 25.5468 102.296 25.8384C102.296 26.1281 102.196 26.3855 101.981 26.5819C101.772 26.7729 101.516 26.8609 101.234 26.8609H96.6532L96.6538 26.8615ZM107.178 31.8884L103.854 26.1748C103.766 26 103.726 25.8114 103.726 25.6163C103.726 25.3415 103.83 25.1002 104.015 24.8985C104.205 24.6913 104.445 24.574 104.727 24.574C104.99 24.574 105.218 24.6764 105.402 24.8602C105.565 25.0236 105.703 25.2098 105.819 25.4127L108.422 30.0745L111.031 25.4001C111.145 25.2217 111.28 25.0547 111.423 24.8985C111.613 24.6913 111.854 24.574 112.136 24.574C112.408 24.574 112.639 24.6907 112.824 24.8847C113.023 25.0924 113.117 25.3505 113.117 25.6366C113.117 25.8252 113.073 26.006 112.982 26.1892L109.665 31.8884L113.294 38.1498C113.331 38.2252 113.362 38.3054 113.388 38.3857C113.423 38.4898 113.441 38.5982 113.441 38.7083C113.441 38.9945 113.335 39.2465 113.142 39.4567C112.955 39.6596 112.72 39.7913 112.44 39.7913C112.193 39.7913 111.97 39.7105 111.79 39.5399C111.646 39.4028 111.524 39.2465 111.429 39.0741L108.421 33.7005L105.415 39.0693C105.332 39.2358 105.212 39.389 105.077 39.5249C104.899 39.7033 104.675 39.7913 104.423 39.7913C104.136 39.7913 103.893 39.6662 103.7 39.4567C103.507 39.2465 103.401 38.9945 103.401 38.7083C103.401 38.5982 103.419 38.4898 103.454 38.3857C103.481 38.3054 103.511 38.2252 103.556 38.136L107.178 31.889V31.8884ZM122.3 33.2144H117.26V38.7077C117.26 38.9999 117.16 39.2591 116.957 39.4698C116.753 39.6835 116.493 39.7907 116.198 39.7907C115.902 39.7907 115.643 39.6835 115.438 39.4698C115.236 39.2591 115.135 38.9999 115.135 38.7077V25.6366C115.135 25.3511 115.241 25.1008 115.438 24.8949C115.643 24.6812 115.902 24.574 116.198 24.574C116.493 24.574 116.753 24.6812 116.957 24.8949C117.155 25.1008 117.26 25.3517 117.26 25.6366V31.1299H122.3V25.6366C122.3 25.3463 122.413 25.0948 122.617 24.8907C122.821 24.6865 123.073 24.574 123.362 24.574C123.652 24.574 123.904 24.6865 124.108 24.8907C124.312 25.0948 124.424 25.3463 124.424 25.6366V38.7077C124.424 38.9999 124.324 39.2591 124.121 39.4698C123.917 39.6835 123.658 39.7907 123.362 39.7907C123.072 39.7907 122.82 39.6776 122.616 39.474C122.407 39.2645 122.299 39.0047 122.299 38.7077V33.2144H122.3ZM129.624 34.9954L134.796 25.1912C134.902 24.9972 135.055 24.8464 135.248 24.7374C135.439 24.6291 135.648 24.5734 135.868 24.5734C136.181 24.5734 136.46 24.6776 136.678 24.9039C136.894 25.1278 136.992 25.4073 136.992 25.7168V38.7071C136.992 38.9951 136.897 39.2531 136.703 39.465C136.503 39.6829 136.245 39.7901 135.95 39.7901C135.653 39.7901 135.394 39.6824 135.184 39.4734C134.975 39.2639 134.867 39.0041 134.867 38.7071V29.3699L129.695 39.1926C129.588 39.3878 129.432 39.5369 129.236 39.6398C129.051 39.7362 128.851 39.7901 128.643 39.7901C128.32 39.7901 128.03 39.6847 127.809 39.4459C127.603 39.222 127.499 38.9508 127.499 38.6467V25.6564C127.499 25.3684 127.594 25.1104 127.788 24.8985C127.988 24.6806 128.247 24.574 128.541 24.574C128.838 24.574 129.098 24.6812 129.307 24.8907C129.517 25.1002 129.624 25.36 129.624 25.6564V34.9954ZM146.54 33.9059C146.208 34.0298 145.865 34.1226 145.515 34.1849C145.066 34.2639 144.609 34.3106 144.153 34.3106C142.907 34.3106 141.711 33.9939 140.826 33.0767C139.918 32.1357 139.639 30.8443 139.639 29.574V25.6767C139.639 25.384 139.741 25.1236 139.939 24.908C140.142 24.6871 140.402 24.5734 140.702 24.5734C140.996 24.5734 141.249 24.6925 141.451 24.9039C141.657 25.1176 141.764 25.3792 141.764 25.6761V29.553C141.764 30.2331 141.861 31.1239 142.378 31.6262C142.875 32.1087 143.629 32.2255 144.294 32.2255C144.717 32.2255 145.139 32.1812 145.554 32.0985C145.895 32.0309 146.228 31.9261 146.54 31.7747V25.6761C146.54 25.3834 146.641 25.123 146.839 24.9074C147.043 24.6865 147.302 24.5728 147.602 24.5728C147.896 24.5728 148.148 24.6919 148.351 24.9033C148.556 25.117 148.665 25.3786 148.665 25.6755V38.6862C148.665 38.9831 148.557 39.2441 148.351 39.4585C148.148 39.6698 147.896 39.7889 147.602 39.7889C147.302 39.7889 147.042 39.6752 146.839 39.4543C146.641 39.2387 146.54 38.9783 146.54 38.6856V33.9041V33.9059ZM153.863 26.8609V31.109H158.058C158.333 31.109 158.574 31.2131 158.775 31.3981C158.993 31.5981 159.101 31.8567 159.101 32.1512C159.101 32.4368 159.007 32.6936 158.804 32.8966C158.601 33.0995 158.344 33.1929 158.058 33.1929H153.863V37.502H158.647C158.928 37.502 159.178 37.6014 159.385 37.7912C159.592 37.981 159.709 38.2216 159.709 38.5036C159.709 38.7957 159.608 39.055 159.406 39.2657C159.202 39.4794 158.942 39.5866 158.647 39.5866H153.268C152.916 39.5866 152.571 39.5195 152.258 39.3549C151.882 39.1573 151.738 38.7921 151.738 38.3821V25.9802C151.738 25.6665 151.869 25.3936 152.076 25.1625C152.306 24.908 152.6 24.7751 152.943 24.7751H158.443C158.734 24.7751 158.993 24.8757 159.199 25.0817C159.405 25.2882 159.506 25.5462 159.506 25.8378C159.506 26.1275 159.406 26.3849 159.191 26.5813C158.982 26.7723 158.725 26.8603 158.443 26.8603H153.863L153.863 26.8609ZM161.382 29.9996C161.382 29.2597 161.461 28.512 161.666 27.7996C161.847 27.171 162.129 26.5825 162.545 26.076C162.953 25.5779 163.469 25.2098 164.062 24.9589C164.733 24.6746 165.474 24.574 166.199 24.574C166.668 24.574 167.135 24.6219 167.593 24.7219C168.003 24.8117 168.412 24.9362 168.793 25.1152C169.114 25.2654 169.421 25.46 169.668 25.7156C169.896 25.9515 170.043 26.2365 170.043 26.5699C170.043 26.8273 169.948 27.0542 169.77 27.2404C169.581 27.4398 169.335 27.5314 169.061 27.5314C168.886 27.5314 168.71 27.4966 168.563 27.3955C168.44 27.3105 168.316 27.2273 168.186 27.1404C167.621 26.7423 166.991 26.5568 166.3 26.5568C165.852 26.5568 165.373 26.6106 164.958 26.7896C164.62 26.9357 164.335 27.15 164.118 27.4482C163.884 27.7684 163.738 28.1378 163.652 28.5222C163.544 29.0041 163.506 29.5063 163.506 29.9996V34.3435C163.506 34.8368 163.544 35.3391 163.652 35.821C163.738 36.2053 163.884 36.5753 164.118 36.895C164.335 37.1931 164.62 37.4074 164.958 37.5535C165.374 37.7325 165.852 37.7864 166.3 37.7864C166.99 37.7864 167.621 37.6008 168.198 37.1943C168.32 37.1189 168.45 37.0399 168.565 36.9537C168.707 36.8465 168.885 36.8124 169.06 36.8124C169.333 36.8124 169.579 36.904 169.769 37.1033C169.946 37.2895 170.042 37.5164 170.042 37.7738C170.042 38.1067 169.895 38.3922 169.667 38.6281C169.42 38.8837 169.112 39.0783 168.792 39.2286C168.41 39.4076 168.003 39.5321 167.592 39.6219C167.134 39.7225 166.667 39.7698 166.198 39.7698C165.473 39.7698 164.733 39.6692 164.06 39.3842C163.468 39.1334 162.952 38.7652 162.543 38.2671C162.127 37.7601 161.845 37.1716 161.664 36.5436C161.459 35.8306 161.38 35.0835 161.38 34.3435V29.9996H161.382ZM174.429 31.1293H175.224L179.391 25.0673C179.601 24.7626 179.893 24.5734 180.268 24.5734C180.591 24.5734 180.859 24.7093 181.043 24.9757C181.19 25.19 181.29 25.4325 181.29 25.6965C181.29 25.8761 181.244 26.0467 181.157 26.2035L181.151 26.2149L176.981 32.1913L181.151 38.148L181.157 38.1594C181.244 38.3162 181.29 38.4868 181.29 38.6664C181.29 38.9304 181.19 39.1729 181.043 39.3872C180.859 39.6536 180.591 39.7901 180.268 39.7901C179.893 39.7901 179.601 39.6003 179.391 39.2962L175.204 33.2138H174.429V38.7071C174.429 38.9993 174.329 39.2585 174.126 39.4692C173.922 39.6829 173.662 39.7901 173.367 39.7901C173.071 39.7901 172.812 39.6829 172.607 39.4692C172.405 39.2585 172.304 38.9987 172.304 38.7071V25.636C172.304 25.3505 172.41 25.1002 172.607 24.8943C172.812 24.6806 173.071 24.5734 173.367 24.5734C173.662 24.5734 173.922 24.6806 174.126 24.8943C174.324 25.1002 174.429 25.3511 174.429 25.636V31.1293ZM185.494 34.9949L190.665 25.1906C190.771 24.9966 190.925 24.8458 191.117 24.7368C191.31 24.6285 191.518 24.5728 191.738 24.5728C192.051 24.5728 192.33 24.677 192.548 24.9033C192.763 25.1272 192.861 25.4067 192.861 25.7162V38.7065C192.861 38.9945 192.767 39.2525 192.572 39.4644C192.372 39.6824 192.114 39.7895 191.819 39.7895C191.523 39.7895 191.263 39.6818 191.053 39.4728C190.844 39.2633 190.737 39.0035 190.737 38.7065V29.3693L185.565 39.192C185.458 39.3872 185.302 39.5363 185.106 39.6392C184.921 39.7356 184.722 39.7895 184.513 39.7895C184.19 39.7895 183.9 39.6841 183.679 39.4453C183.473 39.2214 183.369 38.9502 183.369 38.6461V25.6558C183.369 25.3678 183.464 25.1098 183.658 24.8979C183.858 24.68 184.117 24.5734 184.411 24.5734C184.708 24.5734 184.967 24.6806 185.177 24.8901C185.386 25.0996 185.494 25.3594 185.494 25.6558V34.9949ZM198.04 34.9949L203.212 25.1912C203.317 24.9972 203.471 24.8458 203.664 24.7374C203.855 24.6291 204.063 24.5734 204.284 24.5734C204.596 24.5734 204.876 24.677 205.094 24.9039C205.309 25.1278 205.407 25.4073 205.407 25.7168V38.7071C205.407 38.9951 205.312 39.2531 205.118 39.465C204.918 39.6829 204.66 39.7901 204.365 39.7901C204.068 39.7901 203.808 39.6824 203.599 39.4734C203.389 39.2639 203.282 39.0041 203.282 38.7071V29.3699L198.11 39.192C198.004 39.3872 197.848 39.5369 197.651 39.6398C197.466 39.7362 197.267 39.7901 197.058 39.7901C196.735 39.7901 196.445 39.6847 196.225 39.4459C196.018 39.222 195.914 38.9508 195.914 38.6467V25.6564C195.914 25.3684 196.009 25.1104 196.204 24.8985C196.404 24.6806 196.662 24.574 196.957 24.574C197.253 24.574 197.513 24.6812 197.723 24.8907C197.933 25.1002 198.04 25.3606 198.04 25.657V34.996V34.9949ZM200.651 22.1572C200.846 22.1572 201.028 22.1021 201.198 22.0069C201.423 21.8806 201.618 21.6436 201.76 21.4406C201.853 21.2921 201.979 21.1802 202.138 21.1054C202.277 21.0401 202.425 21 202.58 21C202.815 21 203.027 21.079 203.199 21.2413C203.428 21.4574 203.422 21.7789 203.351 22.0626C203.275 22.3673 203.136 22.6427 202.934 22.8834C202.74 23.1151 202.51 23.3072 202.248 23.4575C201.996 23.6018 201.727 23.7131 201.446 23.7868C201.187 23.8544 200.92 23.8963 200.652 23.8963C200.383 23.8963 200.116 23.855 199.857 23.7868C199.576 23.7125 199.308 23.6012 199.056 23.4575C198.793 23.3072 198.561 23.1157 198.362 22.887C198.153 22.6475 198.009 22.3709 197.933 22.0626C197.86 21.7729 197.861 21.4508 198.1 21.2365C198.276 21.079 198.488 21 198.724 21C198.878 21 199.027 21.0395 199.166 21.1054C199.324 21.1802 199.451 21.2915 199.541 21.4352C199.685 21.6436 199.881 21.8806 200.105 22.0069C200.275 22.1021 200.456 22.1572 200.652 22.1572H200.651ZM83.2169 59.5435L87.1699 47.0363C87.262 46.7346 87.3932 46.437 87.5865 46.1856C87.8026 45.903 88.1145 45.7833 88.4653 45.7833C88.8204 45.7833 89.143 45.8976 89.358 46.1898C89.5423 46.4412 89.6758 46.734 89.78 47.0339L93.7341 59.5435C93.7611 59.6075 93.7725 59.6812 93.779 59.7494C93.785 59.8111 93.7904 59.8745 93.7904 59.9368C93.7904 60.2379 93.6887 60.5055 93.4654 60.7102C93.248 60.909 92.9804 60.9994 92.6871 60.9994C92.4668 60.9994 92.262 60.9156 92.0813 60.7947C91.8687 60.6528 91.7251 60.454 91.6562 60.2134L90.8378 57.5685H86.0737L85.2709 60.2235C85.1895 60.4516 85.0536 60.6456 84.8572 60.7887C84.6824 60.9162 84.4825 60.9988 84.2634 60.9988C83.9748 60.9988 83.7156 60.9036 83.4989 60.7132C83.2684 60.5103 83.16 60.2415 83.16 59.9368C83.16 59.8745 83.1648 59.8111 83.1714 59.7494C83.1786 59.6812 83.1894 59.6075 83.2169 59.5435ZM97.9936 55.5193V59.8967C97.9936 60.1894 97.8924 60.4498 97.6943 60.6653C97.4913 60.8863 97.2315 61 96.9316 61C96.6376 61 96.385 60.8803 96.1827 60.6695C95.9767 60.4552 95.869 60.1942 95.869 59.8973V47.2111C95.869 46.8758 95.9893 46.5813 96.2264 46.3436C96.4634 46.1066 96.758 45.9862 97.0938 45.9862H100.078C100.829 45.9862 101.612 46.0826 102.308 46.3819C102.882 46.6292 103.401 46.9758 103.81 47.4541C104.197 47.9073 104.472 48.4264 104.641 48.9975C104.814 49.5788 104.895 50.178 104.895 50.7839C104.895 52.0991 104.564 53.3737 103.577 54.2956C102.613 55.1966 101.373 55.5199 100.078 55.5199H97.9942L97.9936 55.5193ZM109.654 53.0971L106.331 47.3835C106.243 47.2087 106.202 47.0201 106.202 46.825C106.202 46.5502 106.307 46.3089 106.492 46.1072C106.681 45.9 106.922 45.7827 107.204 45.7827C107.466 45.7827 107.694 45.8851 107.879 46.0688C108.042 46.2323 108.18 46.4185 108.296 46.6214L110.898 51.2832L113.508 46.6088C113.622 46.4304 113.757 46.2634 113.9 46.1072C114.09 45.9 114.33 45.7827 114.612 45.7827C114.884 45.7827 115.115 45.8994 115.301 46.0934C115.5 46.3011 115.594 46.5585 115.594 46.8453C115.594 47.0339 115.55 47.2147 115.458 47.3979L112.142 53.0971L115.77 59.3579C115.808 59.4333 115.838 59.5141 115.865 59.5943C115.9 59.6985 115.918 59.8069 115.918 59.9164C115.918 60.2026 115.812 60.4546 115.619 60.6648C115.432 60.8677 115.197 60.9994 114.917 60.9994C114.67 60.9994 114.447 60.9186 114.267 60.748C114.123 60.6109 114.001 60.4546 113.906 60.2822L110.898 54.9086L107.892 60.2774C107.809 60.4444 107.689 60.5977 107.554 60.733C107.375 60.9114 107.151 60.9994 106.899 60.9994C106.613 60.9994 106.369 60.8743 106.177 60.6648C105.983 60.4546 105.877 60.2026 105.877 59.9164C105.877 59.8063 105.896 59.6979 105.931 59.5938C105.958 59.5135 105.988 59.4333 106.033 59.3441L109.654 53.0971ZM119.737 56.2047L124.909 46.4011C125.014 46.2071 125.169 46.0557 125.361 45.9473C125.552 45.839 125.761 45.7833 125.981 45.7833C126.293 45.7833 126.574 45.8869 126.791 46.1137C127.006 46.3376 127.104 46.6172 127.104 46.9267V59.917C127.104 60.205 127.009 60.463 126.815 60.6749C126.615 60.8928 126.357 61 126.062 61C125.765 61 125.506 60.8922 125.296 60.6833C125.087 60.4738 124.979 60.214 124.979 59.917V50.5797L119.808 60.4025C119.701 60.5977 119.545 60.7468 119.348 60.8497C119.163 60.9461 118.965 61 118.756 61C118.432 61 118.143 60.8946 117.922 60.6558C117.715 60.4319 117.612 60.1607 117.612 59.8566V46.8663C117.612 46.5783 117.706 46.3203 117.901 46.1084C118.101 45.8904 118.359 45.7839 118.654 45.7839C118.95 45.7839 119.21 45.891 119.42 46.1006C119.63 46.3101 119.737 46.5705 119.737 46.8669V56.2059V56.2047ZM132.756 48.0702H130.246C129.955 48.0702 129.697 47.9696 129.49 47.7636C129.289 47.5625 129.184 47.3129 129.184 47.0279C129.184 46.7621 129.308 46.5292 129.48 46.334C129.682 46.106 129.942 45.9856 130.246 45.9856H137.391C137.673 45.9856 137.924 46.0856 138.135 46.2712C138.36 46.4693 138.474 46.728 138.474 47.0279C138.474 47.317 138.361 47.5673 138.153 47.7672C137.942 47.9696 137.683 48.0702 137.391 48.0702H134.881V59.9374C134.881 60.2229 134.775 60.4732 134.578 60.6791C134.374 60.8928 134.114 61 133.819 61C133.523 61 133.264 60.8928 133.059 60.6791C132.862 60.4732 132.756 60.2223 132.756 59.9374V48.0702ZM142.678 48.0702V52.3182H146.872C147.147 52.3182 147.388 52.4224 147.589 52.6074C147.807 52.8074 147.914 53.0654 147.914 53.3605C147.914 53.6461 147.82 53.9029 147.617 54.1058C147.414 54.3088 147.157 54.4022 146.872 54.4022H142.678V58.7113H147.46C147.742 58.7113 147.991 58.8107 148.198 59.0005C148.405 59.1903 148.523 59.4309 148.523 59.7129C148.523 60.005 148.422 60.2642 148.22 60.475C148.015 60.6887 147.756 60.7959 147.46 60.7959H142.081C141.729 60.7959 141.384 60.7288 141.071 60.5642C140.696 60.3666 140.552 60.0014 140.552 59.5914V47.1895C140.552 46.8758 140.683 46.6028 140.89 46.3718C141.119 46.1167 141.413 45.9844 141.756 45.9844H147.257C147.548 45.9844 147.806 46.085 148.013 46.2909C148.219 46.4975 148.319 46.7555 148.319 47.0471C148.319 47.3368 148.219 47.5942 148.004 47.7906C147.795 47.9816 147.539 48.0696 147.257 48.0696H142.676L142.678 48.0702ZM152.889 52.3386H153.684L157.852 46.2766C158.061 45.9725 158.353 45.7827 158.728 45.7827C159.051 45.7827 159.319 45.9186 159.503 46.185C159.651 46.3993 159.75 46.6418 159.75 46.9058C159.75 47.0854 159.705 47.256 159.617 47.4134L159.611 47.4242L155.442 53.4006L159.611 59.3567L159.617 59.3681C159.705 59.5249 159.751 59.6961 159.751 59.8757C159.751 60.1391 159.651 60.3822 159.503 60.5965C159.32 60.8629 159.052 60.9994 158.729 60.9994C158.354 60.9994 158.062 60.8096 157.852 60.5055L153.664 54.4231H152.889V59.9164C152.889 60.2086 152.788 60.4678 152.587 60.6785C152.382 60.8922 152.123 60.9994 151.827 60.9994C151.531 60.9994 151.272 60.8922 151.068 60.6785C150.865 60.4678 150.764 60.2086 150.764 59.9164V46.8453C150.764 46.5597 150.87 46.3095 151.067 46.1036C151.272 45.8898 151.531 45.7827 151.827 45.7827C152.123 45.7827 152.382 45.8898 152.587 46.1036C152.783 46.3095 152.889 46.5603 152.889 46.8453V52.3386ZM164.427 48.0702H161.917C161.626 48.0702 161.368 47.9696 161.161 47.763C160.96 47.5619 160.855 47.3123 160.855 47.0279C160.855 46.7621 160.979 46.5292 161.151 46.334C161.352 46.1066 161.613 45.9856 161.917 45.9856H169.062C169.344 45.9856 169.594 46.0856 169.806 46.2712C170.031 46.4693 170.145 46.728 170.145 47.0279C170.145 47.317 170.033 47.5673 169.824 47.7672C169.613 47.9696 169.354 48.0702 169.062 48.0702H166.552V59.9374C166.552 60.2229 166.446 60.4732 166.249 60.6791C166.044 60.8928 165.785 61 165.489 61C165.194 61 164.934 60.8928 164.73 60.6791C164.533 60.4732 164.427 60.2223 164.427 59.9374V48.0702ZM176.189 60.9994C175.452 60.9994 174.717 60.8803 174.044 60.5708C173.443 60.2942 172.916 59.9074 172.494 59.3962C172.07 58.8825 171.771 58.2917 171.575 57.6565C171.365 56.974 171.27 56.2664 171.27 55.5528V51.2089C171.27 50.5121 171.351 49.8182 171.532 49.1448C171.703 48.509 171.986 47.9199 172.402 47.408C172.819 46.8938 173.343 46.5047 173.941 46.2227C174.638 45.894 175.424 45.7827 176.189 45.7827C176.954 45.7827 177.74 45.894 178.438 46.2227C179.035 46.5041 179.56 46.8938 179.977 47.408C180.392 47.9205 180.676 48.509 180.846 49.1448C181.028 49.8182 181.108 50.5121 181.108 51.2089V55.5528C181.108 56.2664 181.013 56.9734 180.803 57.6565C180.607 58.2917 180.309 58.8825 179.884 59.3962C179.462 59.9074 178.935 60.2942 178.334 60.5708C177.661 60.8803 176.927 60.9994 176.19 60.9994H176.189ZM185.738 55.5193V59.8967C185.738 60.1894 185.637 60.4498 185.439 60.6653C185.236 60.8863 184.976 61 184.676 61C184.382 61 184.129 60.8803 183.927 60.6695C183.722 60.4552 183.614 60.1942 183.614 59.8973V47.2111C183.614 46.8758 183.734 46.5813 183.971 46.3436C184.209 46.1066 184.503 45.9862 184.839 45.9862H187.822C188.574 45.9862 189.357 46.0832 190.052 46.3819C190.627 46.6292 191.146 46.9758 191.554 47.4541C191.942 47.9073 192.217 48.4264 192.386 48.9975C192.558 49.5788 192.64 50.178 192.64 50.7839C192.64 52.0997 192.309 53.3737 191.322 54.2956C190.358 55.196 189.118 55.5199 187.822 55.5199H185.738L185.738 55.5193ZM86.7131 55.4846H90.2176L88.4653 49.7165L86.7131 55.4846ZM97.9942 53.4347H100.078C100.788 53.4347 101.574 53.3048 102.106 52.7942C102.643 52.2799 102.77 51.4723 102.77 50.7629C102.77 50.4193 102.732 50.0781 102.655 49.7434C102.583 49.4321 102.451 49.1489 102.255 48.8975C102.045 48.6287 101.759 48.4389 101.448 48.303C101.031 48.1199 100.53 48.0702 100.078 48.0702H97.9942V53.4347ZM176.189 47.8672C175.749 47.8672 175.285 47.9247 174.882 48.1085C174.548 48.2611 174.259 48.4755 174.032 48.7658C173.794 49.0699 173.642 49.4243 173.55 49.7979C173.437 50.2577 173.395 50.7372 173.395 51.2095V55.5534C173.395 56.4203 173.562 57.3021 174.087 58.0127C174.592 58.6982 175.365 58.9155 176.189 58.9155C177.012 58.9155 177.785 58.6982 178.291 58.0127C178.814 57.3021 178.983 56.4203 178.983 55.5534V51.2095C178.983 50.7372 178.941 50.2577 178.828 49.7979C178.735 49.4243 178.584 49.0699 178.346 48.7658C178.119 48.4761 177.83 48.2611 177.495 48.1085C177.091 47.9247 176.628 47.8672 176.189 47.8672ZM185.738 53.4347H187.822C188.532 53.4347 189.318 53.3048 189.851 52.7942C190.387 52.2799 190.515 51.4723 190.515 50.7629C190.515 50.4193 190.476 50.0781 190.399 49.7434C190.327 49.4321 190.195 49.1489 189.999 48.8975C189.789 48.6287 189.503 48.4389 189.193 48.303C188.775 48.1199 188.274 48.0702 187.822 48.0702H185.738V53.4347Z" fill="black"/>
<path d="M64.028 30.1055C65.0272 30.3132 65.6689 31.2926 65.4612 32.2918C65.2535 33.2909 64.274 33.9327 63.2749 33.725L41.5867 29.1566C41.1969 29.0746 40.8629 29.0668 40.5953 29.1237C40.4271 29.159 40.2972 29.22 40.2127 29.3009C40.1535 29.3577 40.1098 29.4427 40.087 29.5505C40.0523 29.7145 40.0583 29.9211 40.1098 30.1665L44.841 52.6258C45.0487 53.625 44.407 54.6038 43.4078 54.8121C42.4086 55.0198 41.4298 54.3781 41.2215 53.3789L36.4903 30.9196C36.331 30.1629 36.3304 29.4487 36.4675 28.7974C36.6489 27.9353 37.062 27.1984 37.6643 26.6225C38.242 26.0699 38.9813 25.6856 39.8416 25.5042C40.5929 25.3455 41.4382 25.3473 42.3392 25.5371L64.0274 30.1055H64.028Z" fill="black"/>
<path d="M68.5544 33.9657C69.2781 33.2419 70.4515 33.2419 71.1747 33.9657C71.8985 34.6895 71.8985 35.8628 71.1747 36.586L47.469 60.2917C46.7452 61.0155 45.5718 61.0155 44.8481 60.2917C44.1243 59.5679 44.1243 58.3946 44.8481 57.6708L68.5538 33.9651L68.5544 33.9657Z" fill="black"/>
<path d="M71.3028 57.799C72.0265 58.5228 72.0265 59.6962 71.3028 60.4193C70.579 61.1431 69.4056 61.1431 68.6824 60.4193L56.7925 48.5294C56.0687 47.8056 56.0687 46.6322 56.7925 45.909C57.5162 45.1853 58.6896 45.1853 59.4134 45.909L71.3034 57.799H71.3028Z" fill="black"/>
</svg>
