<svg width="250" height="80" viewBox="0 0 250 80" fill="none" xmlns="http://www.w3.org/2000/svg">
<path d="M62.9393 29.8595C60.8937 27.9348 56.7485 27 50.5039 27C44.2593 27 40.1142 27.9348 38.0685 29.8595C36.0228 31.7841 35 35.7433 35 41.6272C35 47.5111 36.0228 51.4153 38.0685 53.34C39.456 54.6454 41.8095 55.5208 45.1288 55.949C48.3107 56.3594 48.7229 61.8267 50.5039 61.8267C52.2849 61.8267 52.6966 56.3593 55.8785 55.949C59.1981 55.5209 61.5517 54.6455 62.9393 53.34C65.0388 51.4153 66.0616 47.5111 66.0616 41.6272C66.0616 35.7433 65.0388 31.7841 62.9393 29.8595Z" fill="url(#paint0_linear_1434_22117)"/>
<path d="M81.6542 29.4039C78.8365 29.4039 75.5419 29.7074 71.8572 30.3143C71.1636 30.4443 70.8168 30.8778 70.8168 31.5714V62.3498C70.8168 62.7832 71.0335 63 71.467 63H77.7527C78.1862 63 78.403 62.7832 78.403 62.3498V54.1567C79.9202 54.3301 81.6109 54.4167 83.5183 54.4167C87.3764 54.4167 90.0207 53.5064 91.4513 51.6857C92.8818 49.865 93.5754 46.4404 93.5754 41.4118C93.5754 36.6867 92.7517 33.5222 91.1478 31.8749C89.5439 30.2276 86.3793 29.4039 81.6542 29.4039ZM82.0877 35.9064C83.8217 35.9064 84.9054 36.2966 85.3389 37.1202C85.7724 37.9438 85.9892 39.5044 85.9892 41.8887C85.9892 44.403 85.7291 46.0502 85.1655 46.7872C84.602 47.5241 83.3882 47.8709 81.4808 47.8709C80.267 47.8709 79.2266 47.7842 78.403 47.6542V35.9064H82.0877Z" fill="black"/>
<path d="M101.345 19C98.5274 19 96.9235 20.4739 96.9235 22.9448C96.9235 25.5025 98.5274 26.933 101.345 26.933C104.076 26.933 105.68 25.4158 105.68 22.9448C105.68 20.4739 104.076 19 101.345 19ZM98.1806 29.6207C97.7471 29.6207 97.5304 29.8374 97.5304 30.3143V53.5064C97.5304 53.9833 97.7471 54.2 98.1806 54.2H104.423C104.856 54.2 105.073 53.9833 105.073 53.5064V30.3143C105.073 29.8374 104.856 29.6207 104.423 29.6207H98.1806Z" fill="black"/>
<path d="M121.426 29.4039C116.181 29.4039 112.453 29.664 110.328 30.1842C109.938 30.2709 109.721 30.3143 109.721 30.8345V53.5064C109.721 53.9833 109.938 54.2 110.328 54.2H116.701C117.134 54.2 117.351 53.9833 117.351 53.5064V35.9064H120.255C122.38 35.9064 123.117 35.8631 123.81 36.8601C124.504 37.8571 124.504 39.0276 124.504 42.2788V53.5064C124.504 53.9833 124.721 54.2 125.111 54.2H131.396C131.83 54.2 132.047 53.9833 132.047 53.5064V39.9379C132.047 35.4296 131.613 33.0453 129.922 31.4414C128.232 29.8374 125.891 29.4039 121.426 29.4039Z" fill="black"/>
<path d="M140.377 19C137.559 19 135.955 20.4739 135.955 22.9448C135.955 25.5025 137.559 26.933 140.377 26.933C143.108 26.933 144.712 25.4158 144.712 22.9448C144.712 20.4739 143.108 19 140.377 19ZM137.212 29.6207C136.779 29.6207 136.562 29.8374 136.562 30.3143V53.5064C136.562 53.9833 136.779 54.2 137.212 54.2H143.455C143.888 54.2 144.105 53.9833 144.105 53.5064V30.3143C144.105 29.8374 143.888 29.6207 143.455 29.6207H137.212Z" fill="black"/>
<path d="M150.314 31.9182C148.797 33.5655 148.06 36.9034 148.06 41.932C148.06 46.9606 148.797 50.2985 150.314 51.9458C151.831 53.5931 154.952 54.4167 159.591 54.4167C164.229 54.4167 167.307 53.5931 168.824 51.9458C170.341 50.2985 171.122 46.9606 171.122 41.932C171.122 36.9034 170.341 33.5655 168.824 31.9182C167.307 30.2276 164.229 29.4039 159.591 29.4039C154.952 29.4039 151.831 30.2276 150.314 31.9182ZM162.755 37.0768C163.275 37.9005 163.535 39.5044 163.535 41.932C163.535 44.3596 163.275 45.9635 162.755 46.7438C162.278 47.5241 161.195 47.9143 159.591 47.9143C157.987 47.9143 156.903 47.5241 156.383 46.7438C155.906 45.9635 155.646 44.3596 155.646 41.932C155.646 39.5044 155.906 37.9005 156.383 37.1202C156.903 36.2966 157.987 35.9064 159.591 35.9064C161.195 35.9064 162.278 36.2966 162.755 37.0768Z" fill="black"/>
<path d="M186.747 29.4039C181.502 29.4039 177.773 29.664 175.649 30.1842C175.259 30.2709 175.042 30.3143 175.042 30.8345V53.5064C175.042 53.9833 175.259 54.2 175.649 54.2H182.022C182.455 54.2 182.672 53.9833 182.672 53.5064V35.9064H185.576C187.701 35.9064 188.438 35.8631 189.131 36.8601C189.825 37.8571 189.825 39.0276 189.825 42.2788V53.5064C189.825 53.9833 190.041 54.2 190.432 54.2H196.717C197.151 54.2 197.368 53.9833 197.368 53.5064V39.9379C197.368 35.4296 196.934 33.0453 195.243 31.4414C193.553 29.8374 191.212 29.4039 186.747 29.4039Z" fill="black"/>
<defs>
<linearGradient id="paint0_linear_1434_22117" x1="39.5812" y1="28.9356" x2="61.9316" y2="61.4286" gradientUnits="userSpaceOnUse">
<stop stop-color="#0B0175"/>
<stop offset="1" stop-color="#0063F8"/>
</linearGradient>
</defs>
</svg>
