<svg width="250" height="80" viewBox="0 0 250 80" fill="none" xmlns="http://www.w3.org/2000/svg">
<path d="M22.9106 37.4533L37.3132 47.7005V59L22.9106 48.7529V37.4533Z" fill="url(#paint0_linear_1437_22198)"/>
<path d="M51.7008 37.4533L37.2982 47.7005L37.3132 53L37.2982 59L51.7008 48.7529V37.4533Z" fill="url(#paint1_linear_1437_22198)"/>
<path d="M37.3132 44.5467L22.9106 34.2995V23L37.3132 33.2471V44.5467Z" fill="url(#paint2_linear_1437_22198)"/>
<path d="M8.52307 44.5467L22.9257 34.2995L22.9231 28.7L22.9257 23L15.7244 28.1236L8.52307 33.2471L8.52307 44.5467Z" fill="url(#paint3_linear_1437_22198)"/>
<path d="M66.0934 34.0176V30.3473C66.0934 29.9234 66.3053 29.7115 66.7291 29.7115H82.3917C82.8155 29.7115 83.0274 29.9234 83.0274 30.3473V34.0176C83.0274 34.4415 82.8155 34.6534 82.3917 34.6534H77.2768V50.5198C77.2768 50.9437 77.0552 51.1556 76.6122 51.1556H72.4509C72.027 51.1556 71.8151 50.9437 71.8151 50.5198V34.6534H66.7291C66.3053 34.6534 66.0934 34.4415 66.0934 34.0176Z" fill="black"/>
<path d="M86.4956 50.5198V30.3473C86.4956 29.9234 86.7075 29.7115 87.1314 29.7115H101.494C101.917 29.7115 102.129 29.9234 102.129 30.3473V34.0465C102.129 34.4704 101.917 34.6823 101.494 34.6823H92.0729V38.2371H99.2395C99.7019 38.2371 99.9331 38.4587 99.9331 38.9018V41.8786C99.9331 42.3025 99.7019 42.5144 99.2395 42.5144H92.0729V46.2137H101.783C102.206 46.2137 102.418 46.4256 102.418 46.8495V50.5198C102.418 50.9437 102.206 51.1556 101.783 51.1556H87.1314C86.7075 51.1556 86.4956 50.9437 86.4956 50.5198Z" fill="black"/>
<path d="M106.025 50.5198V30.3473C106.025 30.1353 106.083 29.9812 106.198 29.8849C106.314 29.7693 106.458 29.7115 106.632 29.7115H115.908C116.89 29.7115 117.786 29.9138 118.595 30.3184C119.424 30.723 120.127 31.2528 120.705 31.9079C121.302 32.563 121.764 33.3144 122.092 34.1621C122.419 34.9906 122.583 35.848 122.583 36.7343C122.583 37.6013 122.419 38.4491 122.092 39.2775C121.784 40.106 121.341 40.8478 120.763 41.5029C120.185 42.158 119.491 42.6878 118.682 43.0924C117.873 43.4777 116.977 43.6704 115.995 43.6704H111.573V50.5198C111.573 50.9437 111.352 51.1556 110.909 51.1556H106.632C106.227 51.1556 106.025 50.9437 106.025 50.5198ZM114.694 34.2777H111.573V39.1041H114.694C115.407 39.1041 115.956 38.8633 116.341 38.3816C116.727 37.8807 116.919 37.3219 116.919 36.7054C116.919 36.4164 116.861 36.1274 116.746 35.8384C116.65 35.5494 116.505 35.2893 116.312 35.0581C116.139 34.8269 115.908 34.6438 115.619 34.5089C115.349 34.3548 115.041 34.2777 114.694 34.2777Z" fill="black"/>
<path d="M135.079 50.4909L131.727 38.9018L130.513 50.5198C130.494 50.9437 130.282 51.1556 129.877 51.1556H125.774C125.331 51.1556 125.119 50.9437 125.138 50.5198L127.305 30.3473C127.325 29.9234 127.536 29.7115 127.941 29.7115H132.998C133.21 29.7115 133.345 29.7693 133.403 29.8849C133.48 29.9812 133.557 30.1353 133.634 30.3473L137.564 43.3236L141.494 30.3473C141.571 30.1353 141.639 29.9812 141.696 29.8849C141.773 29.7693 141.918 29.7115 142.13 29.7115H147.187C147.591 29.7115 147.803 29.9234 147.823 30.3473L149.99 50.5198C150.009 50.9437 149.797 51.1556 149.354 51.1556H145.251C144.846 51.1556 144.634 50.9437 144.615 50.5198L143.43 39.1908L140.049 50.4909C139.972 50.7607 139.885 50.9437 139.789 51.04C139.712 51.1171 139.568 51.1556 139.356 51.1556H135.772C135.56 51.1556 135.406 51.1171 135.31 51.04C135.214 50.9437 135.137 50.7607 135.079 50.4909Z" fill="black"/>
<path d="M158.311 40.4336C158.311 41.2428 158.446 41.9942 158.716 42.6878C158.986 43.3814 159.361 43.9883 159.843 44.5085C160.325 45.0095 160.903 45.4141 161.577 45.7224C162.251 46.0114 162.983 46.1559 163.773 46.1559C164.563 46.1559 165.295 46.0114 165.969 45.7224C166.644 45.4141 167.222 45.0095 167.703 44.5085C168.185 43.9883 168.56 43.3814 168.83 42.6878C169.1 41.9942 169.235 41.2428 169.235 40.4336C169.235 39.6436 169.1 38.9018 168.83 38.2082C168.56 37.5146 168.185 36.9077 167.703 36.3875C167.222 35.8673 166.644 35.4627 165.969 35.1737C165.295 34.8654 164.563 34.7113 163.773 34.7113C162.983 34.7113 162.251 34.8654 161.577 35.1737C160.903 35.4627 160.325 35.8673 159.843 36.3875C159.361 36.9077 158.986 37.5146 158.716 38.2082C158.446 38.9018 158.311 39.6436 158.311 40.4336ZM152.734 40.4625C152.734 38.9211 153.023 37.4857 153.601 36.1563C154.179 34.8076 154.959 33.6323 155.942 32.6304C156.944 31.6285 158.119 30.8386 159.467 30.2606C160.816 29.6826 162.251 29.3936 163.773 29.3936C165.295 29.3936 166.721 29.6826 168.05 30.2606C169.398 30.8386 170.574 31.6285 171.575 32.6304C172.577 33.6323 173.367 34.8076 173.945 36.1563C174.523 37.4857 174.812 38.9211 174.812 40.4625C174.812 41.9845 174.523 43.4199 173.945 44.7686C173.367 46.0981 172.577 47.2637 171.575 48.2656C170.574 49.2482 169.398 50.0285 168.05 50.6065C166.721 51.1845 165.295 51.4736 163.773 51.4736C162.251 51.4736 160.816 51.1845 159.467 50.6065C158.119 50.0285 156.944 49.2482 155.942 48.2656C154.959 47.2637 154.179 46.0981 153.601 44.7686C153.023 43.4199 152.734 41.9845 152.734 40.4625Z" fill="black"/>
<path d="M178.845 44.5663V30.434C178.845 30.2606 178.893 30.0968 178.99 29.9427C179.105 29.7885 179.269 29.7115 179.481 29.7115H195.808C196.001 29.7115 196.164 29.7596 196.299 29.856C196.453 29.9523 196.53 30.1064 196.53 30.3184V50.5198C196.53 50.7318 196.463 50.8955 196.328 51.0111C196.213 51.1075 196.049 51.1556 195.837 51.1556H191.56C191.136 51.1556 190.924 50.9437 190.924 50.5198V34.8558H184.451V44.5663C184.451 45.5104 184.268 46.4063 183.902 47.2541C183.536 48.0826 183.026 48.8051 182.371 49.4216C181.735 50.0382 180.974 50.5295 180.088 50.8955C179.201 51.2616 178.238 51.4447 177.198 51.4447C176.774 51.4447 176.562 51.2038 176.562 50.7221V46.8206C176.562 46.3967 176.745 46.1848 177.111 46.1848C177.554 46.1848 177.949 46.0306 178.296 45.7224C178.662 45.3948 178.845 45.0095 178.845 44.5663Z" fill="black"/>
<path d="M207.223 50.5198C206.973 50.9437 206.626 51.1556 206.183 51.1556H201.935C201.472 51.1556 201.241 50.9437 201.241 50.5198V30.3473C201.241 30.1546 201.318 30.0005 201.472 29.8849C201.626 29.7693 201.781 29.7115 201.935 29.7115H205.952C206.163 29.7115 206.327 29.7789 206.443 29.9138C206.558 30.0294 206.616 30.1739 206.616 30.3473V42.052L213.841 30.3473C214.11 29.9234 214.457 29.7115 214.881 29.7115H219.562C219.774 29.7115 219.928 29.7789 220.025 29.9138C220.121 30.0294 220.169 30.1739 220.169 30.3473V50.5198C220.169 50.9437 219.967 51.1556 219.562 51.1556H215.517C215.054 51.1556 214.823 50.9437 214.823 50.5198V38.0348L207.223 50.5198Z" fill="black"/>
<path d="M223.789 34.0176V30.3473C223.789 29.9234 224.001 29.7115 224.425 29.7115H240.087C240.511 29.7115 240.723 29.9234 240.723 30.3473V34.0176C240.723 34.4415 240.511 34.6534 240.087 34.6534H234.973V50.5198C234.973 50.9437 234.751 51.1556 234.308 51.1556H230.147C229.723 51.1556 229.511 50.9437 229.511 50.5198V34.6534H224.425C224.001 34.6534 223.789 34.4415 223.789 34.0176Z" fill="black"/>
<defs>
<linearGradient id="paint0_linear_1437_22198" x1="23.0267" y1="26.6486" x2="23.0267" y2="54.2154" gradientUnits="userSpaceOnUse">
<stop stop-color="#FF0000"/>
<stop offset="1" stop-color="#0049D8"/>
</linearGradient>
<linearGradient id="paint1_linear_1437_22198" x1="23.0267" y1="26.6486" x2="23.0267" y2="54.2154" gradientUnits="userSpaceOnUse">
<stop stop-color="#FF0000"/>
<stop offset="1" stop-color="#0049D8"/>
</linearGradient>
<linearGradient id="paint2_linear_1437_22198" x1="23.0267" y1="26.6486" x2="23.0267" y2="54.2154" gradientUnits="userSpaceOnUse">
<stop stop-color="#FF0000"/>
<stop offset="1" stop-color="#0049D8"/>
</linearGradient>
<linearGradient id="paint3_linear_1437_22198" x1="23.0267" y1="26.6486" x2="23.0267" y2="54.2154" gradientUnits="userSpaceOnUse">
<stop stop-color="#FF0000"/>
<stop offset="1" stop-color="#0049D8"/>
</linearGradient>
</defs>
</svg>
