<svg width="18" height="18" viewBox="0 0 18 18" fill="none" xmlns="http://www.w3.org/2000/svg">
<path d="M9 0C4.02863 0 0 4.02863 0 9C0 13.9714 4.02863 18 9 18C13.9714 18 18 13.9714 18 9C18 4.02863 13.9714 0 9 0ZM9 15.75C5.274 15.75 2.25 12.726 2.25 9C2.25 5.274 5.274 2.25 9 2.25C12.726 2.25 15.75 5.274 15.75 9C15.75 12.726 12.726 15.75 9 15.75ZM7.3125 7.3125L4.5 12.375V13.5H5.625L10.6875 10.6875L13.5 5.625V4.5H12.375L7.3125 7.3125ZM9 10.125C8.37788 10.125 7.875 9.62212 7.875 9C7.875 8.37788 8.37788 7.875 9 7.875C9.62212 7.875 10.125 8.37788 10.125 9C10.125 9.62212 9.62212 10.125 9 10.125Z" fill="black"/>
</svg>
