<svg width="334" height="193" viewBox="0 0 334 193" fill="none" xmlns="http://www.w3.org/2000/svg">
<mask id="mask0_1986_12195" style="mask-type:alpha" maskUnits="userSpaceOnUse" x="0" y="7" width="329" height="186">
<path d="M2.2937 105.725C-4.63337 84.2804 4.85538 59.246 21.0133 56.3366L293.526 7.26708C306.574 4.91757 318.481 18.3283 320.193 37.3014L328.793 132.64C330.606 152.733 320.296 170.828 306.393 171.953L47.0076 192.946C37.2666 193.734 28.1718 185.838 24.0209 172.987L2.2937 105.725Z" fill="#8BD176"/>
</mask>
<g mask="url(#mask0_1986_12195)">
<path d="M2.2937 105.725C-4.63337 84.2804 4.85538 59.246 21.0133 56.3366L293.526 7.26708C306.574 4.91757 318.481 18.3283 320.193 37.3014L328.793 132.64C330.606 152.733 320.296 170.828 306.393 171.953L47.0076 192.946C37.2666 193.734 28.1718 185.838 24.0209 172.987L2.2937 105.725Z" fill="#8BD176"/>
<path d="M277.855 82.9454C277.855 76.8604 279.201 71.8286 281.894 67.8499C284.704 63.8712 288.743 59.483 294.011 54.6852C297.875 51.1746 300.685 48.2492 302.441 45.9088C304.314 43.4514 305.251 40.7014 305.251 37.6589C305.251 33.3292 303.495 29.9356 299.982 27.4782C296.587 24.9038 292.021 23.6166 286.284 23.6166C280.782 23.6166 275.864 24.7868 271.532 27.1272C267.317 29.3505 263.747 32.5101 260.82 36.6057L239.57 24.1432C244.487 16.654 251.102 10.8615 259.415 6.76582C267.844 2.67015 277.796 0.622314 289.27 0.622314C302.734 0.622314 313.505 3.48929 321.583 9.22323C329.779 14.9572 333.877 22.9145 333.877 33.0952C333.877 37.893 333.057 42.1057 331.418 45.7333C329.896 49.3609 327.964 52.4619 325.623 55.0363C323.398 57.4937 320.471 60.3607 316.842 63.6372C312.51 67.4988 309.349 70.7754 307.358 73.4668C305.368 76.0413 304.373 79.2008 304.373 82.9454H277.855ZM291.202 127.003C286.401 127.003 282.362 125.482 279.084 122.439C275.923 119.28 274.342 115.477 274.342 111.03C274.342 106.583 275.923 102.897 279.084 99.9717C282.245 96.9292 286.284 95.4079 291.202 95.4079C296.119 95.4079 300.158 96.9292 303.319 99.9717C306.48 102.897 308.061 106.583 308.061 111.03C308.061 115.477 306.422 119.28 303.144 122.439C299.982 125.482 296.002 127.003 291.202 127.003Z" fill="black"/>
</g>
<path d="M277.855 82.9451C277.855 76.8601 279.201 71.8283 281.894 67.8497C284.704 63.871 288.743 59.4828 294.011 54.685C297.875 51.1744 300.685 48.2489 302.441 45.9085C304.314 43.4511 305.251 40.7012 305.251 37.6587C305.251 33.329 303.495 29.9354 299.982 27.478C296.587 24.9036 292.021 23.6164 286.284 23.6164C280.782 23.6164 275.864 24.7865 271.532 27.1269C267.317 29.3503 263.747 32.5098 260.82 36.6055L239.57 24.1429C244.487 16.6537 251.102 10.8613 259.415 6.76558C267.844 2.66991 277.796 0.62207 289.27 0.62207C302.734 0.62207 313.505 3.48904 321.583 9.22298C329.779 14.9569 333.877 22.9142 333.877 33.0949C333.877 37.8927 333.057 42.1054 331.418 45.733C329.896 49.3606 327.964 52.4616 325.623 55.036C323.398 57.4934 320.471 60.3604 316.842 63.637C312.51 67.4986 309.349 70.7751 307.358 73.4666C305.368 76.041 304.373 79.2005 304.373 82.9451H277.855Z" fill="black"/>
</svg>
