<svg width="1395" height="562" viewBox="0 0 1395 562" fill="none" xmlns="http://www.w3.org/2000/svg">
<mask id="mask0_1904_12199" style="mask-type:alpha" maskUnits="userSpaceOnUse" x="0" y="27" width="1375" height="535">
<path d="M9.69769 310.851C-19.2469 249.285 20.4016 177.414 87.9172 169.061L1226.6 28.1867C1281.13 21.4414 1330.88 59.9425 1338.03 114.413L1373.97 388.122C1381.54 445.807 1338.46 497.755 1280.37 500.985L196.534 561.255C155.831 563.518 117.829 540.847 100.484 503.956L9.69769 310.851Z" fill="#8BD176"/>
</mask>
<g mask="url(#mask0_1904_12199)">
<path d="M9.69769 310.851C-19.2469 249.285 20.4016 177.414 87.9172 169.061L1226.6 28.1867C1281.13 21.4414 1330.88 59.9425 1338.03 114.413L1373.97 388.122C1381.54 445.807 1338.46 497.755 1280.37 500.985L196.534 561.255C155.831 563.518 117.829 540.847 100.484 503.956L9.69769 310.851Z" fill="#8BD176"/>
<path d="M1160.95 343.933C1160.95 318.511 1166.57 297.489 1177.82 280.867C1189.56 264.244 1206.44 245.911 1228.45 225.867C1244.59 211.2 1256.33 198.978 1263.67 189.2C1271.49 178.933 1275.41 167.444 1275.41 154.733C1275.41 136.644 1268.07 122.467 1253.39 112.2C1239.21 101.444 1220.13 96.0667 1196.17 96.0667C1173.18 96.0667 1152.63 100.956 1134.53 110.733C1116.93 120.022 1102.01 133.222 1089.78 150.333L1001 98.2667C1021.54 66.9778 1049.18 42.7778 1083.91 25.6666C1119.13 8.55555 1160.7 0 1208.64 0C1264.89 0 1309.89 11.9778 1343.64 35.9333C1377.88 59.8889 1395 93.1333 1395 135.667C1395 155.711 1391.58 173.311 1384.73 188.467C1378.37 203.622 1370.3 216.578 1360.52 227.333C1351.22 237.6 1338.99 249.578 1323.83 263.267C1305.73 279.4 1292.53 293.089 1284.21 304.333C1275.9 315.089 1271.74 328.289 1271.74 343.933H1160.95ZM1216.71 528C1196.65 528 1179.78 521.644 1166.08 508.933C1152.88 495.733 1146.27 479.844 1146.27 461.267C1146.27 442.689 1152.88 427.289 1166.08 415.067C1179.29 402.356 1196.17 396 1216.71 396C1237.25 396 1254.13 402.356 1267.34 415.067C1280.54 427.289 1287.15 442.689 1287.15 461.267C1287.15 479.844 1280.3 495.733 1266.6 508.933C1253.39 521.644 1236.76 528 1216.71 528Z" fill="black"/>
</g>
<path d="M1160.95 343.933C1160.95 318.511 1166.57 297.489 1177.82 280.867C1189.56 264.244 1206.44 245.911 1228.45 225.867C1244.59 211.2 1256.33 198.978 1263.67 189.2C1271.49 178.933 1275.41 167.444 1275.41 154.733C1275.41 136.644 1268.07 122.467 1253.39 112.2C1239.21 101.444 1220.13 96.0667 1196.17 96.0667C1173.18 96.0667 1152.63 100.956 1134.53 110.733C1116.93 120.022 1102.01 133.222 1089.78 150.333L1001 98.2667C1021.54 66.9778 1049.18 42.7778 1083.91 25.6666C1119.13 8.55555 1160.7 0 1208.64 0C1264.89 0 1309.89 11.9778 1343.64 35.9333C1377.88 59.8889 1395 93.1333 1395 135.667C1395 155.711 1391.58 173.311 1384.73 188.467C1378.37 203.622 1370.3 216.578 1360.52 227.333C1351.22 237.6 1338.99 249.578 1323.83 263.267C1305.73 279.4 1292.53 293.089 1284.21 304.333C1275.9 315.089 1271.74 328.289 1271.74 343.933H1160.95Z" fill="black"/>
</svg>
