<svg width="45" height="27" viewBox="0 0 45 27" fill="none" xmlns="http://www.w3.org/2000/svg">
<path d="M45 13.5C45 20.9077 38.977 27 31.5 27C24.0923 27 18 20.9077 18 13.5C18 6.09231 24.0231 0 31.4308 0C38.977 0 45 6.09231 45 13.5Z" fill="#F9B50B"/>
<path d="M26.9308 13.5692C26.9308 12.6 26.7923 11.6308 26.6538 10.7308H18.3462C18.4154 10.2462 18.5538 9.83077 18.6923 9.27692H26.1C25.9615 8.79231 25.7538 8.30769 25.5462 7.82308H19.2462C19.4538 7.33846 19.7308 6.92308 20.0077 6.36923H24.7846C24.5077 5.88462 24.1615 5.4 23.7462 4.91538H21.1154C21.5308 4.43077 21.9462 4.01538 22.5 3.53077C20.1462 1.31538 16.9615 0 13.4308 0C6.09231 0.207692 0 6.09231 0 13.5C0 20.9077 6.02308 27 13.5 27C17.0308 27 20.1462 25.6154 22.5692 23.4692C23.0538 23.0538 23.4692 22.5692 23.9538 22.0154H21.1846C20.8385 21.6 20.4923 21.1154 20.2154 20.6308H24.9231C25.2 20.2154 25.4769 19.7308 25.6846 19.1769H19.3846C19.1769 18.7615 18.9692 18.2769 18.8308 17.7231H26.2385C26.6538 16.4769 26.9308 15.0923 26.9308 13.5692Z" fill="#C8191C"/>
<path d="M18.2772 16.9621L18.4849 15.716C18.4157 15.716 18.2772 15.7852 18.1387 15.7852C17.6541 15.7852 17.5849 15.5083 17.6541 15.3698L18.0695 12.8775H18.831L19.0387 11.4929H18.3464L18.4849 10.6621H17.031C17.031 10.6621 16.2003 15.3698 16.2003 15.9236C16.2003 16.7544 16.6849 17.1698 17.3772 17.1698C17.7926 17.1698 18.1387 17.0313 18.2772 16.9621Z" fill="white"/>
<path d="M18.7611 14.6768C18.7611 16.6845 20.1458 17.1691 21.2534 17.1691C22.2919 17.1691 22.7765 16.9614 22.7765 16.9614L23.0534 15.5768C23.0534 15.5768 22.2919 15.923 21.5304 15.923C19.9381 15.923 20.215 14.746 20.215 14.746H23.1227C23.1227 14.746 23.3304 13.846 23.3304 13.4307C23.3304 12.5307 22.8458 11.3537 21.2534 11.3537C19.8688 11.2845 18.7611 12.8768 18.7611 14.6768ZM21.2534 12.5999C22.015 12.5999 21.8765 13.4999 21.8765 13.5691H20.2842C20.3534 13.4999 20.4919 12.5999 21.2534 12.5999Z" fill="white"/>
<path d="M30.3228 16.9611L30.5997 15.3688C30.5997 15.3688 29.9074 15.7149 29.3536 15.7149C28.3843 15.7149 27.8997 14.9534 27.8997 14.0534C27.8997 12.3226 28.7305 11.4226 29.7689 11.4226C30.4613 11.4226 31.0843 11.838 31.0843 11.838L31.292 10.3149C31.292 10.3149 30.4613 9.96875 29.6305 9.96875C27.9689 9.96875 26.3766 11.4226 26.3766 14.1226C26.3766 15.9226 27.2074 17.0995 28.9382 17.0995C29.5613 17.1688 30.3228 16.9611 30.3228 16.9611Z" fill="white"/>
<path d="M10.4534 11.2852C9.48421 11.2852 8.72267 11.5621 8.72267 11.5621L8.51498 12.8082C8.51498 12.8082 9.13806 12.5313 10.1073 12.5313C10.5919 12.5313 11.0073 12.6005 11.0073 13.0159C11.0073 13.2928 10.9381 13.3621 10.9381 13.3621H10.315C9.06883 13.3621 7.75344 13.8467 7.75344 15.5082C7.75344 16.8236 8.58421 17.1005 9.13806 17.1005C10.1073 17.1005 10.5919 16.4775 10.6611 16.4775L10.5919 17.0313H11.7688L12.3227 13.0852C12.3227 11.3544 10.9381 11.2852 10.4534 11.2852ZM10.7304 14.4698C10.7304 14.6775 10.5919 15.8544 9.76113 15.8544C9.34575 15.8544 9.20729 15.5082 9.20729 15.3005C9.20729 14.9544 9.41498 14.4698 10.5227 14.4698C10.6611 14.4698 10.7304 14.4698 10.7304 14.4698Z" fill="white"/>
<path d="M13.7082 17.1004C14.0544 17.1004 15.8544 17.1697 15.8544 15.2312C15.8544 13.4312 14.1236 13.7774 14.1236 13.0851C14.1236 12.7389 14.4006 12.6004 14.8852 12.6004C15.0929 12.6004 15.8544 12.6697 15.8544 12.6697L16.0621 11.3543C16.0621 11.3543 15.5775 11.2158 14.6775 11.2158C13.639 11.2158 12.5313 11.6312 12.5313 13.0851C12.5313 14.7466 14.3313 14.6081 14.3313 15.2312C14.3313 15.6466 13.8467 15.7158 13.5006 15.7158C12.8775 15.7158 12.1852 15.5081 12.1852 15.5081L11.9775 16.8235C12.1159 16.962 12.5313 17.1004 13.7082 17.1004Z" fill="white"/>
<path d="M42.2304 10.1777L41.9534 12.1162C41.9534 12.1162 41.3996 11.4239 40.5688 11.4239C39.2534 11.4239 38.1458 13.0162 38.1458 14.8854C38.1458 16.0624 38.6996 17.2393 39.9458 17.2393C40.7765 17.2393 41.3304 16.6854 41.3304 16.6854L41.2611 17.17H42.715L43.7534 10.3162L42.2304 10.1777ZM41.5381 13.9162C41.5381 14.6777 41.1919 15.7162 40.3611 15.7162C39.8765 15.7162 39.5996 15.3008 39.5996 14.5393C39.5996 13.3623 40.0842 12.67 40.7765 12.67C41.2611 12.7393 41.5381 13.0854 41.5381 13.9162Z" fill="white"/>
<path d="M2.63135 17.0316L3.46212 11.9085L3.60058 17.0316H4.56981L6.43904 11.9085L5.6775 17.0316H7.20058L8.3775 10.1777H6.02366L4.56981 14.4008L4.50058 10.1777H2.42366L1.24673 17.0316H2.63135Z" fill="white"/>
<path d="M24.7845 17.0315C25.1999 14.6777 25.2691 12.7392 26.3076 13.0854C26.4461 12.1854 26.6537 11.77 26.7922 11.4238H26.5153C25.8922 11.4238 25.3384 12.2546 25.3384 12.2546L25.4768 11.4931H24.0922L23.1922 17.0315H24.7845Z" fill="white"/>
<path d="M33.6455 11.2852C32.6763 11.2852 31.9148 11.5621 31.9148 11.5621L31.7071 12.8082C31.7071 12.8082 32.3301 12.5313 33.2994 12.5313C33.784 12.5313 34.1994 12.6005 34.1994 13.0159C34.1994 13.2928 34.1301 13.3621 34.1301 13.3621H33.5071C32.2609 13.3621 30.9455 13.8467 30.9455 15.5082C30.9455 16.8236 31.7763 17.1005 32.3301 17.1005C33.2994 17.1005 33.784 16.4775 33.8532 16.4775L33.784 17.0313H35.0994L35.6532 13.0852C35.6532 11.3544 34.1301 11.2852 33.6455 11.2852ZM33.9917 14.4698C33.9917 14.6775 33.8532 15.8544 33.0225 15.8544C32.6071 15.8544 32.4686 15.5082 32.4686 15.3005C32.4686 14.9544 32.6763 14.4698 33.784 14.4698C33.9225 14.4698 33.9225 14.4698 33.9917 14.4698Z" fill="white"/>
<path d="M36.762 17.0315C37.1774 14.6777 37.2466 12.7392 38.285 13.0854C38.4235 12.1854 38.6312 11.77 38.7697 11.4238H38.4927C37.8697 11.4238 37.3158 12.2546 37.3158 12.2546L37.4543 11.4931H36.0697L35.1697 17.0315H36.762Z" fill="white"/>
</svg>
