<svg width="100" height="100" viewBox="0 0 100 100" fill="none" xmlns="http://www.w3.org/2000/svg">
<path fill-rule="evenodd" clip-rule="evenodd" d="M1.81891 0.229678C1.03139 0.573722 0.209447 1.57319 0.0696209 2.35692C0.00782386 2.70351 -0.017599 24.3904 0.0129084 50.5501L0.0686431 98.1131L0.471889 98.6534C0.693654 98.9505 1.11802 99.3749 1.41508 99.5967L1.95521 100H50.0343H98.1134L98.6536 99.5967C98.9506 99.3749 99.375 98.9505 99.5967 98.6534L100 98.1131V50.0265V1.93992L99.5967 1.3997C99.375 1.1026 98.9506 0.678168 98.6536 0.456368L98.1134 0.0530593L50.2645 0.0112028C10.7816 -0.0234167 2.31113 0.014919 1.81891 0.229678ZM31.4561 12.6687V19.5144H18.6469H5.83767V12.6687V5.82299H18.6469H31.4561V12.6687ZM62.9413 12.6687V19.5144H50.1321H37.3229V12.6687V5.82299H50.1321H62.9413V12.6687ZM94.231 12.6687V19.5144H81.5195H68.8081V12.6687V5.82299H81.5195H94.231V12.6687ZM55.1189 40.247V55.1119H30.4783H5.83767V40.247V25.3821H30.4783H55.1189V40.247ZM94.231 34.3793V43.3764H77.6083H60.9857V34.3793V25.3821H77.6083H94.231V34.3793ZM73.5896 31.7143C71.0269 32.8572 71.41 36.7074 74.1373 37.219C75.7742 37.5261 81.4693 37.2325 82.0317 36.812C83.8813 35.429 83.8813 33.3293 82.0315 31.9465C81.3394 31.429 74.6427 31.2449 73.5896 31.7143ZM94.231 71.7371V94.2301H77.6083H60.9857V71.7371V49.2442H77.6083H94.231V71.7371ZM27.5449 77.6048V94.2301H16.6913H5.83767V77.6048V60.9796H16.6913H27.5449V77.6048ZM55.1189 77.6048V94.2301H44.2653H33.4117V77.6048V60.9796H44.2653H55.1189V77.6048ZM68.7006 65.1563C67.9097 65.5144 67.0921 66.5115 66.9446 67.2976C66.6392 68.9267 66.9345 74.6225 67.3535 75.1832C68.7365 77.0333 70.8369 77.0331 72.2183 75.1824C72.8361 74.3547 72.8361 67.1636 72.2183 66.3359C71.2913 65.0943 69.8817 64.6215 68.7006 65.1563ZM17.4637 70.046C16.6729 70.4042 15.8553 71.4013 15.7078 72.1874C15.4023 73.8164 15.6976 79.5122 16.1167 80.073C17.4997 81.9231 19.6 81.9229 20.9815 80.0722C21.5993 79.2445 21.5993 72.0534 20.9815 71.2256C20.0545 69.984 18.6449 69.5113 17.4637 70.046ZM41.3221 70.046C40.5313 70.4042 39.7136 71.4013 39.5662 72.1874C39.2607 73.8164 39.556 79.5122 39.9751 80.073C41.3581 81.9231 43.4584 81.9229 44.8398 80.0722C45.4576 79.2445 45.4576 72.0534 44.8398 71.2256C43.9129 69.984 42.5033 69.5113 41.3221 70.046Z" fill="#8BD176"/>
</svg>
