<svg width="100" height="100" viewBox="0 0 100 100" fill="none" xmlns="http://www.w3.org/2000/svg">
<path fill-rule="evenodd" clip-rule="evenodd" d="M7.85617 0.23073C7.13669 0.551318 6.48449 1.2398 6.20698 1.97187C6.06207 2.35404 5.99832 12.9377 5.99832 36.603V70.6838L3.9586 70.7505C1.75695 70.8224 1.30187 71.005 0.436896 72.163C0.0393166 72.6953 0.0336452 72.881 0.0336452 85.3804C0.0336452 101.716 -1.02513 99.9437 8.7362 99.9437C17.9797 99.9437 17.4108 100.383 17.4972 93.1857L17.5557 88.3126H29.3681H41.1805L41.239 93.1857C41.3254 100.383 40.7565 99.9437 50 99.9437C59.2435 99.9437 58.6746 100.383 58.761 93.1857L58.8195 88.3126H70.6319H82.4443L82.5028 93.1857C82.5892 100.383 82.0203 99.9437 91.2638 99.9437C101.025 99.9437 99.9664 101.716 99.9664 85.3804C99.9664 72.881 99.9607 72.6953 99.5631 72.163C98.6983 71.0052 98.2429 70.8224 96.043 70.7505L94.005 70.6838L93.9544 36.3113C93.8976 -2.28823 94.048 1.5686 92.5574 0.456315L92.0173 0.0532343L50.2302 0.011206C15.7037 -0.023394 8.34097 0.0147247 7.85617 0.23073ZM20.7049 10.693C20.7913 17.8898 20.2224 17.451 29.4659 17.451C38.7094 17.451 38.1405 17.8898 38.2269 10.693L38.2854 5.8199H42.676H47.0666V20.4809V35.142H29.4659H11.8652V20.4809V5.8199H16.2558H20.6464L20.7049 10.693ZM32.3993 8.75211V11.6843H29.4659H26.5324V8.75211V5.8199H29.4659H32.3993V8.75211ZM61.7731 10.693C61.8595 17.8898 61.2906 17.451 70.5341 17.451C79.7776 17.451 79.2087 17.8898 79.2952 10.693L79.3536 5.8199H83.7442H88.1348V20.4809V35.142H70.5341H52.9334V20.4809V5.8199H57.324H61.7146L61.7731 10.693ZM73.4676 8.75211V11.6843H70.5341H67.6007V8.75211V5.8199H70.5341H73.4676V8.75211ZM20.7049 45.8795C20.7913 53.0763 20.2224 52.6375 29.4659 52.6375C38.7094 52.6375 38.1405 53.0763 38.2269 45.8795L38.2854 41.0064H42.676H47.0666V55.8629V70.7194H29.4659H11.8652V55.8629V41.0064H16.2558H20.6464L20.7049 45.8795ZM32.3993 43.9386V46.8708H29.4659H26.5324V43.9386V41.0064H29.4659H32.3993V43.9386ZM61.7731 45.8795C61.8595 53.0763 61.2906 52.6375 70.5341 52.6375C79.7776 52.6375 79.2087 53.0763 79.2952 45.8795L79.3536 41.0064H83.7442H88.1348V55.8629V70.7194H70.5341H52.9334V55.8629V41.0064H57.324H61.7146L61.7731 45.8795ZM73.4676 43.9386V46.8708H70.5341H67.6007V43.9386V41.0064H70.5341H73.4676V43.9386ZM94.1973 79.516V82.4482H50H5.80275V79.516V76.5838H50H94.1973V79.516ZM11.6696 91.2448V94.177H8.7362H5.80275V91.2448V88.3126H8.7362H11.6696V91.2448ZM52.9334 91.2448V94.177H50H47.0666V91.2448V88.3126H50H52.9334V91.2448ZM94.1973 91.2448V94.177H91.2638H88.3304V91.2448V88.3126H91.2638H94.1973V91.2448Z" fill="#8BD176"/>
</svg>
