<svg width="100" height="100" viewBox="0 0 100 100" fill="none" xmlns="http://www.w3.org/2000/svg">
<path fill-rule="evenodd" clip-rule="evenodd" d="M56.1105 0.230431C54.1168 0.858611 52.6766 2.12631 51.7775 4.04426L51.2695 5.12824V16.5662V28.0042L51.9062 29.2983C52.6471 30.8046 53.7061 31.8382 55.25 32.5627C56.3287 33.0689 56.4303 33.0787 61.1555 33.1387L65.9633 33.1999L65.2449 36.0705L64.5264 38.9412L56.2867 38.9923L48.0469 39.0433L48.0453 38.1127C48.0408 35.6909 47.4398 25.0607 47.2625 24.2685C46.7937 22.1755 44.9086 19.6897 43.0027 18.6517C41.0424 17.5839 40.5473 17.5394 30.6641 17.5394C20.7809 17.5394 20.2857 17.5839 18.3254 18.6517C16.4195 19.6897 14.5344 22.1755 14.0656 24.2685C13.8883 25.0603 13.2873 35.6903 13.2828 38.1106L13.2812 39.039H7.80469C2.70137 39.039 2.27559 39.0657 1.55742 39.4324C1.06113 39.6857 0.646289 40.1008 0.393164 40.5975C0.00488281 41.3592 0 41.6965 0 67.3793C0 93.0622 0.00488281 93.3995 0.393164 94.1612C0.835352 95.0284 1.96055 95.7197 2.92969 95.7197C3.89883 95.7197 5.02402 95.0284 5.46621 94.1612C5.85195 93.4044 5.85938 93.0452 5.85938 75.0098V56.6295H9.1584H12.4576L12.7643 57.9883C13.2295 60.0499 14.1121 61.6087 15.7324 63.2307C17.2795 64.7793 19.3174 65.909 20.9736 66.1361L21.8436 66.2555L21.908 69.6026C21.9684 72.7279 22.0063 73.0216 22.4807 74.0337C23.3842 75.9612 24.8594 77.2541 26.8137 77.8313L27.6367 78.0742L27.6898 81.591L27.743 85.1077L21.7336 86.8249C18.4285 87.7694 15.5211 88.6753 15.2727 88.8381C15.0244 89.0009 14.6506 89.469 14.4418 89.8783C14.1076 90.5338 14.0625 91.043 14.0625 94.1561C14.0625 98.2686 14.2498 98.9267 15.6199 99.6262C16.5961 100.125 17.3883 100.125 18.3645 99.6262C19.5889 99.001 19.9219 98.1308 19.9219 95.5557V93.4218L23.584 92.3922C25.5982 91.8258 27.3561 91.3219 27.4902 91.2724C27.6768 91.2038 27.7344 91.7202 27.7344 93.4589C27.7344 96.189 28.0477 97.0365 29.2918 97.6717C30.268 98.1701 31.0602 98.1701 32.0363 97.6717C33.2795 97.0371 33.5938 96.1884 33.5938 93.4666C33.5938 91.3977 33.6238 91.207 33.9355 91.2996C34.1234 91.3553 35.8814 91.8582 37.8418 92.4168L41.4062 93.4324V95.561C41.4062 98.1304 41.7398 99.0013 42.9637 99.6262C43.9398 100.125 44.732 100.125 45.7082 99.6262C47.0783 98.9267 47.2656 98.2686 47.2656 94.1561C47.2656 90.0686 47.0717 89.373 45.7494 88.7183C45.3479 88.5195 42.4469 87.6257 39.3023 86.7321L33.5852 85.1071L33.6383 81.5908L33.6914 78.0742L34.5145 77.8313C36.4688 77.2541 37.9439 75.9612 38.8475 74.0337C39.3219 73.0216 39.3598 72.7279 39.4201 69.6026L39.4846 66.2555L40.3766 66.1331C41.9742 65.914 44.0943 64.7284 45.6271 63.1967C47.2146 61.6104 48.1014 60.038 48.5639 57.9883L48.8705 56.6295H51.9744H55.0781V75.0098C55.0781 93.0452 55.0855 93.4044 55.4713 94.1612C55.9135 95.0284 57.0387 95.7197 58.0078 95.7197C58.977 95.7197 60.1021 95.0284 60.5443 94.1612C60.9061 93.4515 60.9375 93.0147 60.9375 88.6913V83.9927H77.5391H94.1406V88.6913C94.1406 93.0147 94.1721 93.4515 94.5338 94.1612C94.976 95.0284 96.1012 95.7197 97.0703 95.7197C98.0395 95.7197 99.1646 95.0284 99.6068 94.1612C99.9951 93.3995 100 93.0622 100 67.3793C100 41.7121 99.9947 41.3586 99.6074 40.5989C98.8924 39.1961 98.6725 39.1492 92.2973 39.039L86.6451 38.9412L85.927 36.0705L85.2086 33.1999L90.0215 33.1387L94.8342 33.0777L96.1266 32.4405C97.6307 31.699 98.6641 30.6387 99.3877 29.0944L99.9023 27.996V16.558V5.12003L99.2656 3.82595C98.5248 2.31961 97.4658 1.28606 95.9219 0.561525L94.8242 0.0465122L75.8789 0.00879015C60.5986 -0.0217002 56.7744 0.021299 56.1105 0.230431ZM93.8338 6.11937C94.1049 6.39085 94.1406 7.60851 94.1406 16.5621C94.1406 25.5157 94.1049 26.7334 93.8338 27.0049C93.5592 27.2795 91.6354 27.3119 75.5859 27.3119C59.5365 27.3119 57.6127 27.2795 57.3381 27.0049C57.067 26.7334 57.0312 25.5157 57.0312 16.5621C57.0312 7.60851 57.067 6.39085 57.3381 6.11937C57.6127 5.84476 59.5365 5.81231 75.5859 5.81231C91.6354 5.81231 93.5592 5.84476 93.8338 6.11937ZM40.3668 23.912C41.6562 24.8742 41.5672 24.1134 42.3209 40.6114C42.6994 48.8983 42.9512 56.0661 42.8801 56.5396C42.7037 57.7172 41.7031 59.1341 40.543 59.8488L39.582 60.4408L31.1203 60.4975C25.5596 60.5349 22.393 60.4827 21.8844 60.3457C20.6875 60.0232 19.5131 59.0082 18.8615 57.7333L18.2855 56.6059L18.9121 42.3988C19.6646 25.3369 19.6508 25.5294 20.1934 24.7161C21.0871 23.3769 20.9639 23.3916 30.8941 23.449C39.6174 23.4994 39.8277 23.5098 40.3668 23.912ZM79.8965 36.1561L80.6178 39.039H75.5846H70.5514L71.2199 36.3515C71.5877 34.8735 71.9273 33.5521 71.975 33.4153C72.0416 33.2235 72.8762 33.1788 75.6184 33.2198L79.1752 33.2732L79.8965 36.1561ZM12.8906 46.0451C12.8906 46.6737 12.8336 47.993 12.7637 48.9769L12.6369 50.766H9.24805H5.85938V47.8343V44.9025H9.375H12.8906V46.0451ZM94.1406 47.8343V50.766H71.416H48.6912L48.5645 48.9769C48.4945 47.993 48.4375 46.6737 48.4375 46.0451V44.9025H71.2891H94.1406V47.8343ZM94.1406 67.3793V78.1291H77.5391H60.9375V67.3793V56.6295H77.5391H94.1406V67.3793ZM70.2658 62.8961C69.4412 63.3318 68.75 64.4849 68.75 65.4248C68.75 66.3947 69.4408 67.5207 70.3074 67.9632C71.034 68.3339 71.4492 68.3566 77.5391 68.3566C83.6289 68.3566 84.0441 68.3339 84.7707 67.9632C85.6373 67.5207 86.3281 66.3947 86.3281 65.4248C86.3281 64.455 85.6373 63.329 84.7707 62.8865C84.0428 62.515 83.6385 62.4935 77.498 62.5017C71.4107 62.5099 70.9494 62.5349 70.2658 62.8961ZM33.5938 69.0268C33.5938 71.1521 33.5354 71.7097 33.2869 71.9586C33.0424 72.2031 32.509 72.2656 30.6641 72.2656C28.8191 72.2656 28.2857 72.2031 28.0412 71.9586C27.7928 71.7097 27.7344 71.1521 27.7344 69.0268V66.4021H30.6641H33.5938V69.0268Z" fill="#8BD176"/>
</svg>
