<svg width="57" height="17" viewBox="0 0 57 17" fill="none" xmlns="http://www.w3.org/2000/svg">
<path fill-rule="evenodd" clip-rule="evenodd" d="M5.9021 0.887365C6.40094 0.88438 7.88345 0.750857 8.51142 2.87024C8.93442 4.29787 9.60824 6.63641 10.5329 9.88584H10.9094C11.901 6.46006 12.5822 4.12153 12.953 2.87024C13.5875 0.72878 15.1737 0.887407 15.8082 0.887407L20.7036 0.887413V16.1155H15.7141V7.14134H15.3795L12.5981 16.1155H8.84418L6.06279 7.13469H5.72821V16.1155H0.738724V0.887413L5.9021 0.887365ZM27.8684 0.887413V9.86826H28.2664L31.6497 2.48337C32.3065 1.01376 33.7063 0.887413 33.7063 0.887413H38.5346V16.1155H33.4409V7.13469H33.0429L29.7259 14.5196C29.0691 15.9825 27.603 16.1155 27.603 16.1155H22.7747V0.887413H27.8684ZM56.1407 8.12392C55.4301 10.1374 53.1988 11.5793 50.7285 11.5793H45.3867V16.1155H40.5429V8.12392H56.1407Z" fill="#0F754E"/>
<path fill-rule="evenodd" clip-rule="evenodd" d="M50.9611 0.888184H40.288C40.542 4.27848 43.4616 7.1808 46.484 7.1808H56.4763C57.0529 4.36306 55.0678 0.888184 50.9611 0.888184Z" fill="url(#paint0_linear_1437_78366)"/>
<defs>
<linearGradient id="paint0_linear_1437_78366" x1="56.5742" y1="4.84651" x2="40.288" y2="4.84651" gradientUnits="userSpaceOnUse">
<stop stop-color="#1F5CD7"/>
<stop offset="1" stop-color="#02AEFF"/>
</linearGradient>
</defs>
</svg>
