<svg width="76" height="76" viewBox="0 0 76 76" fill="none" xmlns="http://www.w3.org/2000/svg">
<path fill-rule="evenodd" clip-rule="evenodd" d="M14.8827 0.202947C12.3246 0.823335 10.2624 2.97072 9.70673 5.59286C9.53586 6.39911 9.49325 8.30778 9.49117 15.2453L9.48865 23.8927H7.62823C6.13983 23.8927 5.58342 23.9544 4.84472 24.2012C-0.0487612 25.8363 -1.6151 31.9386 1.91469 35.6167C2.2836 36.0011 2.74558 36.423 2.94125 36.5541L3.29694 36.7923L2.98029 37.5284C1.79028 40.2947 2.40845 43.294 4.6112 45.4427L5.62529 46.4319L5.24807 47.4339C4.21602 50.1757 4.90737 53.0819 7.06128 55.0554L8.04241 55.9546L7.72828 56.6848C7.22413 57.857 7.03307 59.3015 7.22725 60.4737C7.43821 61.7468 8.10536 63.1758 8.88221 64.0184L9.48865 64.6765L9.49117 67.0352C9.49429 69.7737 9.70494 71.0008 10.3944 72.2943C11.324 74.0386 13.1831 75.438 15.1 75.8364C15.647 75.9501 21.1921 76 33.2916 76C48.2404 76 50.8164 75.9688 51.5466 75.7785C53.967 75.1482 55.8475 73.3899 56.5641 71.0875C56.7758 70.4074 56.8454 69.733 56.8454 68.3619V66.5399L58.9608 66.4615C60.6967 66.3974 61.2951 66.313 62.2959 65.991C65.024 65.1133 67.3394 62.8884 68.2659 60.2546L68.5498 59.4474L71.4192 59.3732C74.5624 59.2918 74.9306 59.1964 75.6092 58.2861C75.9187 57.871 75.9221 57.7724 75.9618 47.7087C76.0011 37.7464 75.9961 37.5391 75.7 36.9586C75.1661 35.9122 74.6683 35.769 71.5613 35.769H68.8963L68.8372 31.2783C68.7796 26.8828 68.7698 26.7622 68.3804 25.5884C67.6115 23.2707 65.9501 21.2948 63.8604 20.213C62.2035 19.3553 61.7803 19.2591 59.2206 19.1584L56.9196 19.068L56.8438 12.1649C56.7764 6.02545 56.7389 5.18862 56.5056 4.60015C55.8807 3.02505 54.5544 1.52804 53.1563 0.819475C51.4577 -0.0412591 52.239 -0.00934166 33.173 0.00431608C19.6784 0.014114 15.4733 0.0596893 14.8827 0.202947ZM19.1619 6.635C19.2125 8.81118 19.2162 8.83152 19.7579 9.9381C20.6644 11.7899 22.1348 13.0736 24.0156 13.6548C24.9051 13.9297 25.4281 13.9463 33.1514 13.9463C42.2016 13.9463 42.3741 13.9314 43.9082 13.0123C45.4597 12.0827 46.7968 10.2772 47.1868 8.58539C47.2695 8.22717 47.3387 7.1491 47.3408 6.18964L47.3443 4.44531L48.866 4.44857C50.6396 4.45243 51.3945 4.70985 51.9611 5.50423L52.3175 6.00407L52.3591 12.5731L52.4007 19.1422H46.0347H39.6687L39.1642 19.4792C38.3138 20.0473 38.1052 20.6345 38.2026 22.1855C38.429 25.7895 39.9672 29.037 42.6412 31.5556C44.9436 33.7244 47.7061 35.0087 50.8164 35.3562L52.3953 35.5327L52.3564 52.7717L52.3175 70.0108L51.9118 70.5427C51.0924 71.6171 52.234 71.5587 32.9328 71.513L15.6263 71.4722L15.065 71.044C14.217 70.3972 13.9494 69.6629 13.9455 67.973L13.9423 66.5523L15.073 66.3763C17.7942 65.9534 19.8981 64.1878 20.7745 61.592C21.2431 60.2044 21.1543 58.0371 20.578 56.7898C20.3553 56.3078 20.1907 55.9038 20.2124 55.8918C20.2339 55.8799 20.597 55.5878 21.019 55.2425C23.713 53.0394 24.2755 48.8395 22.2615 45.9644L21.6676 45.1167L22.1537 44.4799C24.2282 41.7621 23.8556 37.7451 21.3078 35.3617C19.7015 33.8592 18.3442 33.3938 15.568 33.3938H13.9423V20.0282C13.9423 5.55827 13.9139 6.09255 14.7288 5.20777C15.2825 4.60653 15.8346 4.45733 17.5286 4.4511L19.111 4.44531L19.1619 6.635ZM42.8661 6.20181C42.8198 7.84223 42.7901 7.99291 42.4166 8.48191C41.6133 9.53386 41.8908 9.50506 33.0361 9.45933C25.2464 9.41925 25.0899 9.41272 24.6789 9.10794C23.7542 8.42268 23.5918 7.97777 23.5918 6.13056V4.44531H33.2537H42.9155L42.8661 6.20181ZM61.6862 24.0701C62.1032 24.2902 62.7483 24.8083 63.1199 25.2214C64.3067 26.5416 64.316 26.5989 64.409 33.1234C64.4869 38.596 64.5049 38.8845 64.7924 39.2693C65.4299 40.1222 65.8553 40.2227 68.8306 40.2227H71.5423V47.5625V54.9022L68.5848 54.9481C65.6641 54.9932 65.6224 54.9984 65.2305 55.3649C64.7085 55.853 64.4165 56.4338 64.4165 56.9832C64.4165 57.8958 64.0772 58.9574 63.5212 59.7837C62.4312 61.4036 60.8213 62.0918 58.3039 62.014L56.9196 61.9711L56.8454 47.1934C56.7755 33.2716 56.7556 32.392 56.5033 32.0069C55.9599 31.1777 55.5607 31.0631 52.9406 30.9844C50.8121 30.9205 50.3937 30.8644 49.2962 30.4954C46.1876 29.4501 43.9664 27.1424 42.9725 23.9254L42.8679 23.5869L51.8979 23.6285L60.9279 23.6701L61.6862 24.0701ZM9.48865 30.8701V33.3938H7.99936C6.27611 33.3938 5.75504 33.2263 5.0772 32.4541C4.30865 31.5789 4.24986 30.3725 4.92726 29.38C5.49465 28.549 6.07555 28.3464 7.8904 28.3464H9.48865V30.8701ZM17.9996 38.3376C18.7055 38.8762 19.0056 39.4755 19.0124 40.3604C19.0207 41.4486 18.4156 42.3737 17.4584 42.7364C17.1984 42.835 15.4636 42.8948 12.8694 42.8948H8.69828L8.06854 42.5258C6.675 41.7091 6.41818 39.8727 7.53114 38.6829C8.29063 37.8708 8.44279 37.8493 13.1376 37.887L17.4547 37.9216L17.9996 38.3376ZM17.6057 47.6581C19.4202 48.5365 19.5259 50.8896 17.8035 52.0618C17.3329 52.3822 17.1845 52.3959 14.1779 52.3959C11.4117 52.3959 10.9819 52.3635 10.5254 52.1209C8.71313 51.1579 8.83976 48.4924 10.7388 47.6299C11.259 47.3937 11.7404 47.3545 14.1551 47.3517C16.7051 47.3487 17.0255 47.3772 17.6057 47.6581ZM15.5638 57.41C16.2521 57.9195 16.6144 58.6094 16.6144 59.4099C16.6144 60.9257 15.6259 61.9606 14.1777 61.9606C11.8596 61.9606 10.7507 59.3088 12.3851 57.6741C13.2132 56.8462 14.6419 56.7274 15.5638 57.41ZM27.3389 62.3415C25.8551 63.246 25.9237 65.3523 27.4633 66.1664C28.1107 66.5088 28.1217 66.5094 33.4123 66.467C38.4993 66.4264 38.7291 66.4124 39.1224 66.1186C40.5158 65.0778 40.5502 63.2881 39.1945 62.3823C38.6931 62.0473 38.6588 62.0453 33.2564 62.0459C28.0963 62.0464 27.7983 62.0614 27.3389 62.3415Z" fill="#8BD176"/>
</svg>
