<svg width="76" height="76" viewBox="0 0 76 76" fill="none" xmlns="http://www.w3.org/2000/svg">
<path fill-rule="evenodd" clip-rule="evenodd" d="M42.644 0.175128C41.1288 0.652544 40.0342 1.61599 39.3509 3.07364L38.9648 3.89746V12.5903V21.2832L39.4488 22.2667C40.0118 23.4115 40.8166 24.197 41.99 24.7477C42.8098 25.1324 42.887 25.1398 46.4782 25.1854L50.1321 25.2319L49.5861 27.4135L49.04 29.5953L42.7779 29.6341L36.5156 29.6729L36.5144 28.9657C36.511 27.1251 36.0543 19.0461 35.9195 18.4441C35.5632 16.8534 34.1305 14.9642 32.6821 14.1753C31.1922 13.3638 30.8159 13.3299 23.3047 13.3299C15.7935 13.3299 15.4172 13.3638 13.9273 14.1753C12.4788 14.9642 11.0461 16.8534 10.6899 18.4441C10.5551 19.0458 10.0984 27.1246 10.0949 28.964L10.0938 29.6696H5.93156C2.05304 29.6696 1.72945 29.69 1.18364 29.9686C0.806461 30.1611 0.49118 30.4766 0.298805 30.8541C0.00371093 31.433 0 31.6893 0 51.2083C0 70.7273 0.00371093 70.9836 0.298805 71.5625C0.634867 72.2216 1.49002 72.747 2.22656 72.747C2.96311 72.747 3.81826 72.2216 4.15432 71.5625C4.44748 70.9874 4.45312 70.7143 4.45312 57.0074V43.0385H6.96038H9.46779L9.70084 44.0711C10.0544 45.638 10.7252 46.8226 11.9566 48.0553C13.1324 49.2322 14.6812 50.0908 15.94 50.2634L16.6011 50.3542L16.6501 52.898C16.696 55.2732 16.7248 55.4964 17.0853 56.2656C17.772 57.7305 18.8931 58.7131 20.3784 59.1518L21.0039 59.3364L21.0443 62.0091L21.0847 64.6819L16.5175 65.987C14.0057 66.7047 11.796 67.3932 11.6072 67.5169C11.4186 67.6407 11.1344 67.9964 10.9758 68.3075C10.7218 68.8057 10.6875 69.1927 10.6875 71.5586C10.6875 74.6841 10.8299 75.1843 11.8711 75.7159C12.613 76.0947 13.2151 76.0947 13.957 75.7159C14.8875 75.2407 15.1406 74.5794 15.1406 72.6224V71.0006L17.9238 70.218C19.4547 69.7876 20.7906 69.4046 20.8926 69.3671C21.0343 69.3149 21.0781 69.7074 21.0781 71.0288C21.0781 73.1036 21.3162 73.7477 22.2618 74.2305C23.0037 74.6093 23.6057 74.6093 24.3476 74.2305C25.2924 73.7482 25.5312 73.1032 25.5312 71.0346C25.5312 69.4623 25.5541 69.3173 25.791 69.3877C25.9338 69.43 27.2699 69.8122 28.7598 70.2368L31.4688 71.0086V72.6264C31.4688 74.5791 31.7223 75.241 32.6524 75.7159C33.3943 76.0947 33.9963 76.0947 34.7382 75.7159C35.7795 75.1843 35.9219 74.6841 35.9219 71.5586C35.9219 68.4522 35.7745 67.9235 34.7696 67.4259C34.4644 67.2748 32.2596 66.5955 29.8698 65.9164L25.5247 64.6814L25.5651 62.009L25.6055 59.3364L26.231 59.1518C27.7163 58.7131 28.8374 57.7305 29.5241 56.2656C29.8846 55.4964 29.9134 55.2732 29.9593 52.898L30.0083 50.3542L30.6862 50.2612C31.9004 50.0947 33.5117 49.1936 34.6766 48.0295C35.8831 46.8239 36.557 45.6289 36.9085 44.0711L37.1416 43.0385H39.5006H41.8594V57.0074C41.8594 70.7143 41.865 70.9874 42.1582 71.5625C42.4942 72.2216 43.3494 72.747 44.0859 72.747C44.8225 72.747 45.6776 72.2216 46.0137 71.5625C46.2886 71.0231 46.3125 70.6912 46.3125 67.4054V63.8344H58.9297H71.5469V67.4054C71.5469 70.6912 71.5708 71.0231 71.8457 71.5625C72.1817 72.2216 73.0369 72.747 73.7734 72.747C74.51 72.747 75.3651 72.2216 75.7012 71.5625C75.9963 70.9836 76 70.7273 76 51.2083C76 31.7012 75.996 31.4325 75.7016 30.8551C75.1582 29.789 74.9911 29.7534 70.1459 29.6696L65.8503 29.5953L65.3045 27.4135L64.7585 25.2319L68.4163 25.1854L72.074 25.1391L73.0562 24.6548C74.1993 24.0912 74.9847 23.2854 75.5346 22.1118L75.9258 21.277V12.5841V3.89122L75.4419 2.90772C74.8789 1.7629 74.074 0.977407 72.9006 0.426759L72.0664 0.0353492L57.668 0.00668052C46.055 -0.0164921 43.1486 0.0161872 42.644 0.175128ZM71.3137 4.65072C71.5197 4.85704 71.5469 5.78247 71.5469 12.5872C71.5469 19.3919 71.5197 20.3174 71.3137 20.5237C71.105 20.7324 69.6429 20.7571 57.4453 20.7571C45.2478 20.7571 43.7857 20.7324 43.5769 20.5237C43.3709 20.3174 43.3438 19.3919 43.3438 12.5872C43.3438 5.78247 43.3709 4.85704 43.5769 4.65072C43.7857 4.44202 45.2478 4.41736 57.4453 4.41736C69.6429 4.41736 71.105 4.44202 71.3137 4.65072ZM30.6788 18.1732C31.6587 18.9044 31.5911 18.3262 32.1639 30.8646C32.4516 37.1627 32.6429 42.6102 32.5889 42.9701C32.4548 43.8651 31.6944 44.9419 30.8127 45.4851L30.0823 45.935L23.6514 45.9781C19.4253 46.0065 17.0187 45.9668 16.6321 45.8627C15.7225 45.6176 14.8299 44.8462 14.3348 43.8773L13.897 43.0205L14.3732 32.2231C14.9451 19.256 14.9346 19.4023 15.347 18.7843C16.0262 17.7664 15.9325 17.7776 23.4795 17.8213C30.1092 17.8596 30.2691 17.8675 30.6788 18.1732ZM60.7213 27.4786L61.2695 29.6696H57.4443H53.619L54.1271 27.6272C54.4066 26.5039 54.6648 25.4996 54.701 25.3956C54.7516 25.2499 55.3859 25.2159 57.47 25.2471L60.1731 25.2876L60.7213 27.4786ZM9.79688 34.9943C9.79688 35.472 9.75353 36.4746 9.70039 37.2224L9.60405 38.5822H7.02852H4.45312V36.354V34.1259H7.125H9.79688V34.9943ZM71.5469 36.354V38.5822H54.2762H37.0053L36.909 37.2224C36.8558 36.4746 36.8125 35.472 36.8125 34.9943V34.1259H54.1797H71.5469V36.354ZM71.5469 51.2083V59.3781H58.9297H46.3125V51.2083V43.0385H58.9297H71.5469V51.2083ZM53.402 47.801C52.7753 48.1321 52.25 49.0085 52.25 49.7229C52.25 50.4599 52.775 51.3157 53.4336 51.652C53.9858 51.9338 54.3014 51.951 58.9297 51.951C63.558 51.951 63.8735 51.9338 64.4257 51.652C65.0844 51.3157 65.6094 50.4599 65.6094 49.7229C65.6094 48.9858 65.0844 48.1301 64.4257 47.7938C63.8725 47.5114 63.5652 47.495 58.8985 47.5013C54.2722 47.5075 53.9216 47.5265 53.402 47.801ZM25.5312 52.4604C25.5312 54.0756 25.4869 54.4994 25.2981 54.6885C25.1122 54.8743 24.7068 54.9219 23.3047 54.9219C21.9025 54.9219 21.4972 54.8743 21.3113 54.6885C21.1225 54.4994 21.0781 54.0756 21.0781 52.4604V50.4656H23.3047H25.5312V52.4604Z" fill="#8BD176"/>
</svg>
