<svg width="49" height="15" viewBox="0 0 49 15" fill="none" xmlns="http://www.w3.org/2000/svg">
<path d="M44.8618 0.438477H41.8849C40.9849 0.438477 40.2926 0.7154 39.8772 1.6154L34.2003 14.5616H38.2156C38.2156 14.5616 38.9079 12.8308 39.0464 12.4154C39.4618 12.4154 43.4079 12.4154 43.9618 12.4154C44.1003 12.9 44.4464 14.4923 44.4464 14.4923H48.0464L44.8618 0.438477ZM40.1541 9.50771C40.5003 8.67694 41.6772 5.56155 41.6772 5.56155C41.6772 5.63078 42.0233 4.73078 42.1618 4.24617L42.4387 5.49232C42.4387 5.49232 43.2003 8.88463 43.3387 9.57694H40.1541V9.50771Z" fill="#3362AB"/>
<path d="M34.4773 9.92327C34.4773 12.831 31.8466 14.7694 27.7619 14.7694C26.0312 14.7694 24.3696 14.4233 23.4696 14.0079L24.0235 10.8233L24.5081 11.031C25.7543 11.5848 26.585 11.7925 28.1081 11.7925C29.2158 11.7925 30.3927 11.3771 30.3927 10.4079C30.3927 9.7848 29.9081 9.36942 28.385 8.67711C26.9312 7.9848 24.9927 6.87711 24.9927 4.86942C24.9927 2.10019 27.6927 0.230957 31.5004 0.230957C32.9542 0.230957 34.2004 0.50788 34.9619 0.854034L34.4081 3.90019L34.1312 3.62326C33.4389 3.34634 32.5389 3.06942 31.2235 3.06942C29.7696 3.13865 29.0773 3.76173 29.0773 4.31557C29.0773 4.93865 29.9081 5.42326 31.2235 6.04634C33.4389 7.0848 34.4773 8.26173 34.4773 9.92327Z" fill="#3362AB"/>
<path d="M0.692307 0.577704L0.761537 0.300781H6.71538C7.54615 0.300781 8.16923 0.577704 8.37692 1.4777L9.69231 7.70847C8.37692 4.3854 5.33077 1.6854 0.692307 0.577704Z" fill="#F9B50B"/>
<path d="M18.0692 0.438371L12.0462 14.4922H7.96155L4.50002 2.72299C6.99232 4.31529 9.06925 6.8076 9.83078 8.53837L10.2462 9.99222L13.9846 0.369141H18.0692V0.438371Z" fill="#3362AB"/>
<path d="M19.6619 0.369141H23.4696L21.0465 14.4922H17.2388L19.6619 0.369141Z" fill="#3362AB"/>
</svg>
