<svg width="61" height="60" viewBox="0 0 61 60" fill="none" xmlns="http://www.w3.org/2000/svg">
<path fill-rule="evenodd" clip-rule="evenodd" d="M23.7738 0.115679C17.7843 0.884237 12.168 3.65234 7.86093 7.95885C3.73301 12.0859 1.019 17.5242 0.181096 23.3472C-0.0597972 25.0214 -0.0605012 29.2142 0.179805 30.9372C0.570069 33.7357 1.41818 36.4933 2.69458 39.114C5.26403 44.3897 9.42222 48.6549 14.6102 51.3362C19.8169 54.0272 25.0558 54.9018 31.2876 54.1206L31.8899 54.045L31.9395 55.6732C31.9844 57.1498 32.0178 57.357 32.2987 57.9005C32.7544 58.7822 33.1105 59.1518 33.9355 59.5991L34.6748 60H45.9979H57.3209L58.0602 59.5991C58.8815 59.1538 59.2351 58.7884 59.7034 57.9005L60.0197 57.3012V54.4852C60.0197 51.6921 60.0172 51.6637 59.7122 51.0136C59.1101 49.7295 57.9374 48.9214 56.5289 48.8199C55.9023 48.7747 55.7365 48.7232 55.7353 48.5732C55.7345 48.4689 55.5013 47.6916 55.2173 46.8457C54.378 44.3469 53.4291 42.6564 52.0386 41.1824L51.2496 40.346L52.0386 39.5096C53.4291 38.0357 54.378 36.3452 55.2173 33.8464C55.5013 33.0005 55.7345 32.2231 55.7353 32.1188C55.7365 31.9689 55.9023 31.9173 56.5289 31.8722C57.9374 31.7707 59.1101 30.9626 59.7122 29.6784C60.0172 29.0284 60.0197 29 60.0197 26.2069V23.3908L59.7034 22.7916C59.2351 21.9037 58.8815 21.5383 58.0602 21.093L57.3209 20.692H45.9979H34.6748L33.9121 21.112C33.0179 21.6043 32.3862 22.3592 32.0957 23.2824C31.9332 23.7989 31.9071 24.3282 31.9384 26.4626C31.9749 28.941 31.9859 29.044 32.2835 29.6784C32.8838 30.9586 34.0589 31.7708 35.4566 31.8715C36.2326 31.9274 36.2389 31.9307 36.3107 32.3136C36.448 33.0452 37.1039 34.8927 37.6072 35.9651C38.2882 37.4163 39.0114 38.5071 39.9571 39.5096L40.7461 40.346L39.9571 41.1824C39.0114 42.1849 38.2882 43.2757 37.6072 44.7269C37.0997 45.8083 36.4478 47.6483 36.3079 48.3935C36.2365 48.7742 36.2081 48.7943 35.7391 48.7943C35.0155 48.7943 34.1361 49.091 33.439 49.5706C32.9697 49.8934 32.5738 50.0434 31.7554 50.2081C24.253 51.7189 16.4468 49.4108 10.9311 44.0506C8.82474 42.0038 7.34688 39.9655 6.10568 37.3955C2.97853 30.9204 2.97712 23.491 6.10181 17.0209C7.26674 14.6088 8.48282 12.8729 10.3825 10.9108C12.4158 8.81048 14.4623 7.32617 17.0327 6.08744C26.8834 1.33997 38.6542 4.00505 45.5168 12.5368C46.5739 13.8509 47.3195 15.0189 48.2859 16.8739C48.878 18.0103 49.0646 18.2683 49.4593 18.4956C50.6212 19.1645 52.0584 18.3939 52.1847 17.0339C52.229 16.5573 52.1639 16.309 51.7726 15.462C51.1724 14.1628 50.0425 12.2913 49.0402 10.9365C44.6262 4.9698 37.8351 1.02457 30.3951 0.104884C29.2219 -0.0401452 24.9335 -0.033105 23.7738 0.115679ZM26.4612 10.4668C26.0266 10.668 25.6369 11.082 25.4717 11.518C25.3883 11.738 25.3465 14.0975 25.3465 18.5828V25.3172L21.7174 25.3514C18.2636 25.3839 18.0728 25.3973 17.7645 25.6275C17.149 26.0874 16.9569 26.4623 16.9569 27.2043C16.9569 27.9463 17.1491 28.3213 17.7648 28.781C18.0799 29.0164 18.2227 29.023 22.9998 29.023C27.7768 29.023 27.9196 29.0164 28.2348 28.781C28.413 28.648 28.6676 28.3934 28.8007 28.2151C29.0397 27.895 29.0426 27.79 29.0426 19.6947C29.0426 11.5994 29.0397 11.4943 28.8007 11.1742C28.6676 10.996 28.4208 10.7471 28.2521 10.6212C27.8633 10.3309 26.9288 10.2503 26.4612 10.4668ZM56.3235 26.2656V28.143H45.9979H35.6722V26.2656V24.3882H45.9979H56.3235V26.2656ZM8.6201 25.492C7.43629 26.0075 7.15667 27.5813 8.08411 28.5088C8.84527 29.2699 9.93205 29.2699 10.6932 28.5088C12.1495 27.0524 10.5111 24.6682 8.6201 25.492ZM51.8021 32.2682C51.6645 32.8942 50.9443 34.5828 50.4654 35.4025C49.8035 36.5351 49.1166 37.2568 48.0378 37.9527C47.231 38.4731 47.0363 38.6635 46.7755 39.1867C46.5768 39.5854 46.4672 39.9975 46.4672 40.346C46.4672 40.6945 46.5768 41.1066 46.7755 41.5053C47.0363 42.0285 47.231 42.219 48.0378 42.7393C49.1166 43.4353 49.8035 44.1569 50.4654 45.2896C50.9443 46.1093 51.6645 47.7979 51.8021 48.4239L51.8834 48.7943H45.9979H40.1123L40.1937 48.4239C40.3312 47.7979 41.0514 46.1093 41.5304 45.2896C42.1923 44.1569 42.8792 43.4353 43.958 42.7393C44.7648 42.219 44.9594 42.0285 45.2203 41.5053C45.4189 41.1066 45.5285 40.6945 45.5285 40.346C45.5285 39.9975 45.4189 39.5854 45.2203 39.1867C44.9594 38.6635 44.7648 38.4731 43.958 37.9527C42.8792 37.2568 42.1923 36.5351 41.5304 35.4025C41.0514 34.5828 40.3312 32.8942 40.1937 32.2682L40.1123 31.8977H45.9979H51.8834L51.8021 32.2682ZM26.4554 43.3272C25.2715 43.8428 24.9919 45.4165 25.9194 46.3441C27.2376 47.6623 29.3979 46.4816 29.0511 44.6322C28.8435 43.5262 27.5229 42.8622 26.4554 43.3272ZM56.3235 54.4265V56.3039H45.9979H35.6722V54.4265V52.5491H45.9979H56.3235V54.4265Z" fill="#8BD176"/>
</svg>
