<svg width="60" height="60" viewBox="0 0 60 60" fill="none" xmlns="http://www.w3.org/2000/svg">
<path fill-rule="evenodd" clip-rule="evenodd" d="M12.6168 0.0200206C12.52 0.0398551 12.0447 0.120132 11.5606 0.198531C8.84042 0.638764 6.17602 2.03727 4.09751 4.11579C2.10795 6.10546 0.827393 8.45321 0.218977 11.2268C0.0108909 12.1757 0.000210798 13.0891 0.000210798 29.9463C0.000210798 49.174 -0.0306559 48.2109 0.654633 50.3271C1.33605 52.4313 2.47295 54.2697 4.09751 55.8942C5.72206 57.5188 7.56045 58.6557 9.66467 59.3371C11.6457 59.9786 11.8215 59.9915 18.611 59.9915H24.8984L25.3743 59.6766C26.1069 59.1919 26.4071 58.6181 26.4071 57.7029C26.4071 56.7878 26.107 56.2142 25.3746 55.7292L24.899 55.4143L18.6699 55.3491C12.0205 55.2795 12.1896 55.2939 10.4782 54.6536C8.39843 53.8755 6.11723 51.5939 5.33722 49.5117C4.65076 47.6793 4.69477 49.0167 4.69477 30.005C4.69477 10.9933 4.65076 12.3307 5.33722 10.4983C6.17638 8.25804 8.4584 6.07601 10.8451 5.23134C12.5403 4.63149 12.3015 4.63818 30.5149 4.67785C49.0664 4.7181 47.6542 4.66764 49.4952 5.35645C50.4203 5.70255 51.7771 6.61342 52.5852 7.43062C53.408 8.26297 54.2971 9.59235 54.6353 10.4965C55.284 12.2301 55.2627 11.9561 55.3317 19.5097L55.396 26.5604L55.7109 27.0359C56.1959 27.7684 56.7696 28.0685 57.6846 28.0685C58.5998 28.0685 59.1736 27.7683 59.6584 27.0357L59.9732 26.5599V19.4508C59.9732 13.8632 59.9384 12.1659 59.8105 11.5202C58.6971 5.89926 54.6412 1.68107 48.9997 0.276696C48.0082 0.0298792 47.8939 0.0282361 30.3975 0.00617161C20.715 -0.00591688 12.7137 0.000303412 12.6168 0.0200206ZM18.5088 9.58625C17.2241 9.92285 16.3145 10.4553 15.3122 11.4575C14.2956 12.4741 13.7746 13.3745 13.4355 14.7003C13.012 16.3562 13.2318 18.1566 14.0477 19.7138C14.5465 20.6659 15.9704 22.0897 16.9225 22.5885C18.4797 23.4045 20.2801 23.6243 21.936 23.2008C23.2618 22.8616 24.1622 22.3407 25.1788 21.3241C26.1954 20.3075 26.7164 19.407 27.0556 18.0813C27.479 16.4254 27.2592 14.6249 26.4433 13.0677C25.9445 12.1157 24.5206 10.6918 23.5686 10.193C22.0157 9.37945 20.1515 9.15587 18.5088 9.58625ZM32.9456 12.2965C32.39 12.4591 31.6689 13.2279 31.5066 13.8307C31.2256 14.8741 31.6431 15.9707 32.5315 16.5231L32.9795 16.8016H41.0275H49.0755L49.5513 16.4867C50.2839 16.0018 50.5841 15.4282 50.5841 14.513C50.5841 13.5978 50.2839 13.0241 49.5514 12.5392L49.0758 12.2244L41.2037 12.2039C36.4425 12.1916 33.179 12.2282 32.9456 12.2965ZM21.5348 14.4393C22.2345 14.9023 22.5341 15.4873 22.5341 16.3908C22.5341 17.306 22.2339 17.8797 21.5013 18.3645C20.8465 18.7978 19.7004 18.8147 19.0347 18.4009C18.1462 17.8486 17.7288 16.7519 18.0097 15.7085C18.1712 15.1087 18.8895 14.3403 19.4487 14.1692C20.0641 13.9808 21.0314 14.1061 21.5348 14.4393ZM32.9456 20.512C32.39 20.6746 31.6689 21.4434 31.5066 22.0462C31.2256 23.0896 31.6431 24.1862 32.5315 24.7385L32.9795 25.017H41.0275H49.0755L49.5513 24.7022C50.2839 24.2173 50.5841 23.6436 50.5841 22.7284C50.5841 21.8132 50.2839 21.2396 49.5514 20.7547L49.0758 20.4398L41.2037 20.4194C36.4425 20.4071 33.179 20.4437 32.9456 20.512ZM17.8583 26.1308C15.1107 26.6248 12.1642 28.4002 11.791 29.7865C11.427 31.1382 12.2158 32.4823 13.5372 32.7621C14.2743 32.9181 14.9184 32.7287 15.7079 32.1236C17.1547 31.0147 18.1259 30.7127 20.2455 30.7127C22.3651 30.7127 23.3363 31.0147 24.7832 32.1236C25.8527 32.9433 26.8025 33.0338 27.7717 32.4082C28.4521 31.969 28.7544 31.3741 28.7544 30.4745C28.7544 29.4847 28.4724 29.0217 27.3607 28.1868C26.2866 27.3799 25.1506 26.8109 23.8251 26.4159C22.8751 26.1326 22.5507 26.0974 20.5976 26.0649C19.4034 26.0449 18.1707 26.0746 17.8583 26.1308ZM49.7467 31.3458C48.8362 31.5541 47.7749 31.9814 46.9131 32.4867C46.181 32.916 37.7877 41.1398 36.3297 42.8564C34.7911 44.6678 33.7473 46.532 33.0431 48.7253C32.4989 50.4203 31.1304 57.3853 31.2128 58.0409C31.3409 59.0601 32.1459 59.8688 33.1594 59.9963C33.8204 60.0796 40.7541 58.7219 42.486 58.1702C44.6135 57.4925 46.5403 56.4106 48.3542 54.8756C49.6542 53.7755 58.0384 45.3237 58.4727 44.6755C59.0065 43.879 59.3924 43.0638 59.6961 42.0906C60.0887 40.8328 60.089 38.6627 59.6967 37.3989C58.7917 34.483 56.7593 32.438 53.8703 31.5359C52.8086 31.2045 50.7745 31.1106 49.7467 31.3458ZM53.0107 36.1958C53.7789 36.5364 54.5707 37.3069 54.9536 38.0865C55.2314 38.6523 55.2787 38.8937 55.2787 39.7462C55.2787 41.4223 55.349 41.331 49.7967 46.8639C44.7173 51.9254 44.2431 52.3295 42.3621 53.1986C41.8858 53.4187 41.0059 53.7269 40.4067 53.8834C38.903 54.2766 36.6866 54.7008 36.5982 54.6124C36.5098 54.524 36.934 52.3076 37.3271 50.8039C37.4837 50.2047 37.7919 49.3248 38.012 48.8485C38.8771 46.9761 39.2946 46.4841 44.2293 41.5246C46.8208 38.9202 49.1523 36.6531 49.4105 36.4867C49.6687 36.3203 50.0912 36.1145 50.3494 36.0295C51.0066 35.813 52.3345 35.896 53.0107 36.1958ZM12.9937 36.9432C12.4383 37.1054 11.717 37.8743 11.5547 38.4772C11.2737 39.5205 11.6912 40.6172 12.5796 41.1695L13.0276 41.448H22.3666H31.7056L32.1814 41.1331C32.914 40.6483 33.2142 40.0746 33.2142 39.1594C33.2142 38.2442 32.914 37.6705 32.1814 37.1857L31.7058 36.8708L22.5428 36.8506C16.9677 36.8384 13.2285 36.8746 12.9937 36.9432ZM12.9937 45.1574C12.4374 45.3217 11.7168 46.0905 11.5547 46.6927C11.2737 47.736 11.6912 48.8327 12.5796 49.385L13.0276 49.6635H17.6721H22.3165L22.7923 49.3486C23.5249 48.8638 23.8251 48.2901 23.8251 47.3749C23.8251 46.4598 23.525 45.8861 22.7925 45.4012L22.317 45.0863L17.8484 45.0649C15.2329 45.0524 13.2196 45.0908 12.9937 45.1574Z" fill="#8BD176"/>
</svg>
