<svg width="60" height="60" viewBox="0 0 60 60" fill="none" xmlns="http://www.w3.org/2000/svg">
<path fill-rule="evenodd" clip-rule="evenodd" d="M4.52258 7.18666C2.37424 7.77718 0.714619 9.50814 0.198774 11.6961C-0.0662581 12.8201 -0.0662581 46.6013 0.198774 47.7252C0.719638 49.9349 2.39097 51.6591 4.57515 52.2405C5.53802 52.4968 54.4844 52.4968 55.4473 52.2405C57.6378 51.6575 59.3012 49.9413 59.8236 47.7252C59.9749 47.0838 60 44.5164 60 29.7107C60 14.905 59.9749 12.3376 59.8236 11.6961C59.3012 9.48006 57.6378 7.76392 55.4473 7.18092C54.5272 6.93596 5.41422 6.94158 4.52258 7.18666ZM54.7739 12.1356L55.1642 12.4843V29.7107V46.9371L54.7739 47.2857L54.3837 47.6344H30.0112H5.63875L5.24849 47.2857L4.85823 46.9371L4.82716 29.7695L4.79609 12.6019L5.20356 12.1944L5.61102 11.787H29.9973H54.3837L54.7739 12.1356ZM19.4959 15.4444C18.5619 15.6952 17.6704 16.1256 16.8028 16.7447C13.1476 19.3529 12.7363 24.3657 15.8113 28.8287C17.6301 31.4685 20.07 32.6827 22.5445 32.1794C24.4609 31.7896 25.9822 30.6476 27.3209 28.594C28.5792 26.6634 29.1725 24.7815 29.1739 22.7157C29.1755 20.5095 28.6044 19.1046 27.0835 17.5723C26.3263 16.8094 25.9116 16.502 25.1106 16.1097C24.5527 15.8365 23.7759 15.5318 23.3842 15.4326C22.4751 15.2024 20.3738 15.2087 19.4959 15.4444ZM22.5063 20.1724C23.0442 20.3336 23.9621 21.0944 24.2199 21.593C24.4694 22.0755 24.4397 23.3295 24.1573 24.2314C23.7098 25.6609 22.6018 27.1843 21.8224 27.4415C21.4732 27.5569 21.3346 27.5437 20.959 27.3603C20.3856 27.0801 19.3638 25.7282 18.9438 24.694C18.5732 23.7815 18.4384 22.4343 18.6528 21.7847C18.8219 21.2724 19.7852 20.3651 20.3531 20.1835C20.8995 20.0087 21.9418 20.0033 22.5063 20.1724ZM37.1209 23.1262C36.1837 23.5602 35.7454 24.2631 35.7487 25.3271C35.7512 26.1144 36.1084 26.7674 36.8035 27.2561L37.3205 27.6196L43.3148 27.654C48.6366 27.6846 49.3668 27.6664 49.823 27.4925C51.7504 26.7575 51.9166 24.1384 50.0969 23.1777L49.5702 22.8997L43.5846 22.9023C38.0134 22.9047 37.5658 22.9202 37.1209 23.1262ZM37.259 31.9164C36.3451 32.2422 35.7468 33.1138 35.7468 34.1193C35.7468 35.1594 36.1926 35.8653 37.1209 36.2952C37.5658 36.5012 38.0134 36.5167 43.5846 36.5191L49.5702 36.5217L50.0969 36.2437C51.1133 35.707 51.6213 34.5073 51.2758 33.459C51.0476 32.7662 50.7028 32.3707 50.0393 32.0399L49.4414 31.7421L43.5799 31.7473C38.9286 31.7515 37.6235 31.7864 37.259 31.9164ZM16.5875 34.9698C12.2244 35.7341 9.14714 39.007 8.67873 43.3814L8.59437 44.1692H10.9742H13.3541L13.4988 43.4688C13.6985 42.5019 14.2725 41.4063 14.8553 40.8798C15.1241 40.6369 15.7002 40.2694 16.1355 40.0632L16.9269 39.6882H21.4676C25.9404 39.6882 26.0185 39.6924 26.695 39.9656C28.0832 40.5261 29.1505 41.8843 29.4442 43.4639L29.5754 44.1692H31.9614H34.3474L34.2756 43.3999C34.1669 42.2359 33.8757 41.2357 33.2993 40.0467C32.3545 38.0983 30.9638 36.7263 28.9842 35.7901C27.221 34.9563 27.0348 34.9331 21.826 34.8989C19.2629 34.8822 16.9056 34.9141 16.5875 34.9698Z" fill="#8BD176"/>
</svg>
