<svg width="52" height="60" viewBox="0 0 52 60" fill="none" xmlns="http://www.w3.org/2000/svg">
<path fill-rule="evenodd" clip-rule="evenodd" d="M0 36.0465C0 38.4391 1.02321 40.7174 2.81152 42.3069L12.4715 50.8925C15.0789 53.21 17.6905 55.5611 20.3077 57.8993C23.4654 60.7204 28.2313 60.6915 31.3837 57.8645L38.7135 51.2911L48.791 42.3327C50.579 40.7433 51.6019 38.4651 51.6019 36.0729V8.37561C51.6019 3.74989 47.8521 0 43.2263 0H8.37561C3.74988 0 0 3.74989 0 8.37561V36.0465ZM23.2883 15.4438C23.2883 16.8654 24.4407 18.0178 25.8623 18.0178C27.2838 18.0178 28.4362 16.8654 28.4362 15.4438V5.14794H42.2662C44.5791 5.14794 46.454 7.02288 46.454 9.33574V35.6238C46.454 36.8198 45.9426 37.9587 45.0488 38.7534L28.4975 53.4689L28.4474 43.8788C28.4399 42.4557 27.2842 41.3061 25.8612 41.3061C24.4402 41.3061 23.2883 42.458 23.2883 43.8789V47.3733C23.2883 50.7102 23.2435 53.4405 23.1889 53.4405C23.1341 53.4405 19.0525 49.8521 14.1187 45.4665L6.55349 38.7417C5.65946 37.947 5.14794 36.8079 5.14794 35.6117V9.33574C5.14794 7.02288 7.02288 5.14794 9.33574 5.14794H23.2883V15.4438ZM28.9883 22.7975L23.2288 28.5579L21.1431 26.4753C20.1613 25.4949 18.571 25.4948 17.5889 26.475C16.6113 27.4508 15.8115 28.3047 15.8115 28.3726C15.8115 28.5342 23.0652 35.7904 23.2266 35.7904C23.2947 35.7904 26.7563 32.3841 30.9192 28.2207L36.6798 22.4596C37.6783 21.461 37.6776 19.8419 36.6782 18.8441C35.6827 17.8503 34.841 17.0372 34.8079 17.0372C34.7747 17.0372 32.1559 19.6293 28.9883 22.7975Z" fill="#8BD176"/>
</svg>
