<svg width="55" height="62" viewBox="0 0 55 62" fill="none" xmlns="http://www.w3.org/2000/svg">
<path fill-rule="evenodd" clip-rule="evenodd" d="M25.1839 1.07417C16.6626 2.11809 10.2445 7.98669 8.59216 16.2455C8.14216 18.4948 8.06088 19.6778 8.06088 23.978C8.06088 27.0387 8.10334 28.2571 8.2368 29.0224C9.17247 34.388 13.6237 38.013 19.2765 38.013H20.4926V39.7574V41.5019L17.7659 41.565C14.698 41.6359 13.5563 41.8171 11.5832 42.5462C7.04617 44.2228 3.41317 47.9437 1.86741 52.4972C1.21228 54.4269 1.11845 55.0821 1.05688 58.1559L1 61H27.5295H54.0589L54.002 58.1559C53.9405 55.0821 53.8466 54.4269 53.1915 52.4972C51.839 48.513 48.813 45.0668 45.0629 43.2397C42.4491 41.9662 40.982 41.65 37.2931 41.5648L34.5663 41.5019V39.7574V38.013H35.7824C39.8643 38.013 43.1219 36.3015 45.252 33.038C46.0447 31.8234 46.5744 30.4543 46.8343 28.9479C46.987 28.0631 47.01 27.0907 46.9691 23.2422C46.9148 18.1396 46.8021 17.0744 46.0478 14.5355C43.9608 7.51042 38.3437 2.53537 31.0479 1.25021C29.7355 1.01905 26.4412 0.920185 25.1839 1.07417ZM30.6745 4.76054C32.7553 5.16856 34.8674 6.03081 36.6187 7.18707C37.8229 7.98212 39.851 10.0101 40.646 11.2144C42.1648 13.5147 43.0439 16.0791 43.3601 19.1308C43.5492 20.9556 43.5116 27.5024 43.3058 28.5909C42.8936 30.7714 41.4198 32.7163 39.4666 33.6573C38.9323 33.9147 38.3597 34.1542 38.194 34.1895C37.8999 34.2523 37.9087 34.2219 38.5724 32.8788C39.8323 30.3291 39.959 29.3498 39.9603 22.1508L39.9612 16.7852L37.8795 16.7832C35.3934 16.7807 34.5495 16.6317 33.169 15.9511C31.3576 15.0582 30.0526 13.4015 29.5199 11.3189C29.3927 10.8215 29.2887 10.2646 29.2887 10.0814V9.74837H27.5295C25.7839 9.74837 25.7703 9.75036 25.7683 10.0122C25.7631 10.6732 25.3804 12.0037 24.9362 12.9049C24.2713 14.2536 23.2386 15.2862 21.8899 15.9511C20.5094 16.6317 19.6656 16.7807 17.1794 16.7832L15.0977 16.7852L15.0997 22.1508C15.1009 25.1019 15.1523 27.9914 15.2141 28.5719C15.3834 30.1643 15.7365 31.359 16.487 32.8788C17.2632 34.4505 17.2705 34.4406 15.8284 33.784C13.7201 32.824 12.1922 30.8752 11.7545 28.5876C11.5473 27.5043 11.5087 20.9652 11.6988 19.1308C12.2804 13.518 14.9163 9.22013 19.3785 6.60923C20.9935 5.66419 23.3749 4.86222 25.3598 4.59506C26.5142 4.43966 29.5142 4.53301 30.6745 4.76054ZM27.8615 16.0156C28.3123 16.6775 29.6471 17.9421 30.4829 18.4989C31.9898 19.5028 33.6607 20.0945 35.4453 20.2562L36.3255 20.336V24.4308C36.3255 29.123 36.27 29.5546 35.4465 31.2717C34.1612 33.9516 31.6213 35.7157 28.438 36.1393C27.2044 36.3035 25.8764 36.161 24.6031 35.7279C23.1854 35.2458 22.0901 34.5109 20.9734 33.2924L20.4627 32.7354H23.9962H27.5295V30.9175V29.0997H23.2038H18.878L18.8073 28.8358C18.7685 28.6906 18.7359 26.7189 18.7351 24.4539L18.7334 20.336L19.6136 20.2562C21.4457 20.0902 23.3289 19.4036 24.7673 18.3772C25.5817 17.796 26.7736 16.6379 27.1966 16.0167C27.3474 15.7952 27.4972 15.614 27.5295 15.614C27.5617 15.614 27.7111 15.7947 27.8615 16.0156ZM25.653 39.6075C26.2013 39.6976 27.0193 39.7711 27.4708 39.771C28.234 39.7708 30.1636 39.5247 30.7956 39.3471L31.0711 39.2697L31.0269 40.8989C30.9865 42.3857 30.9557 42.5797 30.6739 43.1147C29.3219 45.6824 25.7273 45.6908 24.39 43.1291C24.1026 42.579 24.0725 42.391 24.032 40.9001L23.9878 39.2719L24.322 39.3577C24.5057 39.405 25.1047 39.5174 25.653 39.6075ZM21.8368 45.6958C22.574 46.7661 23.9571 47.805 25.1426 48.1786L25.7703 48.3765V52.9291V57.4816H15.1564H4.54246V57.1382C4.54246 55.7306 5.25705 53.138 6.03181 51.7348C8.01115 48.1498 11.5883 45.6953 15.5912 45.1754C15.9971 45.1227 17.4683 45.0729 18.8605 45.0647L21.3919 45.0498L21.8368 45.6958ZM39.3399 45.1697C43.3299 45.67 46.7147 47.8768 48.7885 51.3297C49.6598 52.7806 50.3136 54.8082 50.4632 56.524L50.5467 57.4816H39.9177H29.2887V52.9291V48.3765L29.9164 48.1786C31.1018 47.805 32.4849 46.7661 33.2221 45.6958L33.667 45.0498H36.0255C37.3227 45.0498 38.8142 45.1038 39.3399 45.1697Z" fill="#8BD176" stroke="#8BD176"/>
</svg>
