<svg width="62" height="62" viewBox="0 0 62 62" fill="none" xmlns="http://www.w3.org/2000/svg">
<path fill-rule="evenodd" clip-rule="evenodd" d="M26.7839 1.19511C26.0311 1.5096 25.8649 1.92294 25.3949 4.65097L24.9686 7.12506L23.334 7.66022C22.4143 7.96135 20.9674 8.56198 20.0254 9.03366L18.3514 9.87206L16.5655 8.59009C14.4286 7.05619 13.9599 6.81935 13.2786 6.92969C12.83 7.00219 12.5448 7.25273 9.9018 9.89607C7.25875 12.5394 7.00824 12.8246 6.93575 13.2732C6.82543 13.9547 7.06223 14.4234 8.59597 16.5605L9.87779 18.3466L9.03948 20.0208C8.56786 20.9629 7.9673 22.41 7.66619 23.3298L7.1311 24.9646L4.65729 25.3909C1.90474 25.8652 1.51112 26.0268 1.19596 26.8117C0.934679 27.4625 0.934679 34.5307 1.19596 35.1816C1.51112 35.9665 1.90474 36.1281 4.65729 36.6024L7.1311 37.0287L7.66619 38.6635C7.9673 39.5833 8.56786 41.0304 9.03948 41.9724L9.87779 43.6467L8.59597 45.4328C7.06223 47.5699 6.82543 48.0386 6.93575 48.7201C7.00824 49.1687 7.25875 49.4539 9.9018 52.0972C12.5448 54.7405 12.83 54.9911 13.2786 55.0636C13.9599 55.1739 14.4286 54.9371 16.5655 53.4032L18.3514 52.1212L20.0254 52.9596C20.9674 53.4313 22.4143 54.0319 23.334 54.3331L24.9686 54.8682L25.3949 57.3423C25.8691 60.0952 26.0307 60.4888 26.8155 60.804C27.4663 61.0653 34.5337 61.0653 35.1845 60.804C35.9693 60.4888 36.1309 60.0952 36.6051 57.3423L37.0314 54.8682L38.666 54.3331C39.5857 54.0319 41.0326 53.4313 41.9746 52.9596L43.6486 52.1212L45.4345 53.4032C47.5714 54.9371 48.0401 55.1739 48.7214 55.0636C49.17 54.9911 49.4552 54.7405 52.0982 52.0972C54.7412 49.4539 54.9918 49.1687 55.0643 48.7201C55.1746 48.0386 54.9378 47.5699 53.404 45.4328L52.1222 43.6467L52.9605 41.9724C53.4321 41.0304 54.0327 39.5833 54.3338 38.6635L54.8689 37.0287L57.3427 36.6024C60.0953 36.1281 60.4889 35.9665 60.804 35.1816C61.0653 34.5307 61.0653 27.4625 60.804 26.8117C60.4889 26.0268 60.0953 25.8652 57.3427 25.3909L54.8689 24.9646L54.3338 23.3298C54.0327 22.41 53.4321 20.9629 52.9605 20.0208L52.1222 18.3466L53.404 16.5605C54.9378 14.4234 55.1746 13.9547 55.0643 13.2732C54.9918 12.8246 54.7412 12.5394 52.0982 9.89607C49.4552 7.25273 49.17 7.00219 48.7214 6.92969C48.0398 6.81935 47.5715 7.05607 45.4298 8.59349L43.6392 9.87873L41.9749 9.03834C41.0097 8.55085 39.622 7.97259 38.671 7.6615L37.0314 7.12506L36.6051 4.65097C36.1309 1.89811 35.9693 1.50445 35.1845 1.18926C34.5474 0.933449 27.3986 0.938486 26.7839 1.19511ZM33.0462 4.7893C33.0791 4.93418 33.2377 5.8698 33.3987 6.86831C33.5598 7.86683 33.7454 8.87659 33.8112 9.11213C34.0125 9.83352 34.5458 10.1855 35.9826 10.5457C38.2014 11.1017 39.8623 11.7915 41.9502 13.0244C43.1789 13.7499 43.6636 13.8735 44.2767 13.6173C44.5143 13.518 45.4319 12.9183 46.3159 12.2845C47.1999 11.6509 47.9946 11.0887 48.0822 11.0353C48.1951 10.9664 48.6457 11.3417 49.6354 12.3289C50.4021 13.0938 51.0067 13.7789 50.9789 13.8515C50.9511 13.924 50.3949 14.7265 49.743 15.6349C49.0912 16.5432 48.4767 17.4808 48.3774 17.7184C48.1212 18.3316 48.2448 18.8164 48.9702 20.0452C50.2029 22.1333 50.8927 23.7945 51.4487 26.0134C51.8088 27.4505 52.1607 27.9838 52.882 28.1851C53.1176 28.2509 54.1272 28.4366 55.1256 28.5976C56.124 28.7587 57.0594 28.9173 57.2044 28.9502C57.465 29.0092 57.4679 29.0322 57.4679 30.9966C57.4679 32.9611 57.465 32.9841 57.2044 33.0431C57.0594 33.076 56.124 33.2346 55.1256 33.3956C54.1272 33.5567 53.1176 33.7423 52.882 33.8082C52.1607 34.0095 51.8088 34.5428 51.4487 35.9798C50.8927 38.1988 50.2029 39.8599 48.9702 41.9481C48.2448 43.1769 48.1212 43.6617 48.3774 44.2748C48.4767 44.5125 49.0912 45.4501 49.743 46.3584C50.3949 47.2667 50.9511 48.0693 50.9789 48.1418C51.0067 48.2144 50.4021 48.8995 49.6354 49.6643C48.6457 50.6516 48.1951 51.0269 48.0822 50.958C47.9946 50.9046 47.1999 50.3424 46.3159 49.7087C45.4319 49.075 44.5143 48.4753 44.2767 48.3759C43.6636 48.1198 43.1789 48.2434 41.9502 48.9688C39.8623 50.2017 38.2014 50.8916 35.9826 51.4476C34.5458 51.8078 34.0125 52.1598 33.8112 52.8811C33.7454 53.1167 33.5598 54.1264 33.3987 55.125C33.2377 56.1235 33.0791 57.059 33.0462 57.204C32.9872 57.4646 32.9642 57.4675 31 57.4675C29.0358 57.4675 29.0128 57.4646 28.9538 57.204C28.9209 57.059 28.7623 56.1235 28.6013 55.125C28.4402 54.1264 28.2546 53.1167 28.1888 52.8811C27.9875 52.1598 27.4542 51.8078 26.0174 51.4476C23.7986 50.8916 22.1377 50.2017 20.0498 48.9688C18.8211 48.2434 18.3364 48.1198 17.7233 48.3759C17.4857 48.4753 16.5681 49.075 15.6841 49.7087C14.8001 50.3424 14.0054 50.9046 13.9178 50.958C13.8049 51.0269 13.3543 50.6516 12.3646 49.6643C11.5979 48.8995 10.9933 48.2144 11.0211 48.1418C11.0489 48.0693 11.6051 47.2667 12.257 46.3584C12.9088 45.4501 13.5233 44.5125 13.6226 44.2748C13.8788 43.6617 13.7552 43.1769 13.0298 41.9481C11.7971 39.8599 11.1073 38.1988 10.5513 35.9798C10.1912 34.5428 9.83926 34.0095 9.11795 33.8082C8.88243 33.7423 7.87279 33.5567 6.87438 33.3956C5.87598 33.2346 4.94047 33.076 4.7956 33.0431C4.53502 32.9841 4.53209 32.9611 4.53209 30.9966C4.53209 29.0322 4.53502 29.0092 4.7956 28.9502C4.94047 28.9173 5.87598 28.7587 6.87438 28.5976C7.87279 28.4366 8.88243 28.2509 9.11795 28.1851C9.83926 27.9838 10.1912 27.4505 10.5513 26.0134C11.1073 23.7945 11.7971 22.1333 13.0298 20.0452C13.7552 18.8164 13.8788 18.3316 13.6226 17.7184C13.5233 17.4808 12.9088 16.5432 12.257 15.6349C11.6051 14.7265 11.0489 13.924 11.0211 13.8515C10.9933 13.7789 11.5979 13.0938 12.3646 12.3289C13.3543 11.3417 13.8049 10.9664 13.9178 11.0353C14.0054 11.0887 14.8001 11.6509 15.6841 12.2845C16.5681 12.9183 17.4857 13.518 17.7233 13.6173C18.3364 13.8735 18.8211 13.7499 20.0498 13.0244C22.1377 11.7915 23.7986 11.1017 26.0174 10.5457C27.4542 10.1855 27.9875 9.83352 28.1888 9.11213C28.2546 8.87659 28.4402 7.86683 28.6013 6.86831C28.7623 5.8698 28.9209 4.93418 28.9538 4.7893C29.0128 4.52869 29.0358 4.52576 31 4.52576C32.9642 4.52576 32.9872 4.52869 33.0462 4.7893ZM28.7748 15.3638C25.4147 15.833 22.3391 17.3849 19.8645 19.8599C14.5221 25.2028 13.6883 33.4183 17.849 39.7186C18.8837 41.2855 20.7249 43.1248 22.275 44.1399C28.6524 48.3168 36.7733 47.4963 42.1355 42.1334C47.4779 36.7905 48.3117 28.575 44.151 22.2747C43.1217 20.716 41.2774 18.8716 39.725 17.8486C36.4635 15.699 32.6199 14.8269 28.7748 15.3638ZM32.6757 18.8241C39.5201 19.8476 44.2208 26.1932 43.1245 32.9292C42.8593 34.5594 42.0103 36.7642 41.2981 37.6729L41.0686 37.9657L40.691 37.4972C39.5824 36.1213 38.4097 35.1266 36.8792 34.2634L36.2586 33.9135L36.6749 33.3462C37.8369 31.763 38.2636 29.7421 37.8507 27.7756C37.1872 24.6149 34.2313 22.2162 31 22.2162C27.7687 22.2162 24.8128 24.6149 24.1493 27.7756C23.7364 29.7421 24.1631 31.763 25.3251 33.3462L25.7414 33.9135L25.1208 34.2634C23.5903 35.1266 22.4176 36.1213 21.309 37.4972L20.9314 37.9657L20.7019 37.6729C20.351 37.2251 19.6696 35.8099 19.3415 34.8471C17.1442 28.4006 20.88 21.2364 27.4866 19.2272C29.0921 18.7389 31.0754 18.5848 32.6757 18.8241ZM32.43 26.0502C33.1142 26.3529 33.8807 27.1176 34.2007 27.8167C34.5471 28.5731 34.5471 29.9063 34.2007 30.6627C33.8821 31.3588 33.1188 32.1221 32.4228 32.4408C31.6665 32.7872 30.3335 32.7872 29.5772 32.4408C28.0727 31.752 27.2191 30.0234 27.5997 28.4366C28.1064 26.3238 30.4411 25.1703 32.43 26.0502ZM33.1666 36.5531C34.173 36.817 35.8743 37.6858 36.5967 38.3047C37.2756 38.8865 38.0901 39.8032 38.4023 40.3368L38.602 40.6782L37.6412 41.3122C36.5656 42.0219 35.2612 42.5833 33.7972 42.9669C32.9895 43.1784 32.4931 43.2241 31 43.2241C29.5069 43.2241 29.0105 43.1784 28.2028 42.9669C26.7388 42.5833 25.4344 42.0219 24.3588 41.3122L23.398 40.6782L23.5977 40.3368C24.4353 38.9053 26.3034 37.4287 28.0945 36.7826C29.5632 36.2527 31.6595 36.1579 33.1666 36.5531Z" fill="#8BD176" stroke="#8BD176"/>
</svg>
