<svg width="60" height="60" viewBox="0 0 60 60" fill="none" xmlns="http://www.w3.org/2000/svg">
<path fill-rule="evenodd" clip-rule="evenodd" d="M1.52885 0.0948586C0.994 0.249677 0.252387 1.02447 0.100896 1.58663C0.014414 1.90776 -0.01457 8.53587 0.00666926 23.2029L0.037296 44.356L0.315753 44.8036C0.468887 45.0499 0.808362 45.393 1.06992 45.566L1.54563 45.8807H4.67238H7.79912L8.27483 45.566C9.00729 45.0815 9.30746 44.5082 9.30746 43.5936C9.30746 42.6791 9.00741 42.1058 8.27507 41.6212C7.82951 41.3263 7.70126 41.3039 6.23598 41.2657L4.67238 41.2249V22.9396V4.65438H12.6487H20.6249L20.6574 12.7765L20.6898 20.8986L20.9683 21.3463C21.5217 22.2359 22.68 22.6757 23.6381 22.36C23.8881 22.2775 25.4262 21.3207 27.0557 20.2338L30.0186 18.2574L33.0093 20.2524C36.2877 22.4395 36.6943 22.6282 37.6043 22.385C38.296 22.2 38.7307 21.8901 39.0751 21.3363L39.3475 20.8986L39.3799 12.7765L39.4124 4.65438H47.3886H55.3649V22.9406V41.2269L53.5754 41.2666C51.9341 41.3032 51.7489 41.3295 51.338 41.5848C51.0916 41.7379 50.7484 42.0772 50.5753 42.3386C50.313 42.7347 50.2605 42.9443 50.2605 43.5936C50.2605 44.2429 50.313 44.4525 50.5753 44.8486C50.7484 45.11 51.0916 45.4493 51.338 45.6024C51.7822 45.8783 51.8142 45.8807 55.1388 45.8807H58.4917L58.9674 45.566C59.2289 45.393 59.5684 45.0499 59.7215 44.8036L60 44.356V22.9426V1.52916L59.6852 1.05368C59.5121 0.792246 59.1689 0.452935 58.9224 0.299876L58.4745 0.0215544L30.1947 0.00231932C12.5681 -0.00964393 1.76941 0.0251902 1.52885 0.0948586ZM34.7124 10.1669C34.7124 13.1987 34.6847 15.6793 34.6509 15.6793C34.6171 15.6793 33.8003 15.1518 32.8356 14.5069C31.8174 13.8263 30.8588 13.275 30.5502 13.1925C29.7227 12.9713 29.1807 13.1841 27.2017 14.5069C26.237 15.1518 25.4202 15.6793 25.3864 15.6793C25.3526 15.6793 25.3249 13.1987 25.3249 10.1669V4.65438H30.0186H34.7124V10.1669ZM27.9304 27.3027C25.8775 27.5802 23.7097 28.307 21.9804 29.2976C20.4664 30.1651 19.4105 30.9955 18.1534 32.3077C15.9569 34.6008 14.6054 37.1678 13.9217 40.3462C13.5535 42.0568 13.5535 45.1304 13.9217 46.841C14.5997 49.9926 15.9523 52.5754 18.1082 54.8351C20.3413 57.1756 22.9538 58.7241 25.9528 59.4844C30.5561 60.6516 35.221 59.8262 39.321 57.1192C40.4232 56.3916 42.83 53.9811 43.5747 52.8593C45.5225 49.9249 46.379 47.095 46.379 43.5936C46.379 40.767 45.8987 38.6623 44.7198 36.3218C43.8311 34.5575 43.0936 33.5512 41.5798 32.0371C39.1326 29.5896 36.6196 28.215 33.3276 27.5231C31.9897 27.2419 29.2177 27.1288 27.9304 27.3027ZM32.7762 32.2019C38.2346 33.5585 42.0025 38.584 41.7129 44.1214C41.4871 48.4373 39.0628 52.1544 35.2174 54.0802C32.0576 55.6629 28.299 55.7144 25.1396 54.2186C23.7193 53.5461 22.7472 52.8737 21.7406 51.8676C17.8051 47.9342 17.1748 41.8563 20.2181 37.1896C21.9673 34.5074 24.7677 32.6536 27.9933 32.0426C29.212 31.8118 31.515 31.8885 32.7762 32.2019ZM29.222 36.682C28.6713 36.8504 27.9446 37.6212 27.7878 38.2031C27.7031 38.5178 27.6698 39.6922 27.6936 41.5316L27.7304 44.3738L28.0453 44.8489C28.2184 45.1102 28.5616 45.4493 28.808 45.6024C29.25 45.8771 29.297 45.8807 32.3655 45.8807C35.4341 45.8807 35.481 45.8771 35.923 45.6024C36.1695 45.4493 36.5127 45.11 36.6858 44.8486C36.9471 44.4539 37.0006 44.2422 37.0006 43.6022C37.0006 42.6784 36.703 42.1075 35.9682 41.6212C35.5231 41.3266 35.3937 41.3039 33.9404 41.2659L32.3881 41.2253L32.3475 39.6826C32.3112 38.3029 32.2774 38.0924 32.0284 37.6921C31.475 36.8023 30.2592 36.3647 29.222 36.682Z" fill="#8BD176"/>
</svg>
