<svg width="24" height="24" viewBox="0 0 24 24" fill="none" xmlns="http://www.w3.org/2000/svg">
<path fill-rule="evenodd" clip-rule="evenodd" d="M3.25 6C3.25 3.37665 5.37665 1.25 8 1.25H16C18.6234 1.25 20.75 3.37665 20.75 6V18C20.75 20.6234 18.6234 22.75 16 22.75H8C5.37665 22.75 3.25 20.6234 3.25 18V6ZM7.25 7C7.25 6.0335 8.0335 5.25 9 5.25H15C15.9665 5.25 16.75 6.0335 16.75 7V8C16.75 8.9665 15.9665 9.75 15 9.75H9C8.0335 9.75 7.25 8.9665 7.25 8V7ZM10.125 18C10.125 18.6213 9.62132 19.125 9 19.125H8C7.37868 19.125 6.875 18.6213 6.875 18C6.875 17.3787 7.37868 16.875 8 16.875H9C9.62132 16.875 10.125 17.3787 10.125 18ZM9 15.125C9.62132 15.125 10.125 14.6213 10.125 14C10.125 13.3787 9.62132 12.875 9 12.875H8C7.37868 12.875 6.875 13.3787 6.875 14C6.875 14.6213 7.37868 15.125 8 15.125H9ZM13.875 18C13.875 17.3787 14.3787 16.875 15 16.875H16C16.6213 16.875 17.125 17.3787 17.125 18C17.125 18.6213 16.6213 19.125 16 19.125H15C14.3787 19.125 13.875 18.6213 13.875 18ZM15 12.875C14.3787 12.875 13.875 13.3787 13.875 14C13.875 14.6213 14.3787 15.125 15 15.125H16C16.6213 15.125 17.125 14.6213 17.125 14C17.125 13.3787 16.6213 12.875 16 12.875H15Z" fill="black"/>
</svg>
