<svg width="18" height="22" viewBox="0 0 18 22" fill="none" xmlns="http://www.w3.org/2000/svg">
<path fill-rule="evenodd" clip-rule="evenodd" d="M0.25 5C0.25 2.37665 2.37665 0.25 5 0.25H13C15.6234 0.25 17.75 2.37665 17.75 5V17C17.75 19.6234 15.6234 21.75 13 21.75H5C2.37665 21.75 0.25 19.6234 0.25 17V5ZM4.25 6C4.25 5.0335 5.0335 4.25 6 4.25H12C12.9665 4.25 13.75 5.0335 13.75 6V7C13.75 7.9665 12.9665 8.75 12 8.75H6C5.0335 8.75 4.25 7.9665 4.25 7V6ZM6.75 17C6.75 17.4142 6.41421 17.75 6 17.75H5C4.58579 17.75 4.25 17.4142 4.25 17C4.25 16.5858 4.58579 16.25 5 16.25H6C6.41421 16.25 6.75 16.5858 6.75 17ZM6 13.75C6.41421 13.75 6.75 13.4142 6.75 13C6.75 12.5858 6.41421 12.25 6 12.25H5C4.58579 12.25 4.25 12.5858 4.25 13C4.25 13.4142 4.58579 13.75 5 13.75H6ZM11.25 17C11.25 16.5858 11.5858 16.25 12 16.25H13C13.4142 16.25 13.75 16.5858 13.75 17C13.75 17.4142 13.4142 17.75 13 17.75H12C11.5858 17.75 11.25 17.4142 11.25 17ZM12 12.25C11.5858 12.25 11.25 12.5858 11.25 13C11.25 13.4142 11.5858 13.75 12 13.75H13C13.4142 13.75 13.75 13.4142 13.75 13C13.75 12.5858 13.4142 12.25 13 12.25H12Z" fill="black"/>
</svg>
