<svg width="24" height="24" viewBox="0 0 24 24" fill="none" xmlns="http://www.w3.org/2000/svg">
<path d="M3.58103 11.687L7.60292 13.1955L9.15963 18.2268C9.25924 18.5491 9.65133 18.6682 9.91157 18.4543L12.1534 16.6176C12.3884 16.4252 12.7232 16.4156 12.9687 16.5948L17.0123 19.5451C17.2907 19.7484 17.6851 19.5951 17.7549 19.257L20.717 4.93793C20.7932 4.56862 20.4321 4.26054 20.0822 4.39654L3.57632 10.7957C3.16899 10.9536 3.17254 11.5331 3.58103 11.687ZM8.90875 12.3925L16.769 7.52727C16.9103 7.44009 17.0556 7.63206 16.9343 7.74514L10.4473 13.8051C10.2193 14.0184 10.0722 14.3039 10.0306 14.6137L9.80958 16.2594C9.78032 16.4792 9.47317 16.501 9.41284 16.2883L8.56298 13.2873C8.46564 12.945 8.60748 12.5794 8.90875 12.3925Z" fill="black"/>
</svg>
