<svg width="24" height="24" viewBox="0 0 24 24" fill="none" xmlns="http://www.w3.org/2000/svg">
<path fill-rule="evenodd" clip-rule="evenodd" d="M19.808 14.4015L19.8027 14.4216C19.3946 16.0681 17.5552 17.836 15.8659 18.2033L15.8469 18.2075C14.4811 18.4682 13.1047 18.5981 11.7294 18.5981C11.3245 18.5981 10.9197 18.5854 10.5148 18.5632L8.64897 20.499C8.18701 20.9792 7.37514 20.652 7.37514 19.9871V18.1484C5.74928 17.6851 4.04625 15.9985 3.65512 14.4216L3.65089 14.4015C3.14664 12.1017 3.14664 9.76908 3.65089 7.46922L3.65512 7.44917C4.06423 5.80264 5.90362 4.03473 7.59185 3.66743L7.61193 3.66321C10.3435 3.14286 13.1143 3.14286 15.8469 3.66321L15.8659 3.66743C17.5552 4.03473 19.3946 5.80264 19.8027 7.44917L19.808 7.46922C20.3122 9.76908 20.3122 12.1017 19.808 14.4015ZM15.553 5.14508C13.0159 4.66274 10.444 4.66274 7.90581 5.14508C6.79583 5.39206 5.39937 6.72723 5.12663 7.80169C4.67313 9.88096 4.67313 11.9877 5.12663 14.0669C5.39937 15.1414 6.79583 16.4776 7.90581 16.7236H7.90687C7.95655 16.7331 7.9925 16.7763 7.9925 16.8259V19.871C7.9925 20.0229 8.17855 20.0979 8.28426 19.9881L9.73358 18.5031C9.73358 18.5031 10.888 17.3199 11.0962 17.1067C11.1163 17.0856 11.1448 17.075 11.1734 17.075C12.6364 17.1151 14.1006 16.998 15.553 16.7214C16.663 16.4745 18.0595 15.1393 18.3322 14.0648C18.7868 11.9856 18.7868 9.87885 18.3322 7.79958C18.0595 6.72512 16.6641 5.3889 15.553 5.14297V5.14508ZM15.5922 14.2221C15.3702 14.6928 15.0477 15.0844 14.5815 15.3335C14.4505 15.4042 14.2929 15.4264 14.145 15.4728C13.9748 15.4211 13.812 15.3863 13.6608 15.324C12.0962 14.676 10.6564 13.84 9.51581 12.5576C8.86674 11.8283 8.35932 11.0061 7.93013 10.1353C7.7261 9.72264 7.55485 9.29307 7.38042 8.86666C7.2208 8.47825 7.45548 8.07612 7.70284 7.7827C7.93435 7.50827 8.23352 7.29718 8.557 7.14203C8.80965 7.02065 9.05808 7.09031 9.24201 7.30457C9.64055 7.76581 10.0063 8.25132 10.3023 8.78645C10.4841 9.11575 10.4344 9.51788 10.1046 9.74164C10.0243 9.79653 9.95134 9.85986 9.87629 9.92107C9.81075 9.9749 9.74943 10.0298 9.70398 10.1026C9.62152 10.2356 9.61835 10.3939 9.67121 10.5385C10.0782 11.6563 10.7653 12.5249 11.8912 12.9925C12.0719 13.0674 12.2527 13.155 12.4599 13.1307C12.8077 13.0906 12.9208 12.7096 13.1639 12.5101C13.4018 12.3159 13.7062 12.3128 13.9631 12.4753C14.22 12.6378 14.4684 12.812 14.7158 12.9872C14.9589 13.1603 15.2 13.3292 15.4241 13.5255C15.6397 13.7144 15.7137 13.9635 15.5922 14.22V14.2221ZM13.572 10.5807C13.4747 10.5828 13.5128 10.5807 13.5498 10.5797C13.3933 10.5744 13.3077 10.4826 13.2908 10.3327C13.2781 10.2229 13.2686 10.1132 13.2432 10.0066C13.1914 9.79758 13.0804 9.60338 12.9039 9.47461C12.8204 9.41445 12.7263 9.37012 12.6269 9.34162C12.5011 9.30574 12.3711 9.31523 12.2453 9.28463C12.1089 9.25191 12.0339 9.14108 12.055 9.01337C12.074 8.89727 12.1872 8.8065 12.314 8.816C13.1079 8.87299 13.6745 9.28251 13.7559 10.2155C13.7612 10.281 13.7686 10.3506 13.7538 10.414C13.7306 10.5164 13.6566 10.5691 13.5826 10.5797C13.5889 10.5797 13.5878 10.5807 13.5709 10.5818L13.572 10.5807ZM13.0783 8.44764C12.8352 8.32837 12.572 8.25449 12.3045 8.21016C12.1882 8.19116 12.0698 8.17955 11.9525 8.16266C11.8108 8.14261 11.7347 8.0529 11.7411 7.91252C11.7474 7.78164 11.8436 7.6877 11.9863 7.69509C12.4557 7.72148 12.9092 7.8228 13.3267 8.0434C14.1756 8.49197 14.6608 9.20124 14.8025 10.1469C14.8088 10.1902 14.8194 10.2324 14.8226 10.2757C14.831 10.3823 14.8353 10.4879 14.8437 10.6282C14.8405 10.6536 14.8384 10.7137 14.8236 10.7707C14.7697 10.9755 14.4579 11.0019 14.386 10.795C14.3648 10.7338 14.3617 10.6641 14.3617 10.5976C14.3606 10.1649 14.2665 9.73214 14.0477 9.3564C13.8225 8.96904 13.48 8.64396 13.0773 8.44764H13.0783ZM15.7021 11.3723C15.5382 11.3745 15.4642 11.2372 15.4537 11.0905C15.4325 10.8003 15.4177 10.5079 15.3776 10.2198C15.1661 8.69779 13.9504 7.43861 12.4324 7.16841C12.2041 7.12725 11.9704 7.1167 11.7389 7.09242C11.5931 7.07659 11.4007 7.06814 11.3689 6.8866C11.3415 6.73462 11.4704 6.61324 11.6153 6.60585C11.6544 6.60374 11.6945 6.60585 11.7337 6.60585C13.6988 6.66073 11.8531 6.61007 11.7389 6.60585C13.7834 6.66496 15.4611 8.02123 15.8215 10.0393C15.8829 10.3834 15.9051 10.7359 15.9325 11.0853C15.9442 11.232 15.8607 11.3713 15.7021 11.3734V11.3723Z" fill="black"/>
</svg>
