<svg width="18" height="18" viewBox="0 0 18 18" fill="none" xmlns="http://www.w3.org/2000/svg">
<path d="M17 8.79396C17 13.0985 13.4837 16.5879 9.14542 16.5879C7.76818 16.5879 6.47431 16.2359 5.34862 15.6181L1 17L2.41778 12.8183C1.70258 11.6439 1.29067 10.2665 1.29067 8.79396C1.29067 4.48942 4.80729 1 9.14542 1C13.4841 1 17 4.48942 17 8.79396ZM9.14542 2.24124C5.50382 2.24124 2.54169 5.1808 2.54169 8.79396C2.54169 10.2277 3.00907 11.5556 3.79964 12.6357L2.97458 15.0693L5.51236 14.2628C6.55502 14.9474 7.80409 15.3467 9.1456 15.3467C12.7867 15.3467 15.7493 12.4075 15.7493 8.79431C15.7493 5.18116 12.7868 2.24124 9.14542 2.24124ZM13.1118 10.589C13.0633 10.5095 12.9351 10.4615 12.7428 10.366C12.55 10.2706 11.6032 9.80818 11.4272 9.74471C11.2507 9.68107 11.122 9.64907 10.9938 9.84018C10.8656 10.0315 10.4965 10.4615 10.384 10.589C10.2716 10.7168 10.1595 10.7328 9.96676 10.6372C9.7744 10.5417 9.15413 10.3397 8.41867 9.68907C7.8464 9.18276 7.45991 8.55769 7.34756 8.36622C7.23538 8.17511 7.33582 8.07182 7.432 7.97671C7.51876 7.89102 7.62471 7.7536 7.72089 7.64213C7.81742 7.53049 7.84942 7.45102 7.91324 7.32338C7.97778 7.19591 7.9456 7.08444 7.89724 6.98862C7.84924 6.89316 7.46382 5.95307 7.30347 5.57049C7.14311 5.18827 6.98293 5.25191 6.8704 5.25191C6.75822 5.25191 6.62969 5.23591 6.50133 5.23591C6.37298 5.23591 6.16427 5.28373 5.98773 5.47484C5.81138 5.66613 5.31413 6.12836 5.31413 7.06827C5.31413 8.00836 6.00373 8.91662 6.10027 9.04391C6.19644 9.1712 7.43182 11.163 9.38916 11.928C11.3467 12.6926 11.3467 12.4375 11.6997 12.4055C12.0524 12.3737 12.8386 11.9435 12.9996 11.4976C13.1596 11.051 13.1596 10.6686 13.1118 10.589Z" fill="black"/>
</svg>
