<svg width="24" height="24" viewBox="0 0 24 24" fill="none" xmlns="http://www.w3.org/2000/svg">
<path d="M20.7272 11.7754C20.7272 16.4713 16.8913 20.2779 12.1586 20.2779C10.6562 20.2779 9.24468 19.8939 8.01666 19.22L3.27271 20.7275L4.81937 16.1657C4.03915 14.8845 3.5898 13.3818 3.5898 11.7754C3.5898 7.07959 7.42611 3.27295 12.1586 3.27295C16.8917 3.27295 20.7272 7.07959 20.7272 11.7754ZM12.1586 4.62703C8.18597 4.62703 4.95455 7.83382 4.95455 11.7754C4.95455 13.3396 5.46441 14.7881 6.32686 15.9665L5.42679 18.6213L8.19527 17.7414C9.33273 18.4883 10.6953 18.9239 12.1588 18.9239C16.1309 18.9239 19.3629 15.7175 19.3629 11.7758C19.3629 7.83421 16.1311 4.62703 12.1586 4.62703ZM16.4856 13.7337C16.4327 13.647 16.2928 13.5946 16.083 13.4905C15.8728 13.3863 14.8398 12.8819 14.6478 12.8126C14.4552 12.7432 14.3148 12.7083 14.175 12.9168C14.0352 13.1255 13.6326 13.5946 13.5098 13.7337C13.3872 13.8731 13.2648 13.8905 13.0546 13.7862C12.8448 13.6821 12.1681 13.4617 11.3658 12.7519C10.7415 12.1996 10.3199 11.5177 10.1973 11.3088C10.0749 11.1003 10.1845 10.9877 10.2894 10.8839C10.3841 10.7904 10.4997 10.6405 10.6046 10.5189C10.7099 10.3971 10.7448 10.3104 10.8144 10.1712C10.8848 10.0321 10.8497 9.91052 10.797 9.80599C10.7446 9.70185 10.3241 8.67629 10.1492 8.25894C9.97428 7.84197 9.79954 7.9114 9.67678 7.9114C9.5544 7.9114 9.41418 7.89394 9.27416 7.89394C9.13413 7.89394 8.90645 7.94611 8.71387 8.1546C8.52148 8.36328 7.97903 8.86752 7.97903 9.89288C7.97903 10.9184 8.73132 11.9093 8.83663 12.0481C8.94155 12.187 10.2892 14.3599 12.4245 15.1944C14.56 16.0285 14.56 15.7502 14.9451 15.7153C15.3299 15.6806 16.1875 15.2113 16.3632 14.7249C16.5378 14.2377 16.5378 13.8205 16.4856 13.7337Z" fill="black"/>
</svg>
