<svg width="24" height="24" viewBox="0 0 24 24" fill="none" xmlns="http://www.w3.org/2000/svg">
<path d="M20.7169 10.466C20.7101 10.0978 20.6806 9.63236 20.629 9.07C20.5772 8.50732 20.503 8.00446 20.4065 7.56139C20.2961 7.06372 20.0563 6.64436 19.6872 6.30345C19.3182 5.96246 18.8887 5.7648 18.3987 5.71018C16.8669 5.53984 14.5522 5.45459 11.4545 5.45459C8.35679 5.45459 6.04206 5.53984 4.5104 5.71018C4.02047 5.76477 3.59263 5.96246 3.22707 6.30345C2.86137 6.64425 2.62333 7.06361 2.51291 7.56139C2.40953 8.0046 2.33182 8.50743 2.28009 9.07C2.22844 9.63236 2.19908 10.0976 2.19223 10.466C2.18523 10.8341 2.18182 11.3454 2.18182 12C2.18182 12.6546 2.18523 13.166 2.19226 13.5341C2.19911 13.9025 2.22847 14.3677 2.28013 14.9301C2.33185 15.4927 2.40605 15.9956 2.50266 16.4387C2.61307 16.9365 2.85278 17.3558 3.22189 17.6966C3.59108 18.0375 4.02065 18.2352 4.51044 18.2898C6.0421 18.4603 8.35668 18.5455 11.4546 18.5455C14.5525 18.5455 16.8669 18.4603 18.3987 18.2898C18.8887 18.2352 19.3164 18.0375 19.6821 17.6966C20.0478 17.3558 20.2857 16.9363 20.3961 16.4387C20.4995 15.9956 20.5772 15.4927 20.629 14.9301C20.6806 14.3678 20.7099 13.9023 20.7169 13.5341C20.7238 13.166 20.7273 12.6546 20.7273 12C20.7273 11.3454 20.7238 10.8341 20.7169 10.466ZM15.1181 12.5523L9.81951 15.8249C9.72287 15.8931 9.60546 15.9272 9.46754 15.9272C9.36412 15.9272 9.25719 15.8998 9.14682 15.8453C8.91918 15.7227 8.8054 15.5317 8.8054 15.2727V8.72744C8.8054 8.46849 8.91922 8.27749 9.14682 8.1548C9.38145 8.0319 9.60561 8.03878 9.81951 8.17526L15.1182 11.4479C15.3251 11.5636 15.4285 11.7478 15.4285 12.0001C15.4285 12.2523 15.325 12.4365 15.1181 12.5523Z" fill="black"/>
</svg>
