<?xml version="1.0" encoding="utf-8"?><svg viewBox="0 0 80 80" xmlns="http://www.w3.org/2000/svg" xmlns:xlink="http://www.w3.org/1999/xlink"><style>:root>svg{display:none}:root>svg:target{display:block}</style><svg viewBox="0 0 24 24" id="accordion-down" xmlns="http://www.w3.org/2000/svg"><rect width="20" height="20" rx="5" transform="matrix(0 -1 -1 0 22 22)" stroke="#DDD" stroke-width="1.5"/><path d="M9 11l2.293 2.293a1 1 0 001.414 0L15 11" stroke="#9F9F9F" stroke-width="1.5" stroke-linecap="round"/></svg><svg viewBox="0 0 61 60" id="adv1" xmlns="http://www.w3.org/2000/svg"><path fill-rule="evenodd" clip-rule="evenodd" d="M23.774.116C17.784.884 12.168 3.652 7.86 7.959 3.733 12.086 1.019 17.524.18 23.347c-.24 1.674-.242 5.867-.001 7.59a27.295 27.295 0 002.515 8.177A27.04 27.04 0 0014.61 51.336c5.207 2.691 10.446 3.566 16.678 2.785l.602-.076.05 1.628c.044 1.477.078 1.684.359 2.227.455.882.812 1.252 1.636 1.7l.74.4H57.32l.74-.4c.82-.446 1.174-.812 1.642-1.7l.317-.599v-2.816c0-2.793-.003-2.821-.308-3.471-.602-1.285-1.775-2.093-3.183-2.194-.627-.045-.793-.097-.794-.247 0-.104-.234-.881-.518-1.727-.839-2.5-1.788-4.19-3.178-5.664l-.79-.836.79-.836c1.39-1.474 2.339-3.165 3.178-5.664.284-.845.517-1.623.518-1.727.002-.15.167-.202.794-.247 1.408-.101 2.581-.91 3.183-2.194.305-.65.308-.678.308-3.471V23.39l-.317-.6c-.468-.887-.822-1.253-1.643-1.698l-.74-.401H34.676l-.763.42c-.894.492-1.526 1.247-1.816 2.17-.163.517-.189 1.046-.158 3.18.037 2.479.048 2.582.345 3.216.6 1.28 1.776 2.093 3.174 2.194.776.055.782.059.854.442.137.731.793 2.579 1.296 3.651.681 1.451 1.404 2.542 2.35 3.545l.79.836-.79.836c-.946 1.003-1.669 2.094-2.35 3.545-.507 1.081-1.16 2.921-1.3 3.667-.07.38-.099.4-.568.4-.723 0-1.603.297-2.3.777-.47.322-.865.472-1.684.637-7.502 1.51-15.308-.797-20.824-6.157-2.106-2.047-3.584-4.086-4.825-6.656-3.127-6.475-3.129-13.904-.004-20.374 1.165-2.412 2.38-4.148 4.28-6.11 2.034-2.1 4.08-3.585 6.65-4.824a23.44 23.44 0 0128.485 6.45c1.057 1.314 1.802 2.482 2.769 4.337.592 1.136.779 1.394 1.173 1.622 1.162.669 2.6-.102 2.726-1.462.044-.477-.021-.725-.412-1.572-.6-1.3-1.73-3.17-2.733-4.525C44.626 4.97 37.835 1.024 30.395.104c-1.173-.145-5.462-.138-6.621.01zm2.687 10.35a2.012 2.012 0 00-.99 1.052c-.083.22-.125 2.58-.125 7.065v6.734l-3.629.034c-3.453.033-3.644.046-3.952.277-.616.46-.808.834-.808 1.576 0 .742.192 1.117.808 1.577.315.235.458.242 5.235.242s4.92-.007 5.235-.242c.178-.133.433-.388.566-.566.239-.32.242-.425.242-8.52 0-8.096-.003-8.2-.242-8.52a3.268 3.268 0 00-.549-.554c-.389-.29-1.323-.37-1.79-.154zm29.863 15.8v1.877H35.672v-3.755h20.652v1.878zM8.62 25.492c-1.184.515-1.463 2.09-.536 3.017.761.76 1.848.76 2.61 0 1.455-1.457-.183-3.84-2.074-3.017zm43.182 6.776c-.138.626-.858 2.315-1.337 3.135-.662 1.132-1.348 1.854-2.427 2.55-.807.52-1.002.71-1.262 1.234-.2.398-.309.81-.309 1.159s.11.76.309 1.16c.26.523.455.713 1.262 1.233 1.079.696 1.766 1.418 2.427 2.55.48.82 1.2 2.509 1.337 3.135l.081.37H40.112l.082-.37c.137-.626.857-2.315 1.336-3.134.662-1.133 1.35-1.855 2.428-2.55.807-.521 1.001-.712 1.262-1.235.199-.398.309-.81.309-1.159 0-.348-.11-.76-.309-1.16-.26-.523-.455-.713-1.262-1.233-1.079-.696-1.766-1.418-2.428-2.55-.479-.82-1.199-2.509-1.336-3.135l-.082-.37h11.771l-.08.37zm-25.347 11.06c-1.183.515-1.463 2.088-.536 3.016 1.319 1.318 3.479.138 3.132-1.712-.207-1.106-1.528-1.77-2.596-1.305zm29.869 11.098v1.878H35.672v-3.755h20.652v1.877z"/></svg><svg viewBox="0 0 60 60" id="adv2" xmlns="http://www.w3.org/2000/svg"><path fill-rule="evenodd" clip-rule="evenodd" d="M12.617.02c-.097.02-.572.1-1.056.179-2.72.44-5.385 1.838-7.463 3.917-1.99 1.99-3.27 4.337-3.879 7.11C.011 12.177 0 13.09 0 29.947c0 19.228-.03 18.265.655 20.381.681 2.104 1.818 3.943 3.443 5.567 1.624 1.625 3.462 2.762 5.567 3.443 1.98.642 2.157.654 8.946.654h6.287l.476-.314c.733-.485 1.033-1.059 1.033-1.974s-.3-1.489-1.032-1.974l-.476-.315-6.23-.065c-6.649-.07-6.48-.055-8.19-.695-2.08-.779-4.362-3.06-5.142-5.142-.686-1.833-.642-.495-.642-19.507s-.044-17.674.642-19.507c.84-2.24 3.121-4.422 5.508-5.267 1.695-.6 1.457-.593 19.67-.553 18.551.04 17.14-.01 18.98.678.925.347 2.282 1.257 3.09 2.075.823.832 1.712 2.161 2.05 3.065.649 1.734.628 1.46.697 9.014l.064 7.05.315.476c.485.732 1.059 1.032 1.974 1.032s1.489-.3 1.973-1.032l.315-.476v-7.11c0-5.587-.035-7.284-.163-7.93C58.697 5.9 54.642 1.681 49 .277 48.008.03 47.894.028 30.398.007 20.715-.007 12.713 0 12.617.02zm5.892 9.566c-1.285.337-2.195.87-3.197 1.871-1.016 1.017-1.537 1.917-1.877 3.243-.423 1.656-.203 3.457.613 5.014.498.952 1.922 2.376 2.874 2.875 1.558.816 3.358 1.035 5.014.612 1.326-.34 2.226-.86 3.243-1.877 1.016-1.017 1.537-1.917 1.877-3.243.423-1.656.203-3.456-.613-5.013-.498-.952-1.922-2.376-2.874-2.875-1.553-.814-3.418-1.037-5.06-.607zm14.437 2.71c-.556.163-1.277.932-1.44 1.535-.28 1.043.137 2.14 1.026 2.692l.448.279h16.095l.476-.315c.733-.485 1.033-1.059 1.033-1.974s-.3-1.489-1.033-1.974l-.475-.315-7.872-.02c-4.761-.012-8.025.024-8.258.092zM21.535 14.44c.7.463 1 1.048 1 1.952 0 .915-.301 1.489-1.034 1.974-.655.433-1.8.45-2.466.036-.889-.552-1.306-1.65-1.025-2.692.161-.6.88-1.369 1.439-1.54.615-.188 1.582-.063 2.086.27zm11.41 6.073c-.555.163-1.276.931-1.438 1.534-.281 1.044.136 2.14 1.024 2.692l.449.279h16.095l.476-.315c.733-.485 1.033-1.058 1.033-1.974 0-.915-.3-1.488-1.033-1.973l-.475-.315-7.872-.02c-4.761-.013-8.025.024-8.258.092zm-15.087 5.619c-2.747.494-5.694 2.27-6.067 3.655-.364 1.352.425 2.696 1.746 2.976.737.156 1.381-.033 2.17-.638 1.448-1.11 2.419-1.411 4.538-1.411 2.12 0 3.091.302 4.538 1.41 1.07.82 2.02.91 2.989.285.68-.439.982-1.034.982-1.934 0-.99-.282-1.452-1.393-2.287a10.929 10.929 0 00-3.536-1.771c-.95-.283-1.274-.319-3.227-.351-1.195-.02-2.427.01-2.74.066zm31.889 5.215c-.91.208-1.972.635-2.834 1.14-.732.43-9.125 8.654-10.583 10.37-1.539 1.812-2.583 3.676-3.287 5.87-.544 1.694-1.913 8.66-1.83 9.315a2.255 2.255 0 001.946 1.955c.661.084 7.595-1.274 9.327-1.826 2.128-.678 4.054-1.76 5.868-3.294 1.3-1.1 9.684-9.552 10.119-10.2a9.664 9.664 0 001.223-2.585c.393-1.258.393-3.428 0-4.692-.904-2.916-2.937-4.961-5.826-5.863-1.061-.332-3.095-.425-4.123-.19zm3.264 4.85c.768.34 1.56 1.11 1.943 1.89.277.566.325.808.325 1.66 0 1.676.07 1.585-5.482 7.118-5.08 5.061-5.554 5.466-7.435 6.335-.476.22-1.356.528-1.955.684-1.504.394-3.72.818-3.809.73-.088-.089.336-2.305.73-3.81.156-.598.464-1.478.684-1.954.865-1.873 1.283-2.365 6.217-7.324 2.592-2.605 4.923-4.872 5.181-5.038.259-.167.681-.373.94-.458.657-.216 1.984-.133 2.66.167zm-40.017.747c-.556.162-1.277.931-1.44 1.534-.28 1.044.137 2.14 1.026 2.693l.448.278h18.678l.475-.315c.733-.485 1.033-1.058 1.033-1.974 0-.915-.3-1.489-1.033-1.973l-.475-.315-9.163-.02c-5.575-.013-9.314.024-9.55.092zm0 8.214c-.557.165-1.277.934-1.44 1.536-.28 1.043.137 2.14 1.026 2.692l.448.279h9.289l.475-.315c.733-.485 1.033-1.059 1.033-1.974s-.3-1.489-1.032-1.974l-.476-.315-4.469-.021c-2.615-.013-4.628.026-4.854.092z"/></svg><svg viewBox="0 0 60 60" id="adv3" xmlns="http://www.w3.org/2000/svg"><path fill-rule="evenodd" clip-rule="evenodd" d="M4.523 7.187a6.125 6.125 0 00-4.324 4.51c-.265 1.123-.265 34.904 0 36.028a6.099 6.099 0 004.376 4.515c.963.257 49.91.257 50.872 0a6.084 6.084 0 004.377-4.515c.15-.641.176-3.209.176-18.014 0-14.806-.025-17.373-.176-18.015a6.084 6.084 0 00-4.377-4.515c-.92-.245-50.033-.24-50.924.006zm50.25 4.949l.391.348v34.453l-.39.349-.39.348H5.639l-.39-.348-.39-.349-.032-17.167-.03-17.168.407-.408.407-.407H54.384l.39.349zm-35.277 3.308c-.934.251-1.826.682-2.693 1.3-3.655 2.609-4.067 7.622-.992 12.085 1.82 2.64 4.259 3.854 6.733 3.35 1.917-.39 3.438-1.531 4.777-3.585 1.258-1.93 1.851-3.813 1.853-5.878.002-2.207-.57-3.611-2.09-5.144-.758-.763-1.172-1.07-1.973-1.462-.558-.274-1.335-.578-1.727-.677-.909-.23-3.01-.224-3.888.011zm3.01 4.728c.538.162 1.456.922 1.714 1.421.25.483.22 1.736-.063 2.638-.447 1.43-1.555 2.953-2.335 3.21-.349.116-.487.103-.863-.08-.573-.28-1.595-1.633-2.015-2.667-.37-.912-.506-2.26-.291-2.91.169-.512 1.132-1.419 1.7-1.6.546-.175 1.589-.18 2.153-.012zm14.615 2.954c-.937.434-1.376 1.137-1.372 2.201.002.787.36 1.44 1.054 1.93l.518.363 5.994.034c5.322.03 6.052.012 6.508-.162 1.927-.735 2.094-3.354.274-4.314l-.527-.278-5.985.002c-5.572.003-6.02.018-6.464.224zm.138 8.79c-.914.326-1.512 1.198-1.512 2.203 0 1.04.446 1.746 1.374 2.176.445.206.892.222 6.464.224l5.985.003.527-.278c1.016-.537 1.524-1.737 1.179-2.785-.228-.693-.573-1.088-1.237-1.42l-.598-.297-5.861.005c-4.651.005-5.956.04-6.321.17zM16.587 34.97c-4.363.764-7.44 4.037-7.908 8.411l-.085.788h4.76l.145-.7c.2-.967.774-2.063 1.356-2.59.27-.242.845-.61 1.28-.816l.792-.375h4.54c4.473 0 4.552.004 5.228.278 1.388.56 2.456 1.918 2.75 3.498l.13.705h4.772l-.071-.77c-.11-1.163-.4-2.163-.977-3.352-.944-1.949-2.335-3.32-4.315-4.257-1.763-.834-1.95-.857-7.158-.891-2.563-.017-4.92.015-5.239.07z"/></svg><svg viewBox="0 0 52 60" id="adv4" xmlns="http://www.w3.org/2000/svg"><path fill-rule="evenodd" clip-rule="evenodd" d="M0 36.047a8.376 8.376 0 002.812 6.26l9.66 8.585c2.607 2.318 5.219 4.67 7.836 7.007 3.157 2.821 7.923 2.792 11.076-.035l7.33-6.573 10.077-8.958a8.376 8.376 0 002.81-6.26V8.376A8.376 8.376 0 0043.227 0H8.376A8.376 8.376 0 000 8.376v27.67zm23.288-20.603a2.574 2.574 0 105.148 0V5.148h13.83a4.188 4.188 0 014.188 4.188v26.288a4.188 4.188 0 01-1.405 3.13L28.497 53.468l-.05-9.59a2.586 2.586 0 00-2.586-2.573 2.573 2.573 0 00-2.573 2.573v3.494c0 3.337-.044 6.068-.1 6.068-.054 0-4.136-3.589-9.07-7.974l-7.565-6.725a4.188 4.188 0 01-1.405-3.13V9.336a4.188 4.188 0 014.188-4.188h13.952v10.296zm5.7 7.353l-5.76 5.76-2.085-2.082a2.515 2.515 0 00-3.554 0c-.978.976-1.777 1.83-1.777 1.898 0 .161 7.253 7.417 7.415 7.417.068 0 3.53-3.406 7.692-7.57l5.76-5.76a2.556 2.556 0 000-3.616c-.996-.994-1.838-1.807-1.871-1.807-.033 0-2.652 2.592-5.82 5.76z"/></svg><svg viewBox="0 0 55 62" id="adv5" xmlns="http://www.w3.org/2000/svg"><path fill-rule="evenodd" clip-rule="evenodd" d="M25.184 1.074c-8.521 1.044-14.94 6.913-16.592 15.171-.45 2.25-.531 3.433-.531 7.733 0 3.06.042 4.28.176 5.044.935 5.366 5.387 8.991 11.04 8.991h1.216v3.489l-2.727.063c-3.068.07-4.21.252-6.183.981-4.537 1.677-8.17 5.398-9.716 9.951-.655 1.93-.749 2.585-.81 5.659L1 61h53.059l-.057-2.844c-.062-3.074-.155-3.73-.81-5.659-1.353-3.984-4.379-7.43-8.13-9.257-2.613-1.274-4.08-1.59-7.769-1.675l-2.727-.063v-3.489h1.216c4.082 0 7.34-1.712 9.47-4.975.793-1.215 1.322-2.584 1.582-4.09.153-.885.176-1.857.135-5.706-.054-5.102-.167-6.168-.921-8.707-2.087-7.025-7.704-12-15-13.285-1.313-.23-4.607-.33-5.864-.176zm5.49 3.687c2.081.408 4.193 1.27 5.945 2.426 1.204.795 3.232 2.823 4.027 4.027 1.519 2.3 2.398 4.865 2.714 7.917.19 1.825.152 8.371-.054 9.46-.412 2.18-1.886 4.125-3.84 5.066-.534.258-1.106.497-1.272.533-.294.062-.285.032.378-1.311 1.26-2.55 1.387-3.53 1.388-10.728l.001-5.366-2.081-.002c-2.487-.002-3.33-.151-4.711-.832-1.811-.893-3.116-2.55-3.65-4.632-.126-.498-.23-1.054-.23-1.238v-.333h-1.76c-1.745 0-1.759.002-1.76.264-.006.661-.389 1.992-.833 2.893a6.579 6.579 0 01-3.046 3.046c-1.38.68-2.224.83-4.71.832l-2.082.002.002 5.366c0 2.95.052 5.84.114 6.42.17 1.593.522 2.788 1.273 4.308.776 1.572.784 1.562-.659.905a7.21 7.21 0 01-4.073-5.196c-.208-1.084-.246-7.623-.056-9.457.581-5.613 3.217-9.91 7.68-12.522 1.614-.945 3.996-1.747 5.98-2.014 1.155-.155 4.155-.062 5.315.166zm-2.813 11.255c.451.662 1.786 1.926 2.622 2.483a10.586 10.586 0 004.962 1.757l.88.08v4.095c0 4.692-.055 5.124-.879 6.84-1.285 2.68-3.825 4.445-7.008 4.868-1.234.164-2.562.022-3.835-.411-1.418-.482-2.513-1.217-3.63-2.436l-.51-.557h7.067V29.1h-8.652l-.07-.264c-.04-.145-.072-2.117-.073-4.382l-.002-4.118.88-.08c1.833-.166 3.716-.852 5.154-1.879.815-.581 2.007-1.74 2.43-2.36.15-.222.3-.403.332-.403.033 0 .182.18.332.402zm-2.208 23.592c.548.09 1.366.163 1.818.163.763 0 2.693-.246 3.325-.424l.275-.077-.044 1.629c-.04 1.487-.071 1.68-.353 2.216-1.352 2.567-4.947 2.576-6.284.014-.287-.55-.317-.738-.358-2.229l-.044-1.628.334.086c.184.047.783.16 1.331.25zm-3.816 6.088c.737 1.07 2.12 2.109 3.306 2.483l.627.197v9.106H4.542v-.344c0-1.407.715-4 1.49-5.403 1.98-3.585 5.556-6.04 9.56-6.56.405-.052 1.876-.102 3.268-.11l2.532-.015.445.646zm17.503-.526c3.99.5 7.375 2.707 9.448 6.16.872 1.45 1.526 3.478 1.675 5.194l.084.958H29.289v-9.106l.627-.197c1.186-.374 2.569-1.413 3.306-2.483l.445-.646h2.358c1.298 0 2.79.054 3.315.12z" stroke="#8BD176"/></svg><svg viewBox="0 0 62 62" id="adv6" xmlns="http://www.w3.org/2000/svg"><path fill-rule="evenodd" clip-rule="evenodd" d="M26.784 1.195c-.753.315-.92.728-1.39 3.456l-.425 2.474-1.635.535c-.92.301-2.367.902-3.309 1.374l-1.674.838-1.785-1.282c-2.137-1.534-2.606-1.77-3.287-1.66-.449.072-.734.323-3.377 2.966-2.643 2.643-2.894 2.929-2.966 3.377-.11.682.126 1.15 1.66 3.288l1.282 1.786-.839 1.674a28.745 28.745 0 00-1.373 3.309l-.535 1.635-2.474.426c-2.752.474-3.146.636-3.461 1.42-.261.651-.261 7.72 0 8.37.315.786.709.947 3.461 1.421l2.474.427.535 1.634c.301.92.902 2.367 1.373 3.31l.839 1.674-1.282 1.786c-1.534 2.137-1.77 2.606-1.66 3.287.072.449.323.734 2.966 3.377 2.643 2.643 2.928 2.894 3.377 2.967.68.11 1.15-.127 3.287-1.66l1.785-1.283 1.674.839a28.744 28.744 0 003.309 1.373l1.635.535.426 2.474c.474 2.753.636 3.147 1.42 3.462.651.261 7.719.261 8.37 0 .784-.315.946-.709 1.42-3.462l.426-2.474 1.635-.535c.92-.301 2.367-.902 3.309-1.373l1.674-.839 1.785 1.282c2.137 1.534 2.606 1.77 3.287 1.66.449-.072.734-.323 3.377-2.966 2.643-2.643 2.894-2.928 2.966-3.377.11-.681-.126-1.15-1.66-3.287l-1.282-1.786.839-1.675a28.738 28.738 0 001.373-3.309l.535-1.634 2.474-.427c2.752-.474 3.146-.635 3.461-1.42.261-.651.261-7.72 0-8.37-.315-.785-.709-.947-3.461-1.421l-2.474-.426-.535-1.635a28.747 28.747 0 00-1.373-3.31l-.839-1.673 1.282-1.787c1.534-2.137 1.77-2.605 1.66-3.287-.072-.448-.323-.734-2.966-3.377-2.643-2.643-2.928-2.894-3.377-2.966-.681-.11-1.15.126-3.291 1.663L43.64 9.88l-1.665-.84a27.16 27.16 0 00-3.304-1.377l-1.64-.537-.426-2.474c-.474-2.753-.636-3.147-1.42-3.462-.638-.256-7.786-.25-8.401.006zm6.262 3.594c.033.145.192 1.08.353 2.08.16.998.346 2.008.412 2.243.202.722.735 1.073 2.172 1.434 2.218.556 3.88 1.245 5.967 2.478 1.229.726 1.714.85 2.327.593.237-.099 1.155-.699 2.039-1.333a99.567 99.567 0 011.766-1.249c.113-.069.564.307 1.553 1.294.767.765 1.372 1.45 1.344 1.522-.028.073-.584.875-1.236 1.784-.652.908-1.266 1.846-1.366 2.083-.256.614-.132 1.098.593 2.327 1.233 2.088 1.923 3.75 2.479 5.968.36 1.438.712 1.97 1.433 2.172.236.066 1.245.252 2.244.413.998.16 1.933.32 2.078.352.261.06.264.082.264 2.047 0 1.964-.003 1.987-.264 2.046a81.97 81.97 0 01-2.078.353c-.999.16-2.008.346-2.244.412-.721.202-1.073.735-1.433 2.172-.556 2.219-1.246 3.88-2.479 5.968-.725 1.229-.849 1.714-.593 2.327.1.238.714 1.175 1.366 2.083.652.909 1.208 1.711 1.236 1.784.028.072-.577.758-1.344 1.522-.99.988-1.44 1.363-1.553 1.294a99.253 99.253 0 01-1.766-1.25c-.884-.633-1.802-1.233-2.04-1.332-.612-.256-1.097-.133-2.326.593-2.088 1.233-3.749 1.923-5.967 2.479-1.437.36-1.97.712-2.172 1.433-.066.236-.251 1.245-.412 2.244a81.97 81.97 0 01-.353 2.079c-.059.26-.082.264-2.046.264-1.964 0-1.987-.003-2.046-.264a81.97 81.97 0 01-.353-2.079c-.16-.999-.346-2.008-.412-2.244-.201-.721-.735-1.073-2.172-1.433-2.218-.556-3.88-1.246-5.967-2.48-1.229-.725-1.714-.848-2.327-.592-.237.1-1.155.699-2.039 1.333a99.253 99.253 0 01-1.766 1.249c-.113.069-.564-.306-1.553-1.294-.767-.764-1.372-1.45-1.344-1.522.028-.073.584-.875 1.236-1.784.652-.908 1.266-1.845 1.366-2.083.256-.613.132-1.098-.593-2.327-1.233-2.088-1.923-3.75-2.479-5.968-.36-1.437-.712-1.97-1.433-2.172-.236-.066-1.245-.251-2.244-.412a81.85 81.85 0 01-2.078-.353c-.261-.059-.264-.082-.264-2.046 0-1.965.003-1.988.264-2.047.144-.033 1.08-.191 2.078-.352.999-.161 2.008-.347 2.244-.413.721-.201 1.073-.734 1.433-2.172.556-2.219 1.246-3.88 2.479-5.968.725-1.229.849-1.713.593-2.327-.1-.237-.714-1.175-1.366-2.083-.652-.909-1.208-1.711-1.236-1.784-.028-.072.577-.757 1.344-1.522.99-.987 1.44-1.363 1.553-1.294.087.054.882.616 1.766 1.25.884.633 1.802 1.233 2.04 1.332.612.256 1.097.133 2.326-.593 2.088-1.232 3.749-1.922 5.967-2.478 1.437-.36 1.97-.712 2.172-1.434.066-.235.251-1.245.412-2.244.161-.998.32-1.934.353-2.079.059-.26.082-.263 2.046-.263 1.964 0 1.987.003 2.046.263zm-4.271 10.575c-3.36.469-6.436 2.02-8.91 4.496-5.343 5.343-6.177 13.558-2.016 19.859 1.035 1.566 2.876 3.406 4.426 4.42 6.377 4.178 14.498 3.357 19.86-2.006 5.343-5.343 6.177-13.558 2.016-19.858-1.03-1.559-2.874-3.403-4.426-4.426-3.261-2.15-7.105-3.022-10.95-2.485zm3.9 3.46c6.845 1.024 11.546 7.37 10.45 14.105-.266 1.63-1.115 3.835-1.827 4.744l-.23.293-.377-.469a12.67 12.67 0 00-3.812-3.234l-.62-.35.416-.567c1.162-1.583 1.589-3.604 1.176-5.57-.664-3.161-3.62-5.56-6.851-5.56s-6.187 2.399-6.85 5.56c-.414 1.966.013 3.987 1.175 5.57l.416.568-.62.35a12.67 12.67 0 00-3.812 3.233l-.378.469-.23-.293c-.35-.448-1.031-1.863-1.36-2.826-2.197-6.446 1.539-13.61 8.146-15.62 1.605-.488 3.588-.642 5.189-.403zm-.245 7.226c.684.303 1.45 1.068 1.77 1.767.347.756.347 2.09 0 2.846-.318.696-1.081 1.46-1.777 1.778-.757.346-2.09.346-2.846 0-1.504-.689-2.358-2.418-1.977-4.004.506-2.113 2.841-3.267 4.83-2.387zm.737 10.503c1.006.264 2.707 1.133 3.43 1.752.679.581 1.493 1.498 1.805 2.032l.2.341-.96.634c-1.076.71-2.38 1.271-3.845 1.655-.807.211-1.304.257-2.797.257s-1.99-.046-2.797-.257c-1.464-.384-2.769-.945-3.844-1.655l-.961-.634.2-.341c.837-1.432 2.705-2.908 4.497-3.554 1.468-.53 3.565-.625 5.072-.23z" stroke="#8BD176"/></svg><svg viewBox="0 0 60 60" id="adv7" xmlns="http://www.w3.org/2000/svg"><path fill-rule="evenodd" clip-rule="evenodd" d="M1.529.095C.994.25.252 1.025.1 1.587c-.087.32-.116 6.949-.094 21.616l.03 21.153.279.448c.153.246.492.589.754.762l.476.315h6.253l.476-.315c.732-.485 1.032-1.058 1.032-1.972 0-.915-.3-1.488-1.032-1.973-.445-.295-.574-.317-2.039-.355l-1.564-.041V4.654h15.953l.032 8.123.033 8.122.278.447c.554.89 1.712 1.33 2.67 1.014.25-.082 1.788-1.04 3.418-2.126l2.963-1.977 2.99 1.995c3.279 2.188 3.685 2.376 4.595 2.133.692-.185 1.127-.495 1.471-1.049l.272-.437.033-8.123.032-8.122h15.953v36.573l-1.79.04c-1.64.036-1.826.063-2.237.318-.246.153-.59.492-.763.754-.262.396-.315.605-.315 1.255 0 .649.053.858.315 1.255.173.261.517.6.763.753.444.276.476.279 3.8.279h3.354l.475-.315c.262-.173.601-.516.755-.762l.278-.448V1.529l-.315-.475A3.003 3.003 0 0058.922.3l-.447-.278-28.28-.02C12.568-.01 1.769.025 1.529.095zm33.183 10.072c0 3.032-.027 5.512-.061 5.512s-.85-.527-1.815-1.172c-1.019-.68-1.977-1.232-2.286-1.314-.827-.222-1.37-.009-3.348 1.314-.965.645-1.782 1.172-1.816 1.172-.033 0-.061-2.48-.061-5.512V4.654h9.387v5.513zM27.93 27.303c-2.052.277-4.22 1.004-5.95 1.995-1.514.867-2.57 1.698-3.827 3.01-2.196 2.293-3.548 4.86-4.231 8.038-.369 1.71-.369 4.784 0 6.495.678 3.152 2.03 5.734 4.186 7.994 2.233 2.34 4.846 3.89 7.845 4.65 4.603 1.167 9.268.341 13.368-2.366 1.102-.727 3.509-3.138 4.254-4.26 1.947-2.934 2.804-5.764 2.804-9.265 0-2.827-.48-4.932-1.66-7.272-.888-1.765-1.625-2.77-3.14-4.285-2.446-2.447-4.96-3.822-8.251-4.514-1.338-.281-4.11-.394-5.398-.22zm4.846 4.899c5.459 1.357 9.226 6.382 8.937 11.92-.226 4.315-2.65 8.032-6.496 9.958-3.16 1.583-6.918 1.634-10.077.139-1.42-.673-2.393-1.345-3.4-2.351a11.66 11.66 0 01-1.522-14.678c1.75-2.683 4.55-4.536 7.775-5.147 1.219-.231 3.522-.154 4.783.159zm-3.554 4.48c-.55.168-1.277.94-1.434 1.521-.085.315-.118 1.49-.094 3.329l.036 2.842.315.475c.173.261.517.6.763.753.442.275.489.279 3.557.279 3.07 0 3.116-.004 3.558-.279.246-.153.59-.492.763-.753.261-.395.315-.607.315-1.247 0-.924-.298-1.494-1.033-1.98-.445-.295-.574-.318-2.028-.356l-1.552-.04-.04-1.543c-.037-1.38-.07-1.59-.32-1.99-.553-.89-1.769-1.328-2.806-1.011z"/></svg><svg viewBox="0 0 24 24" id="calc-mobile" xmlns="http://www.w3.org/2000/svg"><path fill-rule="evenodd" clip-rule="evenodd" d="M3.25 6A4.75 4.75 0 018 1.25h8A4.75 4.75 0 0120.75 6v12A4.75 4.75 0 0116 22.75H8A4.75 4.75 0 013.25 18V6zm4 1c0-.966.784-1.75 1.75-1.75h6c.966 0 1.75.784 1.75 1.75v1A1.75 1.75 0 0115 9.75H9A1.75 1.75 0 017.25 8V7zm2.875 11c0 .621-.504 1.125-1.125 1.125H8a1.125 1.125 0 010-2.25h1c.621 0 1.125.504 1.125 1.125zM9 15.125a1.125 1.125 0 000-2.25H8a1.125 1.125 0 000 2.25h1zM13.875 18c0-.621.504-1.125 1.125-1.125h1a1.125 1.125 0 010 2.25h-1A1.125 1.125 0 0113.875 18zM15 12.875a1.125 1.125 0 000 2.25h1a1.125 1.125 0 000-2.25h-1z"/></svg><svg viewBox="0 0 18 22" id="calculator" xmlns="http://www.w3.org/2000/svg"><path fill-rule="evenodd" clip-rule="evenodd" d="M.25 5A4.75 4.75 0 015 .25h8A4.75 4.75 0 0117.75 5v12A4.75 4.75 0 0113 21.75H5A4.75 4.75 0 01.25 17V5zm4 1c0-.966.784-1.75 1.75-1.75h6c.966 0 1.75.784 1.75 1.75v1A1.75 1.75 0 0112 8.75H6A1.75 1.75 0 014.25 7V6zm2.5 11a.75.75 0 01-.75.75H5a.75.75 0 010-1.5h1a.75.75 0 01.75.75zM6 13.75a.75.75 0 000-1.5H5a.75.75 0 000 1.5h1zM11.25 17a.75.75 0 01.75-.75h1a.75.75 0 010 1.5h-1a.75.75 0 01-.75-.75zm.75-4.75a.75.75 0 000 1.5h1a.75.75 0 000-1.5h-1z"/></svg><svg viewBox="0 0 20 20" id="close" xmlns="http://www.w3.org/2000/svg"><rect x="2.929" y=".101" width="24" height="4" rx="2" transform="rotate(45 2.929 .1)"/><rect x=".101" y="17.071" width="24" height="4" rx="2" transform="rotate(-45 .1 17.071)"/></svg><svg viewBox="0 0 24 24" id="info" xmlns="http://www.w3.org/2000/svg"><path fill-rule="evenodd" clip-rule="evenodd" d="M1.25 12C1.25 6.063 6.063 1.25 12 1.25S22.75 6.063 22.75 12 17.937 22.75 12 22.75 1.25 17.937 1.25 12zm12-1a.75.75 0 00-.75-.75h-2a.75.75 0 000 1.5h1.25V17a.75.75 0 001.5 0v-6zm0-4a.75.75 0 00-1.5 0v1a.75.75 0 001.5 0V7z"/></svg><svg viewBox="0 0 22 22" id="pag_next" xmlns="http://www.w3.org/2000/svg"><path d="M12 14l2.293-2.293a1 1 0 000-1.414L12 8m2 3H7m4 10c5.523 0 10-4.477 10-10S16.523 1 11 1 1 5.477 1 11s4.477 10 10 10z" stroke="#C2C2C2" stroke-width="1.5" stroke-linecap="round"/></svg><svg viewBox="0 0 22 22" id="pag_prev" xmlns="http://www.w3.org/2000/svg"><path d="M10 8l-2.293 2.293a1 1 0 000 1.414L10 14m-2-3h7M11 1C5.477 1 1 5.477 1 11s4.477 10 10 10 10-4.477 10-10S16.523 1 11 1z" stroke="#C2C2C2" stroke-width="1.5" stroke-linecap="round"/></svg><svg viewBox="0 0 24 24" id="skype" xmlns="http://www.w3.org/2000/svg"><path d="M23.31 14.548c.172-.78.265-1.59.265-2.422C23.575 5.893 18.45.839 12.128.839c-.668 0-1.322.057-1.958.165A6.672 6.672 0 006.638 0C2.972 0 0 2.93 0 6.545c0 1.209.333 2.34.912 3.311a11.186 11.186 0 00-.231 2.27c0 6.233 5.125 11.287 11.447 11.287.716 0 1.416-.066 2.096-.19a6.684 6.684 0 003.138.777C21.028 24 24 21.07 24 17.455a6.44 6.44 0 00-.69-2.907zm-5.312 2.972c-.53.739-1.312 1.324-2.325 1.74-1.004.411-2.207.62-3.577.62-1.644 0-3.023-.285-4.099-.848a5.349 5.349 0 01-1.884-1.649c-.487-.692-.733-1.378-.733-2.04 0-.413.16-.772.477-1.065.314-.291.716-.438 1.195-.438.393 0 .733.116 1.008.346.264.22.49.546.672.966.203.459.424.845.657 1.15.225.293.548.54.96.732.415.193.975.292 1.663.292.946 0 1.722-.2 2.306-.593.57-.383.847-.844.847-1.408 0-.446-.145-.796-.442-1.07-.312-.288-.723-.511-1.222-.665-.52-.16-1.226-.332-2.1-.512-1.183-.25-2.19-.547-2.99-.882a.351.351 0 01-.01-.004c-.82-.344-1.482-.821-1.966-1.419-.492-.606-.741-1.367-.741-2.262 0-.852.261-1.62.777-2.284.512-.658 1.26-1.17 2.222-1.52.95-.347 2.08-.523 3.359-.523 1.022 0 1.92.117 2.671.347.754.231 1.39.544 1.89.93.504.387.878.802 1.114 1.233.237.435.357.868.357 1.287 0 .404-.157.77-.47 1.09a1.583 1.583 0 01-1.175.484c-.424 0-.755-.102-.986-.303-.214-.187-.436-.478-.683-.897-.285-.535-.63-.956-1.027-1.253-.385-.289-1.028-.435-1.911-.435-.82 0-1.488.162-1.983.483-.478.308-.71.662-.71 1.082 0 .257.075.472.228.657.163.195.392.368.682.51.301.15.611.268.922.353.318.087.852.216 1.584.382a28.635 28.635 0 012.53.653c.763.241 1.421.538 1.959.882.548.352.982.804 1.29 1.344.309.542.465 1.21.465 1.988 0 .93-.27 1.777-.8 2.519z"/></svg><svg viewBox="0 0 20 19" id="star" xmlns="http://www.w3.org/2000/svg"><path d="M10 0l2.351 6.764 7.16.146-5.707 4.326 2.074 6.854L10 14l-5.878 4.09 2.074-6.854L.489 6.91l7.16-.146L10 0z"/></svg><svg viewBox="0 0 20 19" id="star-active" xmlns="http://www.w3.org/2000/svg"><path d="M10 0l2.351 6.764 7.16.146-5.707 4.326 2.074 6.854L10 14l-5.878 4.09 2.074-6.854L.489 6.91l7.16-.146L10 0z"/></svg><svg viewBox="0 0 16 14" id="telegram" xmlns="http://www.w3.org/2000/svg"><path d="M.283 6.713l3.686 1.383 1.427 4.612c.092.295.451.404.69.208l2.055-1.683a.61.61 0 01.747-.021l3.707 2.704a.434.434 0 00.68-.264L15.991.526a.435.435 0 00-.582-.496L.279 5.896a.438.438 0 00.004.817zm4.883.647l7.206-4.46c.13-.08.262.096.151.2L6.577 8.655a1.24 1.24 0 00-.382.74l-.203 1.51c-.027.2-.308.22-.364.026L4.85 8.18a.73.73 0 01.317-.82z"/></svg><svg viewBox="0 0 24 24" id="telegram-footer" xmlns="http://www.w3.org/2000/svg"><path d="M3.581 11.687l4.022 1.508 1.557 5.032c.1.322.491.441.752.227l2.241-1.836a.666.666 0 01.816-.023l4.043 2.95c.279.203.673.05.743-.288l2.962-14.32a.475.475 0 00-.635-.54L3.576 10.796a.478.478 0 00.005.891zm5.328.706l7.86-4.866c.141-.087.287.105.165.218l-6.487 6.06a1.353 1.353 0 00-.416.809l-.221 1.645c-.03.22-.337.242-.397.03l-.85-3.002a.797.797 0 01.346-.895z"/></svg><svg viewBox="0 0 80 80" id="up-yellow" xmlns="http://www.w3.org/2000/svg"><circle cx="40" cy="40" r="40"/><path d="M40 51.667V28.333M28.333 40L40 28.334 51.667 40" stroke="#000" stroke-width="2" stroke-linecap="round" stroke-linejoin="round"/></svg><svg viewBox="0 0 24 24" id="viber-footer" xmlns="http://www.w3.org/2000/svg"><path fill-rule="evenodd" clip-rule="evenodd" d="M19.808 14.402l-.005.02c-.408 1.646-2.248 3.414-3.937 3.781l-.02.005a21.944 21.944 0 01-5.331.355L8.649 20.5c-.462.48-1.274.153-1.274-.512v-1.839c-1.626-.463-3.329-2.15-3.72-3.726l-.004-.02a16.073 16.073 0 010-6.933l.004-.02c.41-1.646 2.249-3.414 3.937-3.782l.02-.004c2.732-.52 5.502-.52 8.235 0l.019.004c1.69.368 3.529 2.136 3.937 3.782l.005.02c.504 2.3.504 4.633 0 6.933zm-4.255-9.257a20.388 20.388 0 00-7.647 0c-1.11.247-2.507 1.582-2.78 2.657a14.596 14.596 0 000 6.265c.273 1.074 1.67 2.41 2.78 2.657.05.01.087.052.087.102v3.045a.17.17 0 00.291.117l1.45-1.485 1.362-1.396a.106.106 0 01.077-.032 20.39 20.39 0 004.38-.354c1.11-.247 2.506-1.582 2.78-2.656.454-2.08.454-4.186 0-6.265-.273-1.075-1.669-2.411-2.78-2.657v.002zm.04 9.077c-.223.47-.545.862-1.011 1.112-.132.07-.29.092-.437.139-.17-.052-.333-.087-.484-.149-1.565-.648-3.005-1.484-4.145-2.766-.65-.73-1.157-1.552-1.586-2.423-.204-.412-.375-.842-.55-1.268-.16-.389.075-.79.323-1.084.231-.275.53-.486.854-.641.253-.121.501-.052.685.163a8.78 8.78 0 011.06 1.481c.182.33.132.732-.197.956-.08.055-.154.118-.229.18a.76.76 0 00-.172.18.494.494 0 00-.033.437c.407 1.117 1.094 1.986 2.22 2.454.18.074.362.162.569.138.348-.04.46-.421.704-.62.238-.195.542-.198.8-.036.256.163.504.337.752.512.243.173.484.342.708.538.216.19.29.438.168.695v.002zm-2.021-3.641a.352.352 0 01-.022-.001c-.157-.006-.242-.097-.26-.247-.012-.11-.021-.22-.047-.326a.923.923 0 00-.34-.532.895.895 0 00-.276-.133c-.126-.036-.256-.027-.382-.057-.136-.033-.211-.144-.19-.272a.245.245 0 01.259-.197c.794.057 1.36.467 1.442 1.4.005.065.013.135-.002.198a.205.205 0 01-.171.166l-.012.002.001-.001zm-.494-2.133a2.786 2.786 0 00-.773-.238c-.117-.019-.235-.03-.352-.047-.142-.02-.218-.11-.212-.25.006-.131.103-.225.245-.218.47.026.923.128 1.34.348.85.449 1.335 1.158 1.476 2.104.007.043.017.085.02.129.009.106.013.212.022.352-.003.026-.006.086-.02.143-.054.204-.366.23-.438.024a.612.612 0 01-.024-.197 2.47 2.47 0 00-.314-1.242 2.308 2.308 0 00-.97-.908zm2.624 2.924c-.164.002-.238-.135-.248-.281-.022-.29-.036-.583-.076-.871-.212-1.522-1.428-2.781-2.946-3.052-.228-.04-.462-.051-.693-.076-.146-.015-.338-.024-.37-.205-.027-.152.101-.274.246-.281.04-.002.08 0 .119 0 1.965.055.12.004.005 0 2.044.059 3.722 1.415 4.082 3.433.062.344.084.697.111 1.046.012.147-.071.286-.23.288z"/></svg><svg viewBox="0 0 80 80" id="video-icon" xmlns="http://www.w3.org/2000/svg"><path fill-rule="evenodd" clip-rule="evenodd" d="M0 40C0 17.909 17.909 0 40 0s40 17.909 40 40-17.909 40-40 40S0 62.091 0 40zm29.767-7.236c0-5.498 6.128-8.778 10.703-5.728l10.853 7.236c4.087 2.725 4.087 8.73 0 11.455L40.47 52.963c-4.575 3.05-10.703-.23-10.703-5.728V32.764z"/></svg><svg viewBox="0 0 32 32" id="vk-call" xmlns="http://www.w3.org/2000/svg"><path fill-rule="evenodd" clip-rule="evenodd" d="M2.25 2.25C0 4.498 0 8.12 0 15.36v1.28c0 7.24 0 10.861 2.25 13.11C4.498 32 8.12 32 15.36 32h1.28c7.24 0 10.861 0 13.11-2.25C32 27.502 32 23.88 32 16.64v-1.28c0-7.24 0-10.861-2.25-13.11C27.502 0 23.88 0 16.64 0h-1.28C8.12 0 4.499 0 2.25 2.25zM5.4 9.732c.174 8.32 4.334 13.32 11.627 13.32h.413v-4.76c2.68.267 4.707 2.227 5.52 4.76h3.787c-1.04-3.786-3.773-5.88-5.48-6.68 1.707-.986 4.107-3.386 4.68-6.64h-3.44c-.747 2.64-2.96 5.04-5.067 5.267V9.733H14v9.227c-2.133-.533-4.826-3.12-4.946-9.227H5.4z"/></svg><svg viewBox="0 0 24 24" id="vk-footer" xmlns="http://www.w3.org/2000/svg"><path d="M20.635 15.54a1.22 1.22 0 00-.06-.114c-.302-.546-.88-1.215-1.735-2.009l-.018-.018-.01-.01-.008-.008h-.01c-.387-.37-.633-.618-.736-.746-.188-.242-.23-.487-.127-.736.073-.188.345-.584.818-1.19.248-.321.445-.579.59-.773 1.049-1.393 1.503-2.284 1.364-2.671l-.054-.091c-.037-.055-.13-.105-.282-.15A1.431 1.431 0 0019.785 7l-2.617.018a.34.34 0 00-.182.005l-.118.027-.045.023-.037.027a.404.404 0 00-.1.096.62.62 0 00-.09.159 14.846 14.846 0 01-.973 2.044c-.224.376-.43.702-.618.977a4.698 4.698 0 01-.472.61c-.128.13-.243.234-.346.313-.103.079-.181.112-.236.1a6.696 6.696 0 01-.155-.037.605.605 0 01-.204-.222.996.996 0 01-.104-.355 3.92 3.92 0 01-.032-.368 7.76 7.76 0 01.004-.436c.006-.188.01-.315.01-.382 0-.23.004-.48.013-.75s.016-.483.023-.64c.006-.158.009-.324.009-.5s-.011-.314-.032-.414c-.021-.1-.053-.196-.095-.29a.49.49 0 00-.187-.218 1.05 1.05 0 00-.304-.123 6.049 6.049 0 00-1.227-.118c-1.127-.012-1.85.06-2.172.218a1.224 1.224 0 00-.345.272c-.11.134-.125.207-.046.219.364.054.621.184.773.39l.054.11c.043.078.085.218.128.417.042.2.07.421.081.664.03.442.03.82 0 1.136-.03.315-.059.56-.086.736a1.476 1.476 0 01-.232.627.157.157 0 01-.045.045.682.682 0 01-.246.046c-.085 0-.188-.043-.309-.127a2.18 2.18 0 01-.377-.35 4.68 4.68 0 01-.44-.623 10.87 10.87 0 01-.51-.945l-.145-.264a22.68 22.68 0 01-.372-.74 14.277 14.277 0 01-.418-.941.599.599 0 00-.219-.29L6.7 7.118a.965.965 0 00-.354-.136L3.855 7c-.255 0-.428.057-.519.173l-.036.054a.294.294 0 00-.027.145c0 .067.018.149.054.246.364.854.76 1.678 1.186 2.472.427.793.798 1.433 1.113 1.917.315.485.637.942.964 1.372.327.43.543.706.65.827.106.122.189.212.25.273l.227.218c.145.146.359.32.64.523.282.203.594.402.936.6.343.196.741.357 1.196.481.454.124.896.174 1.326.15h1.046c.211-.018.372-.085.481-.2l.036-.045a.6.6 0 00.068-.168.921.921 0 00.032-.25c-.006-.26.014-.495.06-.704a1.85 1.85 0 01.154-.473 1.16 1.16 0 01.35-.4.616.616 0 01.072-.032c.146-.048.317-.001.514.141.197.143.382.319.554.527.173.21.38.444.623.705.242.26.454.454.636.581l.182.11c.121.072.279.139.473.2.193.06.363.075.508.045l2.327-.036c.23 0 .409-.038.536-.114.127-.076.203-.16.227-.25a.704.704 0 00.005-.31 1.148 1.148 0 00-.064-.24z"/></svg><svg viewBox="0 0 18 18" id="whatsapp" xmlns="http://www.w3.org/2000/svg"><path d="M17 8.794c0 4.304-3.516 7.794-7.855 7.794a7.867 7.867 0 01-3.796-.97L1 17l1.418-4.182A7.712 7.712 0 011.29 8.794C1.29 4.489 4.807 1 9.145 1 13.485 1 17 4.49 17 8.794zM9.145 2.241c-3.641 0-6.603 2.94-6.603 6.553 0 1.434.467 2.762 1.258 3.842l-.825 2.433 2.537-.806a6.6 6.6 0 003.634 1.084c3.64 0 6.603-2.94 6.603-6.553s-2.962-6.553-6.604-6.553zm3.967 8.348c-.049-.08-.177-.128-.37-.223-.192-.095-1.139-.558-1.315-.621-.176-.064-.305-.096-.433.095s-.498.621-.61.749c-.112.128-.225.144-.417.048-.193-.095-.813-.297-1.548-.948a5.76 5.76 0 01-1.071-1.323c-.113-.19-.012-.294.084-.39.087-.085.193-.222.289-.334.096-.112.128-.191.192-.319.065-.127.033-.239-.016-.334-.048-.096-.433-1.036-.594-1.419-.16-.382-.32-.318-.433-.318-.112 0-.24-.016-.369-.016a.71.71 0 00-.513.239c-.177.191-.674.653-.674 1.593s.69 1.849.786 1.976c.096.127 1.332 2.119 3.29 2.884 1.957.765 1.957.51 2.31.477.352-.031 1.139-.461 1.3-.907.16-.447.16-.83.112-.909z"/></svg><svg viewBox="0 0 24 24" id="whatsapp-footer" xmlns="http://www.w3.org/2000/svg"><path d="M20.727 11.775c0 4.696-3.836 8.503-8.568 8.503a8.583 8.583 0 01-4.142-1.058l-4.744 1.508 1.546-4.562a8.413 8.413 0 01-1.23-4.39c0-4.696 3.837-8.503 8.57-8.503 4.733 0 8.568 3.807 8.568 8.502zM12.16 4.627c-3.973 0-7.204 3.207-7.204 7.148 0 1.565.51 3.013 1.372 4.191l-.9 2.655 2.768-.88a7.199 7.199 0 003.964 1.183c3.972 0 7.204-3.207 7.204-7.148 0-3.942-3.232-7.149-7.204-7.149zm4.327 9.107c-.053-.087-.193-.14-.403-.243-.21-.105-1.243-.61-1.435-.678-.193-.07-.333-.105-.473.104-.14.209-.542.678-.665.817-.123.14-.245.156-.455.052-.21-.104-.887-.324-1.69-1.034-.623-.552-1.045-1.234-1.168-1.443-.122-.209-.012-.321.092-.425.095-.094.21-.244.316-.365.105-.122.14-.209.21-.348.07-.139.035-.26-.018-.365-.052-.104-.473-1.13-.648-1.547-.175-.417-.35-.348-.472-.348-.123 0-.263-.017-.403-.017a.775.775 0 00-.56.26c-.193.21-.735.714-.735 1.739 0 1.025.752 2.016.858 2.155.105.139 1.452 2.312 3.588 3.146 2.135.835 2.135.556 2.52.521.385-.034 1.242-.504 1.418-.99.175-.487.175-.905.123-.991z"/></svg><svg viewBox="0 0 24 24" id="youtube-footer" xmlns="http://www.w3.org/2000/svg"><path d="M20.717 10.466a19.844 19.844 0 00-.088-1.396 12.542 12.542 0 00-.223-1.509 2.371 2.371 0 00-.719-1.258A2.217 2.217 0 0018.4 5.71c-1.532-.17-3.847-.255-6.945-.255-3.097 0-5.412.085-6.944.255-.49.055-.917.252-1.283.593-.366.341-.604.76-.714 1.258-.103.444-.181.946-.233 1.509a19.833 19.833 0 00-.088 1.396c-.007.368-.01.88-.01 1.534 0 .655.003 1.166.01 1.534.007.368.036.834.088 1.396.052.563.126 1.066.223 1.509.11.497.35.917.719 1.258.37.34.799.538 1.288.593 1.532.17 3.847.256 6.945.256 3.098 0 5.412-.086 6.944-.256.49-.055.917-.252 1.283-.593.366-.341.604-.76.714-1.258a11.2 11.2 0 00.233-1.509c.052-.562.08-1.028.088-1.396.007-.368.01-.88.01-1.534 0-.655-.003-1.166-.01-1.534zm-5.599 2.086L9.82 15.825a.595.595 0 01-.352.102.723.723 0 01-.321-.082.608.608 0 01-.342-.572V8.727c0-.259.114-.45.342-.572a.63.63 0 01.673.02l5.298 3.273c.207.116.31.3.31.552 0 .252-.103.437-.31.552z"/></svg></svg>