<svg width="250" height="80" viewBox="0 0 250 80" fill="none" xmlns="http://www.w3.org/2000/svg">
<path d="M160.027 31.8402C162.994 31.8402 164.458 33.068 164.458 35.5332C164.458 38.3102 162.487 39.4502 160.164 39.4502C159.11 39.4502 157.968 39.3625 156.827 39.2261V31.9279C158.837 31.8792 159.891 31.8402 160.027 31.8402ZM156.827 46.1541C157.607 46.2418 158.798 46.2905 160.389 46.2905C163.951 46.2905 166.829 45.2381 168.976 43.1919C171.123 41.0872 172.216 38.5343 172.216 35.5722C172.216 32.5223 171.211 29.9694 169.152 28.0109C167.103 26.0036 163.814 25 159.296 25C158.427 25 156.69 25 154.133 25.0487C151.625 25.0877 150.073 25.0877 149.527 25.0877V56.9991H156.827V46.1541Z" fill="#2229DA"/>
<path d="M115.214 56.9992V36.8098L124.066 49.1164H125.12L134.02 36.6734V56.9992H141.329V25.0879H134.43L125.12 38.5345L115.263 25.0879H107.905V56.9992H115.214Z" fill="#2229DA"/>
<path d="M73.5829 57.0002V36.8108L82.4342 49.1174H83.4882L92.3884 36.6744V57.0002H99.688V25.0889H92.7982L83.4882 38.5355L73.6219 25.0889H66.2734V57.0002H73.5829Z" fill="#2229DA"/>
<path fill-rule="evenodd" clip-rule="evenodd" d="M185.342 47.43L180.531 40.999L175.72 47.43C174.978 48.4239 174.529 49.6614 174.529 51.006C174.529 54.319 177.223 56.9986 180.531 56.9986C183.839 56.9986 186.523 54.319 186.523 51.006C186.523 49.6614 186.084 48.4239 185.342 47.43Z" fill="#2229DA"/>
</svg>
