<svg width="466" height="367" viewBox="0 0 466 367" fill="none" xmlns="http://www.w3.org/2000/svg">
<path fill-rule="evenodd" clip-rule="evenodd" d="M176.057 0.673992C158.577 3.63664 143.648 16.0756 137.338 32.9298C135.372 38.1829 135.281 39.7412 134.987 73.1655L134.681 107.936L87.6261 108.237L40.5703 108.539L34.1058 110.897C17.1289 117.088 4.04236 131.986 1.04403 148.534C-0.526135 157.196 -0.248511 262.63 1.36352 270.239C4.86977 286.788 16.8221 300.476 33.0608 306.539L35.564 307.473V331.66C35.564 358.723 35.827 360.188 41.4687 364.493C44.1193 366.516 45.7559 367.049 49.1611 366.997C51.5405 366.961 54.4105 366.437 55.5392 365.834C56.667 365.229 72.0755 352.271 89.7797 337.038L121.969 309.34H182.367C221.511 309.34 244.665 308.995 248.165 308.36C265.654 305.188 281.702 290.008 286.259 272.324C287.341 268.123 287.7 262.164 287.7 248.417V230.106L310.229 230.14L332.757 230.174L367.805 262.699C387.082 280.587 403.997 295.736 405.395 296.362C411.73 299.199 419.065 296.61 422.822 290.212C424.583 287.211 424.708 285.357 424.976 258.182L425.261 229.338L431.386 227.476C446.211 222.971 458.502 210.651 464.106 194.677C465.401 190.986 465.611 181.828 465.877 117.469C466.209 37.223 466.261 38.1392 460.712 27.142C455.264 16.3415 443.466 6.21586 431.655 2.2004L425.602 0.143028L303.175 0.0109703C235.84 -0.0618891 178.636 0.235924 176.057 0.673992ZM425.602 29.6201C430.131 31.6839 435.451 37.4798 437.097 42.1456C438.113 45.0217 438.345 58.7384 438.345 115.807C438.345 185.819 438.342 185.941 436.389 189.589C431.862 198.046 426.863 200.996 415.413 201.971C405.975 202.775 402.567 204.165 399.504 208.462C397.477 211.305 397.364 212.318 396.929 231.555L396.474 251.675L371.047 228.082C357.062 215.106 344.773 204.003 343.739 203.408C342.344 202.607 320.641 202.21 259.483 201.873L177.106 201.417L172.842 198.909C167.834 195.964 165.079 192.404 163.343 186.635C161.498 180.499 161.491 49.3186 163.336 43.1856C165.1 37.3177 168.769 32.9361 174.173 30.2422L178.829 27.9207L300.395 27.9407C416.032 27.9598 422.138 28.0418 425.602 29.6201ZM217.086 76.2984C214.798 76.8212 212.202 78.3558 210.318 80.3012C207.718 82.9851 207.207 84.2374 206.895 88.7027C206.589 93.0834 206.879 94.4605 208.656 97.0442C209.828 98.7473 212.212 100.898 213.956 101.826C216.977 103.431 221.091 103.512 300.01 103.512H382.89L386.884 101.463C396.641 96.4577 396.657 83.3321 386.914 77.6053C383.772 75.7593 382.676 75.7329 302.264 75.5926C254.693 75.5097 219.253 75.803 217.086 76.2984ZM216.537 133.54C210.283 135.453 206.704 140.225 206.695 146.665C206.688 151.961 208.897 156.003 213.226 158.612C216.189 160.399 217.86 160.434 300.605 160.434C384.773 160.434 384.969 160.429 387.533 158.528C396.356 151.988 396.356 141.559 387.533 135.017C384.973 133.119 384.631 133.111 301.97 132.952C256.324 132.865 217.879 133.13 216.537 133.54ZM134.78 161.3C134.78 175.801 135.197 188.327 135.773 191.127C138.466 204.21 148.778 217.603 161.182 224.125C171.908 229.764 174.951 230.072 220.183 230.09L260.53 230.106L260.234 248.093C259.951 265.313 259.841 266.253 257.663 270.135C254.681 275.449 248.885 279.78 243.093 281.023C239.998 281.687 217.767 282.018 176.194 282.018C128.347 282.018 113.34 282.281 111.384 283.156C109.984 283.783 98.5981 293.062 86.0823 303.777L63.3263 323.261L62.8712 306.92C62.4934 293.363 62.143 290.164 60.8104 288.134C58.3473 284.379 55.1842 282.754 47.8668 281.481C36.6344 279.526 30.078 273.486 28.2092 263.37C27.6522 260.358 27.4037 238.104 27.5648 205.803C27.8087 156.749 27.9434 152.882 29.5245 149.263C31.4879 144.77 38.2055 138.471 42.3025 137.282C43.8535 136.832 65.2942 136.427 89.9508 136.381L134.78 136.299V161.3Z" fill="#DDDDDD"/>
</svg>
