<svg width="20" height="24" viewBox="0 0 20 24" fill="none" xmlns="http://www.w3.org/2000/svg">
<path d="M9.99998 -0.000366211C4.48631 -0.000366211 0 4.48548 0 9.99962C0 12.6837 1.0508 15.2047 2.95509 17.0943L9.64453 23.8512C9.73828 23.9464 9.8662 23.9996 9.99998 23.9996C10.1338 23.9996 10.2617 23.9464 10.3554 23.8512L17.042 17.0978C18.9492 15.2047 20 12.6837 20 9.99962C20 4.48548 15.5137 -0.000366211 9.99998 -0.000366211ZM9.99998 13.9996C7.79391 13.9996 6 12.2052 6 9.99967C6 7.79406 7.79391 5.99963 9.99998 5.99963C12.2061 5.99963 14 7.79406 14 9.99962C14 12.2052 12.2061 13.9996 9.99998 13.9996Z" fill="black"/>
</svg>
