<svg width="190" height="60" viewBox="0 0 190 60" fill="none" xmlns="http://www.w3.org/2000/svg">
<path fill-rule="evenodd" clip-rule="evenodd" d="M184.871 1.30762C183.703 1.32409 182.559 1.34929 182.329 1.36349C181.933 1.38787 181.9 1.47733 181.703 3.07754C181.476 4.91487 180.846 7.00519 180.212 8.02178C179.343 9.41728 176.125 12.2195 175.799 11.8648C175.761 11.8236 175.908 10.0861 176.127 8.0036C176.345 5.9211 176.577 3.57766 176.643 2.79577L176.762 1.37431L175.424 1.31679C173.315 1.22593 169.108 1.22137 169.021 1.30966C168.977 1.35389 168.854 2.39765 168.746 3.62936C168.566 5.69053 168.12 10.3677 166.688 25.2059C166.392 28.2651 166.178 30.7897 166.212 30.8159C166.28 30.8685 169.522 30.8664 172.251 30.8122L173.982 30.7777L174.074 29.8956C174.124 29.4104 174.323 27.3871 174.515 25.3993C174.884 21.588 174.945 21.3756 175.915 20.499C176.641 19.8427 176.903 20.1085 177.708 22.3171C178.323 24.0042 180.355 29.3516 180.807 30.4712C180.975 30.8881 180.991 30.8912 182.711 30.8518C183.665 30.8298 185.554 30.8234 186.909 30.8373C189.791 30.8673 189.663 31.0209 188.725 28.6651C188.395 27.8384 187.668 25.9694 187.107 24.5117C186.319 22.4615 184.468 17.9028 183.575 15.8143C183.526 15.7008 184.002 15.0641 184.632 14.3996C186.587 12.3375 187.721 10.3871 188.531 7.69253C188.975 6.21843 189.626 2.7542 189.626 1.87016V1.36808L188.31 1.3228C187.586 1.29786 186.038 1.29097 184.871 1.30762ZM152.687 1.04443C148.979 1.54691 145.978 3.74871 144.183 7.28295C143.007 9.59737 142.512 12.0696 142.058 17.8841C141.808 21.0886 141.919 23.3308 142.401 24.8099C143.704 28.8117 147.279 31.3736 151.413 31.2686C154.748 31.1839 157.042 30.472 159.063 28.8941C160.902 27.459 162.357 25.3391 163.125 22.973C164.207 19.6386 164.891 10.1385 164.217 7.78931C163.319 4.65782 161.332 2.43523 158.542 1.43978C157.207 0.963216 154.591 0.786656 152.687 1.04443ZM125.519 1.27424C123.187 1.24538 121.104 1.28004 120.891 1.35122C120.571 1.45807 120.504 1.60854 120.506 2.22041C120.508 3.04035 120.074 7.77249 118.204 27.3269C118.064 28.7949 117.908 30.1798 117.859 30.4044L117.768 30.813L119.943 30.8167C125.596 30.8264 128.524 30.7908 129.899 30.6961C134.7 30.3653 137.735 28.1995 139.122 24.1158C139.362 23.4081 139.439 22.676 139.44 21.104C139.44 19.179 139.405 18.9532 138.965 18.0148C138.685 17.4196 138.131 16.6554 137.62 16.1596L136.75 15.3166L137.598 14.6059C140.293 12.3477 140.822 6.83302 138.608 4.07962C137.982 3.30081 136.783 2.50116 135.502 2.00759C134.428 1.59434 130.998 1.34231 125.519 1.27424ZM104.2 1.03925C101.757 1.46104 99.593 2.6184 97.9015 4.40807C95.3017 7.15864 94.4369 9.83128 93.8457 16.9417C93.6261 19.5836 93.6231 22.5921 93.8387 23.7973C94.2202 25.9267 95.9554 28.6071 97.6513 29.6863C99.315 30.7451 100.304 31.0451 102.517 31.1632C105.438 31.319 107.418 30.9422 109.313 29.8704C111.788 28.4704 113.838 25.9366 114.809 23.0787C115.421 21.2756 116.257 14.4486 116.258 11.2483C116.259 6.29124 114.172 2.92415 110.191 1.45879C108.908 0.986795 105.775 0.767238 104.2 1.03925ZM82.9708 0.891976C80.9333 0.921593 79.5128 1.238 77.7909 2.04561C75.9776 2.89611 74.1831 4.62093 73.0779 6.57582C72.182 8.16044 71.4748 10.077 71.7005 10.309C71.781 10.3919 73.5033 10.6037 75.5282 10.7799L79.2095 11.1003L79.4009 10.3861C79.8073 8.87017 81.6383 7.70078 83.061 8.04872C84.653 8.43806 84.4657 10.8846 82.786 11.6353C82.4244 11.797 81.5549 11.9177 80.6227 11.9353C79.7654 11.9517 78.9945 12.047 78.9096 12.1471C78.8247 12.2473 78.6708 13.3762 78.5675 14.6557C78.4641 15.9352 78.3323 17.4329 78.2742 17.9838L78.1689 18.9856L79.7632 18.9524C81.621 18.9138 82.5483 19.1579 83.1517 19.8446C83.5068 20.2488 83.5652 20.4828 83.5652 21.5015C83.5652 22.5827 83.5202 22.7336 83.0557 23.2066C82.3183 23.9575 81.6848 24.2034 80.6091 24.1559C79.6173 24.1123 78.8605 23.7826 78.3381 23.1665C78.0203 22.7916 77.3663 21.0286 77.3663 20.5466C77.3663 20.3244 77.2646 20.282 76.8993 20.3518C75.6199 20.5961 74.7779 20.7056 72.6283 20.9071C69.5292 21.1977 69.6744 21.1302 69.8074 22.2165C70.2885 26.147 72.5894 29.4675 75.5476 30.5C78.8389 31.6489 83.3597 31.4397 86.1535 30.0092C88.2373 28.9423 90.1133 26.7697 90.8653 24.5527C91.348 23.1297 91.5358 21.0313 91.3077 19.6112C91.0684 18.1222 90.5589 17.1383 89.5121 16.1434C89.0902 15.7425 88.7451 15.3437 88.7451 15.2574C88.7451 15.1708 88.9713 14.9759 89.2478 14.8243C89.8281 14.5059 90.7746 13.416 91.213 12.561C91.7286 11.5555 91.9679 10.3289 91.9699 8.67945C91.9745 5.13765 90.4856 2.80504 87.4751 1.63722C85.9955 1.06333 84.7994 0.86541 82.9708 0.891976ZM67.185 1.26744C65.3683 1.25137 63.8118 1.30577 63.7262 1.38843C63.5777 1.53177 62.1516 5.16322 61.3241 7.50555C60.7819 9.03998 60.0566 10.6245 59.9493 10.5092C59.8998 10.4562 59.37 8.38229 58.7718 5.90058C58.1735 3.41869 57.6609 1.36419 57.6324 1.33498C57.5403 1.24007 49.7107 1.31037 49.5422 1.40748C49.4436 1.46435 49.5113 1.93733 49.7132 2.60196C49.8972 3.20713 50.3184 4.61242 50.6494 5.72474C50.9804 6.83706 51.5359 8.6969 51.8839 9.85773C53.7239 15.9943 54.991 20.2758 55.0666 20.6116C55.1136 20.8205 54.9422 21.4537 54.6827 22.0291C54.0853 23.354 53.6216 23.6023 51.8956 23.5222L50.6261 23.4632L50.5096 24.2358C50.2983 25.6371 49.8016 30.7797 49.8707 30.851C50.0368 31.0226 54.5143 30.8162 55.5806 30.5877C56.8958 30.306 58.3484 29.4884 59.2446 28.5253C60.2013 27.4972 60.9136 26.1363 63.4998 20.396C68.7677 8.70316 70.5602 4.73837 71.2328 3.29363C71.6171 2.46798 71.9316 1.68639 71.9316 1.55693C71.9316 1.29508 72.2097 1.31216 67.185 1.26744ZM41.6406 1.26661C40.4947 1.28234 39.7481 1.36903 39.6688 1.49564C39.5985 1.60785 39.4937 2.25525 39.4358 2.93441C39.2986 4.54546 38.7546 6.473 38.0812 7.73581C37.2599 9.27559 34.0112 12.2886 33.6223 11.8713C33.5863 11.8327 33.7756 9.44213 34.0431 6.55904C34.3106 3.67594 34.5191 1.31012 34.5066 1.30184C34.4318 1.25233 27.7676 1.23682 27.3335 1.28514L26.8072 1.34378L26.5202 3.87832C26.3622 5.27228 26.0861 8.07945 25.9064 10.1164C25.7266 12.1534 25.3531 16.0275 25.0764 18.7257C24.7996 21.4238 24.4511 25.0267 24.3017 26.7321C24.1524 28.4375 23.9934 30.0571 23.9486 30.3315L23.8669 30.8299L26.5428 30.8573C28.0145 30.8723 29.8007 30.8673 30.5121 30.8461L31.8055 30.8074L31.9212 28.9519C31.9847 27.9314 32.1749 25.8457 32.3439 24.3168C32.678 21.2951 32.7789 21.0594 34.0327 20.3715C34.5185 20.105 34.5373 20.1082 34.7773 20.4992C34.9126 20.7198 35.1869 21.4063 35.3868 22.0246C35.5867 22.6431 36.4123 24.8963 37.2214 27.0319L38.6924 30.915L39.9847 30.874C40.6953 30.8515 42.6107 30.8249 44.2411 30.8147C45.8713 30.8048 47.2351 30.7676 47.2716 30.7325C47.3079 30.6972 46.7931 29.3432 46.1272 27.7234C45.4615 26.1038 44.4674 23.6112 43.9184 22.1847C42.6939 19.0034 41.7579 16.6858 41.5319 16.2741C41.2517 15.7642 41.3201 15.6167 42.3267 14.5633C45.3 11.4514 46.7935 7.76866 47.3687 2.13164L47.4434 1.40008L45.464 1.32064C44.3754 1.27695 42.6548 1.25268 41.6406 1.26661ZM155.438 8.53674C156.711 9.39611 156.873 10.5792 156.435 15.858C155.977 21.3872 155.436 22.994 153.767 23.7844C153.001 24.1472 151.495 24.0398 150.932 23.5823C149.967 22.7973 149.798 22.2185 149.819 19.7538C149.839 17.3357 150.247 13.3835 150.661 11.5842C150.925 10.4392 151.482 9.3294 152.033 8.85048C152.985 8.02311 154.473 7.88595 155.438 8.53674ZM18.9152 1.24928C17.9188 1.25135 17.0542 1.30077 16.9939 1.359C16.8867 1.46266 16.3283 2.94309 15.3713 5.66047C15.1081 6.40794 14.4605 8.20362 13.9323 9.65087C13.404 11.0981 12.5511 13.5254 12.0368 15.0447C11.5227 16.5642 11.0382 17.8039 10.9604 17.7997C10.7872 17.7905 10.8344 18.028 9.69211 11.415C9.17768 8.43675 8.59788 5.13481 8.40393 4.07739C8.20981 3.01996 8.03726 1.97891 8.02027 1.76392C7.99242 1.40937 7.90241 1.36858 7.05545 1.32548C5.2216 1.23235 0.182821 1.31408 0.0534084 1.43905C-0.0953653 1.58273 0.0347275 2.41002 0.854002 6.53038C2.03349 12.4614 2.51955 14.9273 3.14658 18.1618C3.91269 22.1132 5.127 28.4143 5.40043 29.8573L5.59523 30.8857L6.96222 30.8537C7.71407 30.836 9.39915 30.8329 10.7069 30.8466C13.8773 30.88 13.7985 30.8991 14.03 30.0352C14.1363 29.6385 14.7772 27.9017 15.4544 26.1758C16.1315 24.4497 17.5063 20.9396 18.5097 18.3754C19.5129 15.8112 20.5883 13.0649 20.8994 12.2724C21.2104 11.4798 21.7458 10.1065 22.0894 9.22057C22.4328 8.33459 23.0198 6.84721 23.3936 5.91526C24.2259 3.84041 24.8879 1.94529 24.8879 1.63792C24.8879 1.39112 22.594 1.24195 18.9152 1.24928ZM130.901 8.1087C131.789 8.40733 132.053 8.88903 132.053 10.2116C132.053 11.2601 132.019 11.3507 131.416 11.9319C130.884 12.444 130.594 12.5682 129.661 12.6834C129.046 12.7591 128.303 12.8085 128.01 12.7929L127.478 12.7645L127.577 11.3419C127.787 8.34482 127.851 8.05209 128.316 7.94504C128.969 7.79482 130.2 7.87296 130.901 8.1087ZM107.511 8.80878C108.514 9.88424 108.59 10.6266 108.19 15.4635C107.724 21.0996 107.177 22.8624 105.643 23.664C104.723 24.145 103.348 24.0831 102.635 23.5283C101.404 22.5689 101.216 20.6657 101.816 15.2034C102.288 10.9071 102.756 9.56605 104.127 8.58223C104.702 8.16917 104.943 8.11022 105.873 8.15563C106.869 8.20427 106.994 8.25402 107.511 8.80878ZM130.601 19.0605C131.406 19.4463 131.786 20.1314 131.785 21.198C131.784 22.2613 131.21 23.3832 130.446 23.8178C129.929 24.1115 128.006 24.3883 126.895 24.3291L126.303 24.2975L126.384 23.3067C126.646 20.1055 126.814 18.8767 127.003 18.7642C127.364 18.5495 129.985 18.7654 130.601 19.0605Z" fill="black"/>
<path d="M8.14567 35.9505V43.6455H5.96909V40.6445H3.00104V43.6455H0.82446V35.9505H3.00104V38.8417H5.96909V35.9505H8.14567ZM15.1086 42.1505H11.8547L11.2501 43.6455H9.02956L12.4263 35.9505H14.5699L17.9777 43.6455H15.7132L15.1086 42.1505ZM14.471 40.5455L13.4816 38.0831L12.4923 40.5455H14.471ZM27.212 41.9196V45.1955H25.2223V43.6455H20.2975V45.1955H18.2968V41.9196H18.5717C19.026 41.9123 19.3448 41.6008 19.528 40.9852C19.7186 40.3697 19.8358 39.4829 19.8798 38.325L19.9677 35.9505H26.1677V41.9196H27.212ZM21.7816 38.5119C21.7522 39.3327 21.6863 40.0289 21.5837 40.6005C21.4811 41.1721 21.3235 41.6118 21.111 41.9196H24.0241V37.6764H21.8145L21.7816 38.5119ZM34.4308 41.9636V43.6455H28.2528V35.9505H34.2878V37.6324H30.4074V38.9296H33.8262V40.5565H30.4074V41.9636H34.4308ZM42.8616 40.6994H41.9492V43.6455H39.8166V40.6994H38.9042L37.3982 43.6455H34.8809L37.0684 39.6111L35.0128 35.9505H37.2993L38.8383 38.9406H39.8166V35.9505H41.9492V38.9406H42.8836L44.4556 35.9505H46.7311L44.6755 39.6111L46.863 43.6455H44.3567L42.8616 40.6994ZM54.8866 35.9505V43.6455H52.71V40.6445H49.7419V43.6455H47.5654V35.9505H49.7419V38.8417H52.71V35.9505H54.8866ZM60.4644 38.4019C61.4098 38.4019 62.139 38.6145 62.6519 39.0395C63.1649 39.4572 63.4214 40.0802 63.4214 40.9083C63.4214 41.7951 63.1356 42.4729 62.564 42.942C61.9924 43.411 61.1972 43.6455 60.1786 43.6455H56.5399V35.9505H58.6835V38.4019H60.4644ZM60.0357 42.0845C60.4021 42.0845 60.6916 41.9856 60.9041 41.7877C61.1239 41.5899 61.2339 41.3114 61.2339 40.9523C61.2339 40.2854 60.8345 39.9519 60.0357 39.9519H58.6835V42.0845H60.0357ZM64.2679 35.9505H66.4115V43.6455H64.2679V35.9505ZM74.2475 41.9636V43.6455H68.0695V35.9505H74.1046V37.6324H70.2241V38.9296H73.6429V40.5565H70.2241V41.9636H74.2475ZM84.3149 37.6764H80.8302V43.6455H78.6866V35.9505H84.3259L84.3149 37.6764ZM88.8171 35.9505C89.5134 35.9505 90.118 36.0678 90.631 36.3023C91.144 36.5295 91.5397 36.8593 91.8182 37.2917C92.0967 37.7167 92.2359 38.2187 92.2359 38.7977C92.2359 39.3766 92.0967 39.8786 91.8182 40.3037C91.5397 40.7287 91.144 41.0585 90.631 41.293C90.118 41.5202 89.5134 41.6338 88.8171 41.6338H87.476V43.6455H85.2995V35.9505H88.8171ZM88.6852 39.9189C89.1323 39.9189 89.4694 39.8237 89.6966 39.6331C89.9238 39.4353 90.0374 39.1568 90.0374 38.7977C90.0374 38.4386 89.9238 38.1601 89.6966 37.9622C89.4694 37.7644 89.1323 37.6654 88.6852 37.6654H87.476V39.9189H88.6852ZM100.36 35.9505L97.1725 41.8977C96.8354 42.5352 96.4214 43.0189 95.9304 43.3487C95.4467 43.6785 94.9153 43.8434 94.3364 43.8434C93.9113 43.8434 93.457 43.7481 92.9733 43.5576L93.4899 41.9526C93.7904 42.0406 94.0469 42.0845 94.2594 42.0845C94.472 42.0845 94.6589 42.0369 94.8201 41.9416C94.9886 41.8464 95.1425 41.6961 95.2818 41.4909L92.2917 35.9505H94.5892L96.3811 39.6661L98.2388 35.9505H100.36ZM105.84 39.6441C106.265 39.8054 106.599 40.0472 106.84 40.3697C107.082 40.6921 107.203 41.0622 107.203 41.4799C107.203 41.9563 107.042 42.3703 106.719 42.7221C106.397 43.0739 105.961 43.345 105.411 43.5356C104.862 43.7188 104.257 43.8104 103.597 43.8104C103.077 43.8104 102.546 43.7481 102.004 43.6235C101.469 43.4989 100.956 43.3121 100.465 43.0629L101.113 41.5459C101.458 41.7218 101.824 41.8573 102.212 41.9526C102.608 42.0406 102.989 42.0845 103.356 42.0845C103.839 42.0845 104.235 42.0076 104.543 41.8537C104.851 41.6925 105.005 41.4689 105.005 41.1831C105.005 40.9559 104.909 40.7874 104.719 40.6775C104.528 40.5675 104.272 40.5126 103.949 40.5126H101.982V38.9186H103.773C104.067 38.9186 104.294 38.86 104.455 38.7427C104.616 38.6255 104.697 38.4679 104.697 38.27C104.697 38.0209 104.572 37.8303 104.323 37.6984C104.074 37.5592 103.751 37.4895 103.356 37.4895C103.033 37.4895 102.692 37.5372 102.333 37.6324C101.974 37.7204 101.633 37.8486 101.311 38.0172L100.673 36.3683C101.494 35.9725 102.396 35.7747 103.378 35.7747C104.008 35.7747 104.591 35.8663 105.125 36.0495C105.668 36.2254 106.097 36.4819 106.412 36.819C106.734 37.1561 106.895 37.5555 106.895 38.0172C106.895 38.3763 106.8 38.6987 106.61 38.9846C106.426 39.263 106.17 39.4829 105.84 39.6441ZM112.162 43.7994C111.348 43.7994 110.615 43.6272 109.963 43.2827C109.318 42.9383 108.809 42.4619 108.435 41.8537C108.069 41.2454 107.885 40.5602 107.885 39.798C107.885 39.0359 108.069 38.3506 108.435 37.7424C108.809 37.1341 109.318 36.6577 109.963 36.3133C110.615 35.9689 111.348 35.7966 112.162 35.7966C112.975 35.7966 113.704 35.9689 114.349 36.3133C115.001 36.6577 115.511 37.1341 115.877 37.7424C116.251 38.3506 116.438 39.0359 116.438 39.798C116.438 40.5602 116.251 41.2454 115.877 41.8537C115.511 42.4619 115.001 42.9383 114.349 43.2827C113.704 43.6272 112.975 43.7994 112.162 43.7994ZM112.162 41.9966C112.55 41.9966 112.902 41.905 113.217 41.7218C113.532 41.5386 113.781 41.2821 113.964 40.9523C114.148 40.6152 114.239 40.2304 114.239 39.798C114.239 39.3656 114.148 38.9846 113.964 38.6548C113.781 38.3177 113.532 38.0575 113.217 37.8743C112.902 37.6911 112.55 37.5995 112.162 37.5995C111.773 37.5995 111.421 37.6911 111.106 37.8743C110.791 38.0575 110.542 38.3177 110.359 38.6548C110.176 38.9846 110.084 39.3656 110.084 39.798C110.084 40.2304 110.176 40.6152 110.359 40.9523C110.542 41.2821 110.791 41.5386 111.106 41.7218C111.421 41.905 111.773 41.9966 112.162 41.9966ZM124.824 35.9505V43.6455H122.669V37.6764H119.745V43.6455H117.602V35.9505H124.824ZM132.647 41.9636V43.6455H126.469V35.9505H132.504V37.6324H128.623V38.9296H132.042V40.5565H128.623V41.9636H132.647ZM137.404 35.9505C138.101 35.9505 138.705 36.0678 139.218 36.3023C139.731 36.5295 140.127 36.8593 140.406 37.2917C140.684 37.7167 140.823 38.2187 140.823 38.7977C140.823 39.3766 140.684 39.8786 140.406 40.3037C140.127 40.7287 139.731 41.0585 139.218 41.293C138.705 41.5202 138.101 41.6338 137.404 41.6338H136.063V43.6455H133.887V35.9505H137.404ZM137.273 39.9189C137.72 39.9189 138.057 39.8237 138.284 39.6331C138.511 39.4353 138.625 39.1568 138.625 38.7977C138.625 38.4386 138.511 38.1601 138.284 37.9622C138.057 37.7644 137.72 37.6654 137.273 37.6654H136.063V39.9189H137.273ZM147.987 41.9636V43.6455H141.809V35.9505H147.844V37.6324H143.964V38.9296H147.383V40.5565H143.964V41.9636H147.987ZM154.834 39.6221C155.288 39.7687 155.632 39.9959 155.867 40.3037C156.109 40.6115 156.23 40.9926 156.23 41.4469C156.23 42.1285 155.962 42.6671 155.427 43.0629C154.9 43.4513 154.148 43.6455 153.174 43.6455H149.227V35.9505H152.965C153.888 35.9505 154.603 36.1264 155.108 36.4782C155.621 36.8226 155.878 37.3137 155.878 37.9512C155.878 38.325 155.786 38.6548 155.603 38.9406C155.427 39.2264 155.171 39.4536 154.834 39.6221ZM151.371 39.0285H152.756C153.372 39.0285 153.679 38.7757 153.679 38.27C153.679 37.7644 153.372 37.5115 152.756 37.5115H151.371V39.0285ZM153.086 42.0845C153.716 42.0845 154.031 41.817 154.031 41.2821C154.031 40.7617 153.716 40.5016 153.086 40.5016H151.371V42.0845H153.086ZM161.189 43.7994C160.376 43.7994 159.643 43.6272 158.99 43.2827C158.346 42.9383 157.836 42.4619 157.462 41.8537C157.096 41.2454 156.913 40.5602 156.913 39.798C156.913 39.0359 157.096 38.3506 157.462 37.7424C157.836 37.1341 158.346 36.6577 158.99 36.3133C159.643 35.9689 160.376 35.7966 161.189 35.7966C162.003 35.7966 162.732 35.9689 163.377 36.3133C164.029 36.6577 164.538 37.1341 164.905 37.7424C165.278 38.3506 165.465 39.0359 165.465 39.798C165.465 40.5602 165.278 41.2454 164.905 41.8537C164.538 42.4619 164.029 42.9383 163.377 43.2827C162.732 43.6272 162.003 43.7994 161.189 43.7994ZM161.189 41.9966C161.577 41.9966 161.929 41.905 162.244 41.7218C162.559 41.5386 162.809 41.2821 162.992 40.9523C163.175 40.6152 163.267 40.2304 163.267 39.798C163.267 39.3656 163.175 38.9846 162.992 38.6548C162.809 38.3177 162.559 38.0575 162.244 37.8743C161.929 37.6911 161.577 37.5995 161.189 37.5995C160.801 37.5995 160.449 37.6911 160.134 37.8743C159.819 38.0575 159.569 38.3177 159.386 38.6548C159.203 38.9846 159.111 39.3656 159.111 39.798C159.111 40.2304 159.203 40.6152 159.386 40.9523C159.569 41.2821 159.819 41.5386 160.134 41.7218C160.449 41.905 160.801 41.9966 161.189 41.9966ZM171.174 39.6441C171.599 39.8054 171.933 40.0472 172.175 40.3697C172.416 40.6921 172.537 41.0622 172.537 41.4799C172.537 41.9563 172.376 42.3703 172.054 42.7221C171.731 43.0739 171.295 43.345 170.746 43.5356C170.196 43.7188 169.591 43.8104 168.932 43.8104C168.411 43.8104 167.88 43.7481 167.338 43.6235C166.803 43.4989 166.29 43.3121 165.799 43.0629L166.447 41.5459C166.792 41.7218 167.158 41.8573 167.547 41.9526C167.942 42.0406 168.323 42.0845 168.69 42.0845C169.174 42.0845 169.569 42.0076 169.877 41.8537C170.185 41.6925 170.339 41.4689 170.339 41.1831C170.339 40.9559 170.243 40.7874 170.053 40.6775C169.862 40.5675 169.606 40.5126 169.283 40.5126H167.316V38.9186H169.108C169.401 38.9186 169.628 38.86 169.789 38.7427C169.95 38.6255 170.031 38.4679 170.031 38.27C170.031 38.0209 169.906 37.8303 169.657 37.6984C169.408 37.5592 169.086 37.4895 168.69 37.4895C168.367 37.4895 168.027 37.5372 167.668 37.6324C167.308 37.7204 166.968 37.8486 166.645 38.0172L166.008 36.3683C166.828 35.9725 167.73 35.7747 168.712 35.7747C169.342 35.7747 169.925 35.8663 170.46 36.0495C171.002 36.2254 171.431 36.4819 171.746 36.819C172.068 37.1561 172.23 37.5555 172.23 38.0172C172.23 38.3763 172.134 38.6987 171.944 38.9846C171.761 39.263 171.504 39.4829 171.174 39.6441ZM176.825 40.6994H175.836V43.6455H173.67V35.9505H175.836V38.9406H176.88L178.716 35.9505H181.002L178.595 39.6661L181.024 43.6455H178.573L176.825 40.6994ZM181.723 35.9505H183.866V40.4686L187.043 35.9505H189.088V43.6455H186.944V39.1385L183.778 43.6455H181.723V35.9505Z" fill="black"/>
<path d="M10.2736 54.6487V58.3507H8.02511V56.5991H2.45971V58.3507H0.198764V54.6487H0.509333C1.02281 54.6405 1.38307 54.2885 1.59011 53.5928C1.80544 52.8971 1.93795 51.895 1.98764 50.5865L2.08702 47.9032H9.09346V54.6487H10.2736ZM4.13678 50.7977C4.10365 51.7253 4.02912 52.512 3.91317 53.158C3.79723 53.804 3.61917 54.3009 3.37899 54.6487H6.67102V49.8536H4.17405L4.13678 50.7977ZM19.5619 47.9032V56.5991H17.1394V49.8536H14.6425L14.5928 51.2698C14.5514 52.512 14.4478 53.5224 14.2822 54.3009C14.1248 55.0794 13.8515 55.684 13.4623 56.1146C13.0731 56.537 12.5223 56.7482 11.8101 56.7482C11.4788 56.7482 11.1061 56.6985 10.692 56.5991L10.8287 54.5866C10.9363 54.6115 11.0481 54.6239 11.1641 54.6239C11.4871 54.6239 11.7355 54.4955 11.9095 54.2388C12.0834 53.9821 12.2076 53.6259 12.2821 53.1704C12.3567 52.7067 12.4064 52.1062 12.4312 51.3691L12.5554 47.9032H19.5619ZM28.7017 47.9032V56.5991H26.2793V54.4127H24.9376L23.509 56.5991H20.9251L22.6891 54.0525C22.1094 53.7957 21.6663 53.4272 21.3599 52.9468C21.0534 52.4582 20.9002 51.8785 20.9002 51.2076C20.9002 50.5285 21.0576 49.9405 21.3723 49.4436C21.687 48.9467 22.1384 48.5657 22.7264 48.3007C23.3144 48.0357 24.0018 47.9032 24.7886 47.9032H28.7017ZM24.8382 49.8411C23.8693 49.8411 23.3848 50.2842 23.3848 51.1704C23.3848 51.6093 23.5049 51.9447 23.745 52.1766C23.9935 52.4002 24.3496 52.512 24.8134 52.512H26.2793V49.8411H24.8382ZM42.4456 47.9032L38.843 54.6239C38.462 55.3444 37.9941 55.891 37.4392 56.2637C36.8926 56.6364 36.2922 56.8227 35.6379 56.8227C35.1576 56.8227 34.6441 56.7151 34.0975 56.4997L34.6813 54.686C35.0209 54.7854 35.3108 54.8351 35.5509 54.8351C35.7911 54.8351 36.0023 54.7813 36.1845 54.6736C36.375 54.5659 36.5489 54.3962 36.7063 54.1643L33.3273 47.9032H35.9236L37.9485 52.1021L40.048 47.9032H42.4456ZM47.3495 56.773C46.4385 56.773 45.6186 56.5826 44.8898 56.2016C44.1692 55.8123 43.6019 55.274 43.1878 54.5866C42.7737 53.8992 42.5667 53.1207 42.5667 52.2512C42.5667 51.3816 42.7737 50.6031 43.1878 49.9157C43.6019 49.2283 44.1692 48.6941 44.8898 48.3131C45.6186 47.9239 46.4385 47.7293 47.3495 47.7293C48.1445 47.7293 48.8609 47.8701 49.4986 48.1516C50.1363 48.4332 50.6663 48.839 51.0887 49.3691L49.5234 50.7853C48.9603 50.1062 48.277 49.7666 47.4737 49.7666C47.0016 49.7666 46.5792 49.8701 46.2066 50.0772C45.8422 50.2842 45.5564 50.5782 45.3494 50.9592C45.1506 51.3319 45.0512 51.7625 45.0512 52.2512C45.0512 52.7398 45.1506 53.1746 45.3494 53.5555C45.5564 53.9282 45.8422 54.2181 46.2066 54.4251C46.5792 54.6322 47.0016 54.7357 47.4737 54.7357C48.277 54.7357 48.9603 54.3962 49.5234 53.717L51.0887 55.1332C50.6663 55.6633 50.1363 56.0691 49.4986 56.3507C48.8609 56.6322 48.1445 56.773 47.3495 56.773ZM60.3616 47.9032V56.5991H57.9268V49.8536H54.6223V56.5991H52.1999V47.9032H60.3616ZM69.2022 54.6984V56.5991H62.2206V47.9032H69.0407V49.8039H64.6554V51.2698H68.5189V53.1083H64.6554V54.6984H69.2022ZM82.3927 47.9032V56.5991H70.6035V47.9032H73.026V54.6487H75.2993V47.9032H77.7218V54.6487H79.9703V47.9032H82.3927ZM92.5251 47.9032V56.5991H90.0654V53.2077H86.7113V56.5991H84.2516V47.9032H86.7113V51.1704H90.0654V47.9032H92.5251ZM98.667 56.773C97.7477 56.773 96.9196 56.5784 96.1825 56.1892C95.4537 55.7999 94.8781 55.2616 94.4557 54.5742C94.0416 53.8868 93.8346 53.1125 93.8346 52.2512C93.8346 51.3898 94.0416 50.6155 94.4557 49.9281C94.8781 49.2407 95.4537 48.7024 96.1825 48.3131C96.9196 47.9239 97.7477 47.7293 98.667 47.7293C99.5863 47.7293 100.41 47.9239 101.139 48.3131C101.876 48.7024 102.452 49.2407 102.866 49.9281C103.288 50.6155 103.499 51.3898 103.499 52.2512C103.499 53.1125 103.288 53.8868 102.866 54.5742C102.452 55.2616 101.876 55.7999 101.139 56.1892C100.41 56.5784 99.5863 56.773 98.667 56.773ZM98.667 54.7357C99.106 54.7357 99.5035 54.6322 99.8596 54.4251C100.216 54.2181 100.497 53.9282 100.704 53.5555C100.911 53.1746 101.015 52.7398 101.015 52.2512C101.015 51.7625 100.911 51.3319 100.704 50.9592C100.497 50.5782 100.216 50.2842 99.8596 50.0772C99.5035 49.8701 99.106 49.7666 98.667 49.7666C98.2281 49.7666 97.8306 49.8701 97.4744 50.0772C97.1183 50.2842 96.8367 50.5782 96.6297 50.9592C96.4227 51.3319 96.3191 51.7625 96.3191 52.2512C96.3191 52.7398 96.4227 53.1746 96.6297 53.5555C96.8367 53.9282 97.1183 54.2181 97.4744 54.4251C97.8306 54.6322 98.2281 54.7357 98.667 54.7357ZM111.175 49.8536H107.237V56.5991H104.815V47.9032H111.188L111.175 49.8536ZM115.809 56.773C114.89 56.773 114.062 56.5784 113.324 56.1892C112.596 55.7999 112.02 55.2616 111.598 54.5742C111.184 53.8868 110.977 53.1125 110.977 52.2512C110.977 51.3898 111.184 50.6155 111.598 49.9281C112.02 49.2407 112.596 48.7024 113.324 48.3131C114.062 47.9239 114.89 47.7293 115.809 47.7293C116.728 47.7293 117.552 47.9239 118.281 48.3131C119.018 48.7024 119.594 49.2407 120.008 49.9281C120.43 50.6155 120.641 51.3898 120.641 52.2512C120.641 53.1125 120.43 53.8868 120.008 54.5742C119.594 55.2616 119.018 55.7999 118.281 56.1892C117.552 56.5784 116.728 56.773 115.809 56.773ZM115.809 54.7357C116.248 54.7357 116.645 54.6322 117.002 54.4251C117.358 54.2181 117.639 53.9282 117.846 53.5555C118.053 53.1746 118.157 52.7398 118.157 52.2512C118.157 51.7625 118.053 51.3319 117.846 50.9592C117.639 50.5782 117.358 50.2842 117.002 50.0772C116.645 49.8701 116.248 49.7666 115.809 49.7666C115.37 49.7666 114.973 49.8701 114.616 50.0772C114.26 50.2842 113.979 50.5782 113.772 50.9592C113.565 51.3319 113.461 51.7625 113.461 52.2512C113.461 52.7398 113.565 53.1746 113.772 53.5555C113.979 53.9282 114.26 54.2181 114.616 54.4251C114.973 54.6322 115.37 54.7357 115.809 54.7357ZM125.572 47.9032H132.839V49.8039H127.994V51.2076H130.243C131.295 51.2076 132.102 51.4313 132.665 51.8785C133.228 52.3257 133.51 52.9675 133.51 53.804C133.51 54.6819 133.195 55.3693 132.566 55.8662C131.936 56.3548 131.054 56.5991 129.92 56.5991H125.572V47.9032ZM129.758 54.8351C130.172 54.8351 130.487 54.7523 130.702 54.5866C130.918 54.421 131.025 54.185 131.025 53.8785C131.025 53.2657 130.603 52.9593 129.758 52.9593H127.994V54.8351H129.758ZM134.78 47.9032H137.202V53.0089L140.792 47.9032H143.103V56.5991H140.681V51.5058L137.103 56.5991H134.78V47.9032ZM150.349 52.0772C150.83 52.2594 151.206 52.5327 151.48 52.8971C151.753 53.2615 151.89 53.6798 151.89 54.1518C151.89 54.6902 151.708 55.1581 151.343 55.5556C150.979 55.9531 150.486 56.2596 149.865 56.4749C149.244 56.6819 148.56 56.7855 147.815 56.7855C147.227 56.7855 146.627 56.7151 146.014 56.5743C145.409 56.4335 144.829 56.2223 144.275 55.9407L145.008 54.2264C145.397 54.4251 145.811 54.5784 146.25 54.686C146.697 54.7854 147.128 54.8351 147.542 54.8351C148.088 54.8351 148.536 54.7481 148.883 54.5742C149.231 54.392 149.405 54.1394 149.405 53.8164C149.405 53.5597 149.298 53.3692 149.082 53.245C148.867 53.1207 148.577 53.0586 148.213 53.0586H145.989V51.2573H148.014C148.345 51.2573 148.602 51.1911 148.784 51.0586C148.966 50.9261 149.057 50.748 149.057 50.5244C149.057 50.2428 148.917 50.0275 148.635 49.8784C148.353 49.7211 147.989 49.6424 147.542 49.6424C147.177 49.6424 146.792 49.6962 146.386 49.8039C145.981 49.9033 145.596 50.0482 145.231 50.2387L144.511 48.3753C145.438 47.928 146.457 47.7044 147.567 47.7044C148.279 47.7044 148.937 47.8079 149.542 48.015C150.155 48.2138 150.639 48.5036 150.995 48.8846C151.36 49.2655 151.542 49.7169 151.542 50.2387C151.542 50.6445 151.434 51.0089 151.219 51.3319C151.012 51.6466 150.722 51.895 150.349 52.0772ZM161.493 47.9032V56.5991H159.034V53.2077H155.679V56.5991H153.22V47.9032H155.679V51.1704H159.034V47.9032H161.493ZM170.343 54.6984V56.5991H163.362V47.9032H170.182V49.8039H165.797V51.2698H169.66V53.1083H165.797V54.6984H170.343ZM175.969 56.773C175.058 56.773 174.238 56.5826 173.509 56.2016C172.789 55.8123 172.221 55.274 171.807 54.5866C171.393 53.8992 171.186 53.1207 171.186 52.2512C171.186 51.3816 171.393 50.6031 171.807 49.9157C172.221 49.2283 172.789 48.6941 173.509 48.3131C174.238 47.9239 175.058 47.7293 175.969 47.7293C176.764 47.7293 177.48 47.8701 178.118 48.1516C178.756 48.4332 179.286 48.839 179.708 49.3691L178.143 50.7853C177.58 50.1062 176.896 49.7666 176.093 49.7666C175.621 49.7666 175.199 49.8701 174.826 50.0772C174.461 50.2842 174.176 50.5782 173.969 50.9592C173.77 51.3319 173.671 51.7625 173.671 52.2512C173.671 52.7398 173.77 53.1746 173.969 53.5555C174.176 53.9282 174.461 54.2181 174.826 54.4251C175.199 54.6322 175.621 54.7357 176.093 54.7357C176.896 54.7357 177.58 54.3962 178.143 53.717L179.708 55.1332C179.286 55.6633 178.756 56.0691 178.118 56.3507C177.48 56.6322 176.764 56.773 175.969 56.773ZM186.674 54.9096H182.997L182.313 56.5991H179.804L183.643 47.9032H186.065L189.916 56.5991H187.357L186.674 54.9096ZM185.953 53.0959L184.835 50.3132L183.717 53.0959H185.953Z" fill="black"/>
</svg>
