<svg width="42" height="42" viewBox="0 0 42 42" fill="none" xmlns="http://www.w3.org/2000/svg">
<rect width="42" height="42" rx="21" fill="#02AA3D"/>
<path d="M26.1023 24.1739C27.1759 22.7077 27.8181 20.9068 27.8181 18.9545C27.8181 14.0672 23.8417 10.0908 18.9545 10.0908C14.0673 10.0908 10.0909 14.0672 10.0909 18.9545C10.0909 23.8418 14.0673 27.8182 18.9546 27.8182C20.9069 27.8182 22.708 27.1759 24.1741 26.1022L29.9809 31.909L31.9091 29.9807C31.9091 29.9807 26.1023 24.1739 26.1023 24.1739ZM18.9546 25.0909C15.5708 25.0909 12.8182 22.3383 12.8182 18.9545C12.8182 15.5707 15.5708 12.8181 18.9546 12.8181C22.3383 12.8181 25.0909 15.5707 25.0909 18.9545C25.0909 22.3383 22.3383 25.0909 18.9546 25.0909Z" fill="white"/>
</svg>
