<svg width="100" height="100" viewBox="0 0 100 100" fill="none" xmlns="http://www.w3.org/2000/svg">
<path fill-rule="evenodd" clip-rule="evenodd" d="M13.7681 0.305688C10.992 1.28762 10.3428 4.84293 12.5809 6.80777C13.7134 7.80201 13.9593 7.82154 25.3199 7.82271C35.2082 7.82388 35.9041 7.84614 36.033 8.16564C36.4317 9.15285 38.2802 14.7132 38.2763 14.9136C38.2739 15.0421 36.9741 17.6081 35.3881 20.6156L32.504 26.0838L25.0892 26.1814C17.2688 26.2843 17.3532 26.2748 16.1922 27.2028C15.8348 27.4885 1.07793 47.2688 0.563262 48.1519C-0.307476 49.6464 -0.0480905 51.3795 1.23927 52.6667C2.47486 53.9021 2.55436 53.9107 12.7593 53.9118L21.9073 53.913L27.5059 56.4848C30.5854 57.8995 33.1804 59.1219 33.2728 59.2015C34.0187 59.8437 38.6669 72.6574 38.6691 74.077L38.6714 75.5905H34.3836H30.0957L30.0377 68.6088L29.9797 61.6271L29.4935 60.7779C29.1939 60.2548 28.6689 59.73 28.1263 59.4109L27.2452 58.893L15.4709 58.8383C2.34224 58.7774 2.51861 58.7625 1.24454 60.0364C-0.0414496 61.3222 0.000153642 60.6741 0.000153642 79.3987C0.000153642 98.1183 -0.0410589 97.4756 1.2418 98.7585C2.49537 100.012 2.36372 100 15.0377 100C27.7116 100 27.58 100.012 28.8335 98.7585C30.0289 97.5633 30.075 97.2301 30.0762 89.7981L30.0773 83.2069H34.3543H38.6312L38.7001 85.6315C38.779 88.4035 39.1818 89.3067 40.7305 90.1838C41.8395 90.8119 57.7427 90.873 59.105 90.2545C60.7262 89.5184 61.3286 88.1566 61.3286 85.2284V83.2069H65.6164H69.9043L69.9623 90.1887L70.0203 97.1704L70.5383 98.0514C70.8575 98.5939 71.3823 99.1188 71.9056 99.4184L72.7548 99.9045L84.5291 99.9592C97.6578 100.02 97.4814 100.035 98.7555 98.761C100.041 97.4752 99.9998 98.1234 99.9998 79.3987C99.9998 60.6741 100.041 61.3222 98.7555 60.0364C97.4814 58.7625 97.6578 58.7774 84.5291 58.8383L72.7548 58.893L71.8737 59.4109C71.3311 59.73 70.8061 60.2548 70.5065 60.7779L70.0203 61.6271L69.9623 68.6088L69.9043 75.5905H65.6164H61.3286L61.3309 74.077C61.3331 72.6582 65.9782 59.8517 66.7272 59.2C66.8196 59.1195 69.4236 57.897 72.5138 56.4835L78.1324 53.913L87.2605 53.9118C97.4439 53.9107 97.5253 53.9019 98.7607 52.6667C100.056 51.3713 100.308 49.6476 99.4227 48.1275C98.8951 47.2215 84.8227 28.339 84.1098 27.5807C82.8638 26.2552 83.0861 26.289 74.9108 26.1814L67.496 26.0838L64.6119 20.6156C63.0259 17.6081 61.7261 15.0421 61.7237 14.9136C61.7198 14.7132 63.5683 9.15285 63.967 8.16564C64.0959 7.84614 64.7918 7.82388 74.6801 7.82271C86.4337 7.82154 86.3778 7.827 87.6275 6.57752C89.2945 4.91089 89.2064 2.59725 87.4163 1.02593C86.2522 0.00396005 86.145 -0.00326583 72.7132 0.0555173L60.2543 0.109809L59.4697 0.559568C58.3382 1.20833 57.9409 1.911 56.7358 5.39522C56.1436 7.10696 55.4317 9.14465 55.1537 9.92328L54.648 11.3392H50.0012C45.7565 11.3392 45.3426 11.3097 45.2209 10.9974C45.1475 10.8095 44.574 9.16164 43.9464 7.33565C43.3189 5.50966 42.6187 3.51708 42.3903 2.90797C41.9049 1.61298 40.826 0.531251 39.7107 0.221516C38.4745 -0.121613 14.7589 -0.0448632 13.7681 0.305688ZM56.8583 22.4708C57.8042 24.2431 58.5818 25.8031 58.5861 25.9373C58.5923 26.1291 56.7493 26.1814 50 26.1814C43.9568 26.1814 41.4059 26.1185 41.4059 25.9697C41.4059 25.7633 43.8205 21.0526 44.5773 19.7824L44.9574 19.1444L50.0479 19.1966L55.1381 19.2485L56.8583 22.4708ZM83.639 39.7369C85.9729 42.8836 87.9361 45.598 88.0017 45.7691C88.1089 46.0484 87.5201 46.0861 82.1958 46.1394L76.2706 46.1989L68.8797 49.6277C63.8666 51.9532 61.2854 53.2551 60.8569 53.674C60.3492 54.1702 59.7314 55.5513 57.7169 60.6934C56.3374 64.2145 55.0893 67.3371 54.9432 67.6323L54.6777 68.1694H50H45.3223L45.0568 67.6323C44.9107 67.3371 43.6638 64.2176 42.286 60.7006C40.2719 55.5599 39.6551 54.1813 39.1402 53.6701C38.6878 53.2211 36.3288 52.0296 31.1145 49.6166L23.7294 46.1989L17.8042 46.1394C12.5147 46.0864 11.8916 46.047 11.9965 45.7734C12.0614 45.6047 14.0245 42.8915 16.3594 39.7443L20.6043 34.0218L50 34.0189L79.3957 34.016L83.639 39.7369ZM49.0871 41.4307C46.3948 41.9375 44.6721 44.605 45.3129 47.2752C46.4801 52.1405 53.5199 52.1405 54.6871 47.2752C55.4994 43.8898 52.5233 40.7839 49.0871 41.4307ZM22.2645 79.3987V92.1904H15.0377H7.81082V79.3987V66.607H15.0377H22.2645V79.3987ZM92.1892 79.3987V92.1904H84.9623H77.7355V79.3987V66.607H84.9623H92.1892V79.3987ZM53.5158 79.3987V83.0117H50H46.4842V79.3987V75.7858H50H53.5158V79.3987Z" fill="#8BD176"/>
</svg>
