<svg width="100" height="100" viewBox="0 0 100 100" fill="none" xmlns="http://www.w3.org/2000/svg">
<path fill-rule="evenodd" clip-rule="evenodd" d="M8.51851 0.290292C3.06576 1.66996 -0.099831 5.8597 0.132055 11.3891C0.342808 16.4186 6.04956 16.2923 6.25385 11.2536C6.39983 7.64987 8.5688 5.82808 12.3715 6.11502C16.278 6.40977 18.4828 9.05042 17.892 12.7268C17.5206 15.0372 16.8934 15.734 10.8667 20.5342C1.17192 28.2558 -2.13456 33.7009 1.52102 35.9242C2.51491 36.5288 22.7409 36.5288 23.7348 35.9242C25.717 34.7187 25.6345 31.7079 23.5894 30.624C22.9634 30.2922 22.3497 30.2625 16.1044 30.2625C12.333 30.2625 9.30125 30.1862 9.30125 30.0913C9.30125 29.8334 11.7845 27.6804 15.0739 25.086C21.7384 19.8299 23.1698 18.0868 23.8856 14.355C25.0906 8.07228 22.2828 2.9081 16.4819 0.738078C14.5542 0.0170139 10.4994 -0.210978 8.51851 0.290292ZM41.861 0.378522C41.1818 0.791563 22.6458 22.754 22.2742 23.5859C21.6797 24.9166 22.1528 26.4524 23.4536 27.4141C23.9903 27.811 24.2365 27.8241 32.2104 27.8775L40.4151 27.9324L40.4159 31.0983C40.4169 35.2933 41.0125 36.3111 43.4682 36.3129C45.8545 36.3146 46.4805 35.2094 46.4809 30.9945L46.4813 27.9201H47.5654C49.9753 27.9201 51.5143 26.1606 50.9459 24.0554C50.5457 22.5736 49.1777 21.6772 47.313 21.6749L46.4813 21.6737L46.4809 11.9626C46.4807 1.13726 46.5075 1.36681 45.1315 0.44977C44.2765 -0.120016 42.7357 -0.15359 41.861 0.378522ZM54.741 0.905754C52.6182 1.98911 52.4511 5.11541 54.4529 6.29051C54.7623 6.47204 55.8548 6.75547 56.8808 6.92002C78.0912 10.3247 93.837 28.7352 93.837 50.1304C93.837 81.3074 61.8692 102.519 33.0403 90.4706C17.2646 83.8775 6.21276 67.7299 6.16599 51.2052C6.15601 47.6625 3.42484 45.7968 1.10226 47.746C-1.09489 49.5903 0.138121 60.3014 3.51133 68.6741C16.8811 101.858 60.0057 110.682 85.3347 85.4161C110.756 60.0576 101.858 17.0112 68.4497 3.73594C63.0785 1.60164 56.1716 0.175711 54.741 0.905754ZM40.4151 16.6962V21.6737H36.1916C33.5061 21.6737 31.9919 21.6037 32.0333 21.4815C32.1404 21.166 40.1091 11.7192 40.2683 11.719C40.349 11.7188 40.4151 13.9585 40.4151 16.6962ZM68.8837 20.0216C67.6264 20.6405 21.4877 66.977 21.2224 67.887C20.5752 70.1059 22.5485 72.1752 24.9071 71.7514C25.6094 71.6253 72.2448 25.5691 72.9416 24.3136C74.4319 21.6279 71.6333 18.6675 68.8837 20.0216ZM59.5304 46.3527C56.9052 47.2996 56.6516 50.7088 59.1159 51.9266C59.8636 52.2963 60.29 52.3199 66.2095 52.3199C69.6733 52.3199 72.5074 52.3572 72.5074 52.4027C72.5074 52.4484 68.8042 58.2524 64.2781 65.3009C59.7519 72.3493 55.9654 78.3347 55.8636 78.6019C54.7228 81.5953 58.8001 84.0357 60.9866 81.6683C61.4915 81.1217 80.4031 51.7527 81.0341 50.535C81.7241 49.2044 81.1249 47.3828 79.7272 46.5616C78.8575 46.0506 60.8833 45.8647 59.5304 46.3527Z" fill="#8BD176"/>
</svg>
