<svg width="100" height="100" viewBox="0 0 100 100" fill="none" xmlns="http://www.w3.org/2000/svg">
<path fill-rule="evenodd" clip-rule="evenodd" d="M1.76136 0.321062C0.684202 0.86253 0.110885 1.81468 0.0121271 3.226C-0.094059 4.74451 0.493242 5.73749 1.92566 6.46061C2.83895 6.92173 3.16953 6.95186 7.30467 6.95186C10.9607 6.95186 11.7573 7.00776 11.9836 7.28046C12.1337 7.46102 12.4363 9.15594 12.6559 11.0467C17.7225 54.6364 19.6662 71.0621 20.1871 74.6911C20.6763 78.1001 21.8366 80.3636 24.244 82.6046C26.3094 84.5272 29.5736 85.9887 31.802 85.9887H32.5208L32.5245 87.2442C32.542 92.9719 36.6433 98.2034 42.2349 99.6298C43.7593 100.019 46.434 100.062 48.0775 99.7241C48.7142 99.5931 50.0452 99.0997 51.0354 98.6274C55.2604 96.612 58.0841 92.1108 58.0841 87.3918V85.9778L61.5891 86.0379L65.0942 86.0979L65.1759 87.6263C65.359 91.0506 66.5618 93.8071 68.8963 96.1522C74.0037 101.283 81.9367 101.283 87.034 96.1522C89.3651 93.806 90.4694 91.3071 90.777 87.6808L90.9205 85.9887H94.1881C96.7501 85.9887 97.6168 85.9123 98.203 85.6344C99.302 85.1132 99.8878 84.1593 99.9879 82.7279C100.094 81.2094 99.5068 80.2164 98.0743 79.4933C97.1569 79.03 96.8379 79.0021 92.4908 79.0021H87.8805L87.2388 78.3289C86.1192 77.1547 83.4654 75.533 81.8285 75.0227C79.5532 74.3136 76.2758 74.3288 74.0448 75.059C72.3472 75.6144 69.7961 77.1737 68.6947 78.3289L68.053 79.0021H61.5846H55.1162L54.1421 78.003C53.6064 77.4534 52.5998 76.6687 51.9055 76.2593C47.0316 73.3863 40.9294 74.0033 36.7383 77.7934L35.4016 79.0021L33.4697 78.9999C31.9023 78.9981 31.3292 78.9008 30.4329 78.4837C28.3887 77.5327 27.2569 75.6788 26.9487 72.7765L26.809 71.4634L54.003 69.6513C70.6252 68.5436 81.7282 67.7155 82.5635 67.5208C85.9794 66.7245 89.3905 64.0016 90.968 60.812C91.7368 59.2573 92.0311 57.951 95.4879 40.7467C98.4287 26.1104 99.1648 22.0986 99.0853 21.1436C98.7624 17.2655 95.8768 14.2257 92.0276 13.7082C91.2039 13.5975 86.7937 13.3063 82.2273 13.0611C77.6608 12.8159 68.7628 12.3244 62.4539 11.9687C49.5462 11.2415 19.6225 9.57187 19.4947 9.57187C19.449 9.57187 19.4114 9.24612 19.4114 8.84787C19.4114 5.33292 17.5684 2.20463 14.6046 0.688955L13.4029 0.0743446L7.94069 0.0173595C3.2224 -0.0317656 2.38078 0.00971758 1.76136 0.321062ZM56.3362 18.6434C75.0226 19.6674 90.6297 20.5549 91.0189 20.6156C91.4178 20.6776 91.8273 20.9141 91.9577 21.158C92.2894 21.7772 85.3694 56.3669 84.6171 57.8505C83.966 59.1343 82.7623 60.1382 81.3533 60.5725C80.5715 60.8133 72.5565 61.4227 53.1681 62.715C38.2671 63.7084 26.0518 64.5053 26.0231 64.4861C25.9301 64.4239 20.3605 16.8904 20.4298 16.7487C20.4667 16.6732 20.9164 16.6496 21.4289 16.6963C21.9415 16.743 37.6499 17.6192 56.3362 18.6434ZM52.8404 28.3857C52.4198 28.6674 51.8515 29.3394 51.5777 29.8787L51.0798 30.8594L51.1407 40.9028L51.2017 50.9462L51.7154 51.7717C52.4115 52.8906 53.7135 53.5384 54.9794 53.3959C56.0825 53.2716 56.8809 52.7575 57.5925 51.7125L58.0841 50.9907V40.7397C58.0841 29.4265 58.0931 29.5062 56.7059 28.5191C55.682 27.7905 53.8242 27.7263 52.8404 28.3857ZM39.6423 30.3225C38.7478 30.59 37.581 31.7908 37.3267 32.7057C37.2052 33.1423 37.1111 36.6702 37.1104 40.8019C37.1091 47.9633 37.12 48.1458 37.6007 49.0969C38.3243 50.5283 39.318 51.1151 40.8376 51.009C42.27 50.909 43.2246 50.3237 43.7462 49.2255C44.0531 48.5788 44.1008 47.4104 44.1008 40.5201C44.1008 32.6229 44.0971 32.5559 43.6074 31.8197C43.0865 31.0365 41.473 30.0824 40.7225 30.114C40.4776 30.1243 39.9914 30.2182 39.6423 30.3225ZM67.609 30.3225C66.7145 30.59 65.5477 31.7908 65.2934 32.7057C65.1719 33.1423 65.0778 36.6702 65.0771 40.8019C65.0758 47.9633 65.0867 48.1458 65.5674 49.0969C66.291 50.5283 67.2847 51.1151 68.8043 51.009C70.2368 50.909 71.1913 50.3237 71.7129 49.2255C72.0199 48.5788 72.0675 47.4104 72.0675 40.5201C72.0675 32.6229 72.0638 32.5559 71.5741 31.8197C71.0533 31.0365 69.4397 30.0824 68.6892 30.114C68.4443 30.1243 67.9581 30.2182 67.609 30.3225ZM47.2044 81.743C49.4129 82.495 51.0925 84.7846 51.0925 87.0433C51.0925 88.7271 50.7105 89.7947 49.6967 90.9456C47.3325 93.6298 43.2526 93.6595 40.9825 91.0093C37.1681 86.5564 41.6664 79.8573 47.2044 81.743ZM80.5008 82.014C81.5609 82.5544 82.9068 83.9925 83.375 85.0848C83.5622 85.5219 83.7171 86.4691 83.7193 87.1896C83.7316 91.172 80.1073 93.8398 76.1696 92.7471C73.9541 92.1322 72.1984 89.686 72.211 87.2317C72.2193 85.6141 72.6161 84.6032 73.7232 83.3788C74.5299 82.4862 75.3389 81.9544 76.436 81.5946C77.3386 81.2987 79.544 81.5262 80.5008 82.014Z" fill="#8BD176"/>
</svg>
