<svg width="76" height="76" viewBox="0 0 76 76" fill="none" xmlns="http://www.w3.org/2000/svg">
<path fill-rule="evenodd" clip-rule="evenodd" d="M35.7734 3.53608V7.07201L34.9941 7.42217C33.987 7.87461 32.5504 9.32277 32.0251 10.4148C31.4471 11.6164 31.2268 13.0603 31.4325 14.3011C31.6231 15.452 32.1587 16.7 32.8203 17.5352C33.0763 17.8585 33.261 18.1426 33.2309 18.1665C33.2006 18.1904 28.4942 21.1264 22.7724 24.6909L12.3689 31.1719H6.1845H0V53.5859V76H38H76V53.5859V31.1719H69.8155H63.6311L53.2276 24.6909C47.5058 21.1264 42.7994 18.1904 42.7691 18.1665C42.739 18.1426 42.9237 17.8585 43.1797 17.5352C43.8413 16.7 44.3769 15.452 44.5675 14.3011C44.7732 13.0603 44.5529 11.6164 43.9749 10.4148C43.4496 9.32277 42.013 7.87461 41.0059 7.42217L40.2266 7.07201V3.53608V0H38H35.7734V3.53608ZM38.9825 11.3737C40.5671 12.1257 40.6037 14.4908 39.0429 15.2871C38.7208 15.4515 38.2515 15.5859 38 15.5859C37.2471 15.5859 36.4086 15.0615 36.0559 14.3702C35.0786 12.4546 37.0362 10.4501 38.9825 11.3737ZM35.7248 31.1217C35.6955 31.1508 32.3468 31.1573 28.283 31.1361L20.8942 31.0977L28.2968 26.4856L35.6992 21.8735L35.7384 26.471C35.7601 28.9996 35.7538 31.0925 35.7248 31.1217ZM48.3164 26.8611C51.9086 29.093 54.9112 30.9759 54.9887 31.0454C55.0666 31.1153 51.7924 31.1719 47.6781 31.1719H40.2266V26.4915V21.8113L41.0059 22.3072C41.4344 22.58 44.7242 24.6293 48.3164 26.8611ZM9.05469 53.5859V71.5469H6.75391H4.45312V53.5859V35.625H6.75391H9.05469V53.5859ZM17.9609 53.5859V71.5469H15.7344H13.5078V53.5859V35.625H15.7344H17.9609V53.5859ZM26.8672 53.5859V71.5469H24.6406H22.4141V53.5859V35.625H24.6406H26.8672V53.5859ZM35.7734 53.5859V71.5469H33.5469H31.3203V53.5859V35.625H33.5469H35.7734V53.5859ZM44.6797 53.5859V71.5469H42.4531H40.2266V53.5859V35.625H42.4531H44.6797V53.5859ZM53.5859 53.5859V71.5469H51.3594H49.1328V53.5859V35.625H51.3594H53.5859V53.5859ZM62.4922 53.5859V71.5469H60.2656H58.0391V53.5859V35.625H60.2656H62.4922V53.5859ZM71.5469 53.5859V71.5469H69.2461H66.9453V53.5859V35.625H69.2461H71.5469V53.5859Z" fill="#8BD176"/>
</svg>
