<svg width="76" height="76" viewBox="0 0 76 76" fill="none" xmlns="http://www.w3.org/2000/svg">
<path fill-rule="evenodd" clip-rule="evenodd" d="M1.201 0.246431C0.933069 0.37854 0.565686 0.694267 0.384592 0.948095C0.0740613 1.38346 0.0528347 1.58504 0.00993627 4.48566C-0.015595 6.21525 0.0326472 7.93 0.120225 8.40352C0.564202 10.8049 2.1985 12.7128 4.53238 13.5541C5.37224 13.8568 5.68752 13.8681 14.7047 13.9187L24.0102 13.9708L24.0562 18.9715C24.1013 23.87 24.1091 23.9834 24.4386 24.5131C24.9811 25.3857 25.4711 25.5308 27.8727 25.5308H29.9655V46.5126C29.9655 62.0105 30.0103 67.6231 30.1373 67.9868C30.3523 68.604 36.1931 75.2114 36.9243 75.6648C37.608 76.0888 38.3543 76.0888 39.038 75.6648C39.7692 75.2114 45.6099 68.604 45.825 67.9868C45.9519 67.6231 45.9968 62.0105 45.9968 46.5126V25.5308H48.0896C50.4911 25.5308 50.9811 25.3857 51.5237 24.5131C51.8532 23.9834 51.8609 23.87 51.9061 18.9715L51.9521 13.9708L61.2576 13.9187C70.2747 13.8681 70.59 13.8568 71.4299 13.5541C73.7638 12.7128 75.3981 10.8049 75.842 8.40352C75.9296 7.93 75.9779 6.21525 75.9523 4.48566C75.9094 1.57985 75.8886 1.38406 75.5759 0.945572C74.8417 -0.0835454 78.1464 -0.000717326 37.9587 0.00299361C4.85078 0.0061108 1.64572 0.0273374 1.201 0.246431ZM71.528 6.21199C71.528 7.79388 71.494 8.02218 71.1911 8.47566C71.0058 8.75309 70.6217 9.09687 70.3375 9.23952C69.8505 9.48429 67.9982 9.49913 37.9811 9.49913C7.96411 9.49913 6.11176 9.48429 5.62473 9.23952C5.34062 9.09687 4.95647 8.75309 4.77122 8.47566C4.46826 8.02218 4.43426 7.79388 4.43426 6.21199V4.4527H37.9811H71.528V6.21199ZM47.4811 17.5894V21.2261H37.9811H28.4811V17.5894V13.9527H37.9811H47.4811V17.5894ZM41.659 27.7945L41.6999 29.984H37.9851H34.2702V27.8564C34.2702 26.6861 34.3159 25.6831 34.3717 25.6272C34.4275 25.5714 36.0808 25.5436 38.0456 25.5654L41.6179 25.605L41.659 27.7945ZM41.66 35.4761L41.7023 36.5894L38.0597 38.4078C36.0562 39.408 34.384 40.2261 34.3437 40.2261C34.2295 40.2261 34.2571 34.4996 34.3717 34.385C34.4275 34.3292 36.0808 34.3014 38.0456 34.3232L41.6179 34.3629L41.66 35.4761ZM41.6921 44.1982V46.8344L38.0546 48.6513C36.054 49.6507 34.3824 50.4683 34.3403 50.4683C34.298 50.4683 34.2816 49.2826 34.3039 47.8336L34.3444 45.1988L37.9069 43.3876C39.8663 42.3914 41.5194 41.5731 41.5807 41.5692C41.642 41.5653 41.6921 42.7484 41.6921 44.1982ZM19.1208 43.5961C18.2499 44.3289 18.0288 45.3235 18.5237 46.2809C18.8287 46.8706 23.2765 51.3484 23.8558 51.6488C24.3958 51.9289 25.4972 51.8731 25.9429 51.5432C26.8636 50.8614 27.2034 49.8548 26.8411 48.8823C26.6628 48.4037 22.0805 43.7287 21.4749 43.4075C21.2543 43.2905 20.7418 43.1949 20.3358 43.1949C19.7502 43.1949 19.4992 43.2779 19.1208 43.5961ZM54.3835 43.4769C53.669 43.9276 49.2921 48.4236 49.1212 48.8823C48.7589 49.8548 49.0987 50.8614 50.0194 51.5432C50.465 51.8731 51.5664 51.9289 52.1064 51.6488C52.6858 51.3484 57.1336 46.8706 57.4386 46.2809C57.9335 45.3235 57.7123 44.3289 56.8414 43.5961C56.2432 43.0928 55.0819 43.0364 54.3835 43.4769ZM41.6921 54.4404V57.0766L38.0546 58.8935C36.054 59.8929 34.3824 60.7105 34.3403 60.7105C34.298 60.7105 34.2816 59.5248 34.3039 58.0757L34.3444 55.441L37.9069 53.6297C39.8663 52.6336 41.5194 51.8152 41.5807 51.8114C41.642 51.8075 41.6921 52.9906 41.6921 54.4404ZM19.3231 52.243C18.3764 52.8203 17.9974 53.9965 18.4506 54.9514C18.5854 55.2357 19.478 56.2397 20.4342 57.1829C22.5074 59.2279 22.9925 59.4641 24.1414 58.988C25.031 58.6193 25.5124 57.9368 25.5124 57.0444C25.5124 56.685 25.4168 56.2108 25.3001 55.9902C25.0473 55.513 21.8679 52.3533 21.403 52.1173C20.8929 51.8583 19.8508 51.9214 19.3231 52.243ZM54.5319 52.1236C54.0679 52.3765 50.8992 55.5427 50.6621 55.9902C50.5455 56.2108 50.4499 56.685 50.4499 57.0444C50.4499 57.9368 50.9313 58.6193 51.8209 58.988C52.9698 59.4641 53.4548 59.2279 55.5281 57.1829C56.4843 56.2397 57.3769 55.2357 57.5116 54.9514C57.9648 53.9965 57.5859 52.8203 56.6391 52.243C56.1141 51.923 55.0143 51.8605 54.5319 52.1236ZM1.63904 62.1916C0.994522 62.3469 0.310968 63.0125 0.117405 63.673C0.0198816 64.0061 -0.0197512 66.1037 0.00934252 69.3941C0.0544675 74.4941 0.0614441 74.5979 0.386374 75.0536C1.09724 76.0502 0.30518 75.9996 15.2053 75.9996H28.6777L29.3038 75.6326C29.744 75.3746 30.0013 75.0873 30.1704 74.6648C30.6506 73.4649 30.4585 73.0249 28.4978 70.8339L26.9968 69.1568V66.4399C26.9968 63.8669 26.9791 63.6972 26.6628 63.2325C26.479 62.9626 26.1403 62.6021 25.9098 62.4312C25.4937 62.1227 25.4107 62.1205 13.8121 62.0966C7.38891 62.0833 1.91098 62.1262 1.63904 62.1916ZM41.6921 64.1942V66.3419L39.8988 68.3504C38.9124 69.4551 38.0494 70.3589 37.9811 70.3589C37.9129 70.3589 37.0498 69.4551 36.0635 68.3504C34.9088 67.0571 34.2702 66.2241 34.2702 66.0111C34.2702 65.7278 34.7872 65.4206 37.8698 63.8718C39.8495 62.8771 41.5194 62.0595 41.5807 62.0549C41.642 62.0503 41.6921 63.0129 41.6921 64.1942ZM50.6258 62.1912C50.355 62.2563 49.9646 62.4676 49.7582 62.6605C49.023 63.3472 48.9655 63.6246 48.9655 66.4849V69.1568L47.4645 70.8339C45.5038 73.0249 45.3117 73.4649 45.7919 74.6648C45.961 75.0873 46.2182 75.3746 46.6585 75.6326L47.2846 75.9996H60.7569C75.6571 75.9996 74.865 76.0502 75.5759 75.0536C75.9041 74.5934 75.9069 74.5416 75.9069 69.071C75.9069 63.729 75.8971 63.5394 75.6008 63.1427C75.4325 62.9172 75.1104 62.5951 74.8849 62.4267C74.4798 62.1242 74.3415 62.1204 62.7965 62.0966C56.3733 62.0833 50.8964 62.1259 50.6258 62.1912ZM22.6973 68.5406C22.7011 70.0297 22.7599 70.6819 22.9147 70.9527C23.0314 71.1568 23.1292 71.3738 23.1322 71.4351C23.135 71.4964 18.9292 71.5464 13.7858 71.5464H4.43426V69.023V66.4996H13.5632H22.6921L22.6973 68.5406ZM71.528 69.023V71.5464H62.1764C57.0331 71.5464 52.8273 71.4964 52.8301 71.4351C52.833 71.3738 52.9309 71.1568 53.0475 70.9527C53.2024 70.6819 53.2611 70.0297 53.265 68.5406L53.2702 66.4996H62.3991H71.528V69.023Z" fill="#8BD176"/>
</svg>
