<svg width="76" height="76" viewBox="0 0 76 76" fill="none" xmlns="http://www.w3.org/2000/svg">
<path fill-rule="evenodd" clip-rule="evenodd" d="M1.33768 0.244007C0.519622 0.655523 0.0842121 1.37916 0.00921004 2.45176C-0.0714338 3.60583 0.374596 4.36049 1.46246 4.91007C2.15606 5.26052 2.40712 5.28342 5.54758 5.28342C8.32415 5.28342 8.92915 5.3259 9.10105 5.53315C9.21505 5.67037 9.44487 6.95852 9.61163 8.3955C13.4595 41.5237 14.9356 54.0072 15.3312 56.7652C15.7027 59.3561 16.584 61.0763 18.4123 62.7795C19.9808 64.2407 22.4599 65.3514 24.1522 65.3514H24.6982L24.701 66.3056C24.7143 70.6587 27.829 74.6346 32.0756 75.7187C33.2333 76.0144 35.2647 76.047 36.5128 75.7903C36.9963 75.6908 38.0072 75.3158 38.7592 74.9569C41.9679 73.4251 44.1124 70.0042 44.1124 66.4177V65.3432L46.7743 65.3888L49.4362 65.4344L49.4983 66.596C49.6374 69.1985 50.5508 71.2934 52.3238 73.0757C56.2027 76.9748 62.2274 76.9748 66.0986 73.0757C67.869 71.2925 68.7076 69.3934 68.9413 66.6374L69.0503 65.3514H71.5318C73.4776 65.3514 74.1358 65.2934 74.581 65.0821C75.4157 64.6861 75.8605 63.9611 75.9365 62.8732C76.0172 61.7192 75.5711 60.9645 74.4833 60.4149C73.7865 60.0628 73.5443 60.0416 70.2428 60.0416H66.7415L66.2541 59.53C65.4039 58.6376 63.3884 57.405 62.1453 57.0173C60.4172 56.4783 57.9282 56.4899 56.2339 57.0448C54.9446 57.4669 53.0071 58.652 52.1707 59.53L51.6833 60.0416H46.7708H41.8584L41.1186 59.2823C40.7118 58.8646 39.9473 58.2682 39.42 57.9571C35.7185 55.7736 31.0841 56.2425 27.9012 59.123L26.886 60.0416L25.4188 60.0399C24.2284 60.0386 23.7932 59.9646 23.1125 59.6476C21.56 58.9248 20.7005 57.5159 20.4664 55.3101L20.3603 54.3122L41.0129 52.935C53.6369 52.0932 62.0691 51.4638 62.7035 51.3158C65.2977 50.7106 67.8882 48.6413 69.0863 46.2171C69.6702 45.0355 69.8937 44.0427 72.519 30.9675C74.7524 19.8439 75.3115 16.7949 75.2511 16.0691C75.0058 13.1218 72.8143 10.8115 69.8911 10.4182C69.2655 10.3341 65.9161 10.1128 62.4481 9.92641C58.9801 9.74007 52.2224 9.36655 47.4311 9.09624C37.6282 8.54352 14.9024 7.27462 14.8054 7.27462C14.7707 7.27462 14.7421 7.02705 14.7421 6.72438C14.7421 4.05302 13.3425 1.67552 11.0916 0.523606L10.179 0.0565019L6.03062 0.0131932C2.44728 -0.0241419 1.8081 0.00738536 1.33768 0.244007ZM42.785 14.169C56.9764 14.9472 68.8294 15.6218 69.1249 15.6679C69.4279 15.715 69.7389 15.8947 69.838 16.0801C70.0899 16.5507 64.8344 42.8389 64.2631 43.9664C63.7686 44.9421 62.8545 45.7051 61.7844 46.0351C61.1907 46.2181 55.1035 46.6812 40.3789 47.6634C29.0622 48.4184 19.7852 49.0241 19.7635 49.0095C19.6928 48.9622 15.463 12.8367 15.5156 12.729C15.5436 12.6716 15.8851 12.6537 16.2744 12.6892C16.6637 12.7247 28.5935 13.3906 42.785 14.169ZM40.13 21.5731C39.8106 21.7872 39.379 22.2979 39.1711 22.7078L38.7929 23.4532L38.8392 31.0861L38.8855 38.7191L39.2756 39.3465C39.8043 40.1969 40.7931 40.6892 41.7545 40.5809C42.5923 40.4864 43.1986 40.0957 43.7391 39.3015L44.1124 38.7529V30.9622C44.1124 22.3641 44.1192 22.4247 43.0657 21.6745C42.2881 21.1208 40.8772 21.072 40.13 21.5731ZM30.1066 23.0451C29.4273 23.2484 28.5412 24.161 28.348 24.8563C28.2558 25.1882 28.1843 27.8693 28.1838 31.0095C28.1828 36.4521 28.1911 36.5908 28.5561 37.3136C29.1057 38.4015 29.8604 38.8475 31.0144 38.7669C32.1023 38.6909 32.8273 38.246 33.2233 37.4114C33.4565 36.9199 33.4927 36.0319 33.4927 30.7952C33.4927 24.7934 33.4898 24.7425 33.118 24.1829C32.7224 23.5877 31.497 22.8626 30.927 22.8867C30.741 22.8945 30.3718 22.9658 30.1066 23.0451ZM51.3461 23.0451C50.6668 23.2484 49.7807 24.161 49.5876 24.8563C49.4953 25.1882 49.4238 27.8693 49.4233 31.0095C49.4223 36.4521 49.4306 36.5908 49.7957 37.3136C50.3452 38.4015 51.0999 38.8475 52.254 38.7669C53.3418 38.6909 54.0668 38.246 54.4629 37.4114C54.696 36.9199 54.7322 36.0319 54.7322 30.7952C54.7322 24.7934 54.7294 24.7425 54.3575 24.1829C53.9619 23.5877 52.7365 22.8626 52.1665 22.8867C51.9805 22.8945 51.6113 22.9658 51.3461 23.0451ZM35.8497 62.1247C37.527 62.6962 38.8025 64.4363 38.8025 66.1529C38.8025 67.4326 38.5125 68.244 37.7426 69.1186C35.947 71.1586 32.8485 71.1812 31.1245 69.1671C28.2276 65.7829 31.6438 60.6915 35.8497 62.1247ZM61.1369 62.3306C61.942 62.7413 62.9642 63.8343 63.3198 64.6645C63.462 64.9967 63.5796 65.7165 63.5813 66.2641C63.5906 69.2907 60.838 71.3183 57.8476 70.4878C56.165 70.0205 54.8316 68.1614 54.8412 66.2961C54.8475 65.0667 55.1488 64.2984 55.9896 63.3679C56.6023 62.6895 57.2167 62.2853 58.0499 62.0119C58.7353 61.787 60.4103 61.9599 61.1369 62.3306Z" fill="#8BD176"/>
</svg>
