<svg width="77" height="76" viewBox="0 0 77 76" fill="none" xmlns="http://www.w3.org/2000/svg">
<path fill-rule="evenodd" clip-rule="evenodd" d="M1.15322 0.301365C0.525865 0.632575 0 1.50927 0 2.22384C0 2.96115 0.525568 3.81719 1.18487 4.1536C1.7244 4.42879 2.05651 4.45272 5.34335 4.45272H8.91549V6.74192V9.03127L7.45528 9.08223C6.18973 9.12651 5.92286 9.18283 5.45316 9.50483C4.80367 9.95001 4.82581 9.90216 2.09172 16.7496L0 21.9883V25.8217V29.655L0.429578 30.3157C0.665839 30.679 2.67182 32.7812 4.88732 34.9872L8.91549 38.9982V40.974C8.91549 43.3176 9.12382 43.9237 10.1004 44.4219C10.664 44.7094 10.9641 44.721 17.831 44.721C24.6978 44.721 24.998 44.7094 25.5616 44.4219C26.5382 43.9237 26.7465 43.3176 26.7465 40.974V38.9982L30.7746 34.9872C32.9901 32.7812 34.9961 30.679 35.2324 30.3157L35.662 29.655V25.8217V21.9883L33.5702 16.7496C30.8362 9.90216 30.8583 9.95001 30.2088 9.50483C29.7391 9.18283 29.4722 9.12651 28.2067 9.08223L26.7465 9.03127V6.74192V4.45272H50.5271C74.0674 4.45272 74.3136 4.44974 74.894 4.1536C75.5533 3.81719 76.0789 2.96115 76.0789 2.22384C76.0789 1.48653 75.5533 0.630495 74.894 0.294084C74.3109 -0.00339672 74.1019 -0.00503122 38.0082 0.00150681C2.16111 0.00804484 1.70182 0.0117597 1.15322 0.301365ZM22.2887 6.75588V9.05905H17.831H13.3732V6.75588V4.45272H17.831H22.2887V6.75588ZM28.3519 15.7457L29.2477 17.9745H17.831H6.41425L7.31011 15.7457L8.20597 13.5168H17.831H27.456L28.3519 15.7457ZM31.114 22.6674C31.1637 22.7966 31.2042 24.0846 31.2042 25.5295V28.1568L28.9754 30.3819L26.7465 32.6071V30.6342C26.7465 28.2938 26.5379 27.6872 25.5616 27.1892C24.998 26.9016 24.6978 26.89 17.831 26.89C10.9641 26.89 10.664 26.9016 10.1004 27.1892C9.12411 27.6872 8.91549 28.2938 8.91549 30.6342V32.6071L6.68662 30.3819L4.45775 28.1568V25.5295C4.45775 24.0846 4.49831 22.7966 4.54794 22.6674C4.62922 22.4555 5.93787 22.4323 17.831 22.4323C29.7241 22.4323 31.0328 22.4555 31.114 22.6674ZM22.2887 35.8055V40.2633H17.831H13.3732V35.8055V31.3478H17.831H22.2887V35.8055ZM32.3574 40.5697C32.0179 40.749 31.6857 41.0908 31.503 41.4487C31.2186 42.0064 31.2042 42.3171 31.2042 47.9036V53.7726L20.1713 53.8231C8.26957 53.8778 8.81683 53.8426 6.83521 54.6823C3.66189 56.0271 1.14445 58.994 0.28381 62.4034C0.0158993 63.4644 0.0158993 66.3946 0.28381 67.4555C1.15337 70.9003 3.65758 73.8298 6.90951 75.2064C8.89187 76.0456 7.08663 75.9995 38.0394 75.9995C62.059 75.9995 66.7742 75.9663 67.4606 75.7917C71.5338 74.7555 74.7692 71.5197 75.7951 67.4555C76.0977 66.2565 76.0581 63.4629 75.7202 62.1805C75.1882 60.1618 74.164 58.4495 72.5231 56.8358L71.6211 55.949V48.9917C71.6211 42.3122 71.6092 42.0112 71.322 41.4481C71.1294 41.0706 70.8138 40.755 70.4363 40.5624C69.8727 40.2749 69.5725 40.2633 62.7056 40.2633C55.8388 40.2633 55.5386 40.2749 54.975 40.5624C54.5974 40.755 54.2818 41.0706 54.0893 41.4481C53.8044 42.0066 53.7901 42.3147 53.7901 47.9098V53.7851H51.4127H49.0352V47.9098C49.0352 42.3147 49.0209 42.0066 48.7361 41.4481C48.5435 41.0706 48.2279 40.755 47.8503 40.5624C47.286 40.2746 46.9937 40.2636 40.0885 40.2698C33.2381 40.2761 32.8879 40.2897 32.3574 40.5697ZM44.5775 49.2531V53.7851H40.1197H35.662V49.2531V44.721H40.1197H44.5775V49.2531ZM67.1634 49.2531V53.7851H62.7056H58.2479V49.2531V44.721H62.7056H67.1634V49.2531ZM12.3493 58.3946C15.8379 59.0561 18.2811 62.4782 17.713 65.9069C17.2299 68.8218 15.0367 71.015 12.1218 71.4981C7.82513 72.21 3.86383 68.2487 4.57573 63.952C5.19788 60.1973 8.69023 57.7006 12.3493 58.3946ZM28.484 59.0252C27.4732 60.6053 26.7465 63.0749 26.7465 64.9295C26.7465 66.784 27.4732 69.2536 28.484 70.8338L28.9844 71.6161H24.5176H20.0508L20.5513 70.8338C21.562 69.2536 22.2887 66.784 22.2887 64.9295C22.2887 63.0749 21.562 60.6053 20.5513 59.0252L20.0508 58.2429H24.5176H28.9844L28.484 59.0252ZM39.0958 58.3946C42.5844 59.0561 45.0275 62.4782 44.4595 65.9069C43.9764 68.8218 41.7832 71.015 38.8683 71.4981C34.5716 72.21 30.6103 68.2487 31.3222 63.952C31.9444 60.1973 35.4367 57.7006 39.0958 58.3946ZM55.5276 59.0252C54.5169 60.6053 53.7901 63.0749 53.7901 64.9295C53.7901 66.784 54.5169 69.2536 55.5276 70.8338L56.0281 71.6161H51.4127H46.7973L47.2977 70.8338C48.3084 69.2536 49.0352 66.784 49.0352 64.9295C49.0352 63.0749 48.3084 60.6053 47.2977 59.0252L46.7973 58.2429H51.4127H56.0281L55.5276 59.0252ZM66.1394 58.3946C69.6281 59.0561 72.0712 62.4782 71.5031 65.9069C71.0201 68.8218 68.8269 71.015 65.9119 71.4981C61.6153 72.21 57.654 68.2487 58.3659 63.952C58.988 60.1973 62.4804 57.7006 66.1394 58.3946ZM10.0687 63.007C9.44136 63.3382 8.91549 64.2149 8.91549 64.9295C8.91549 66.0601 10.0137 67.1583 11.1444 67.1583C12.275 67.1583 13.3732 66.0601 13.3732 64.9295C13.3732 64.1922 12.8477 63.3361 12.1884 62.9997C11.4563 62.6263 10.7857 62.6285 10.0687 63.007ZM36.8152 63.007C36.1878 63.3382 35.662 64.2149 35.662 64.9295C35.662 65.6668 36.1875 66.5228 36.8468 66.8592C37.1693 67.0237 37.6391 67.1583 37.8908 67.1583C39.0215 67.1583 40.1197 66.0601 40.1197 64.9295C40.1197 64.1922 39.5942 63.3361 38.9348 62.9997C38.2027 62.6263 37.5321 62.6285 36.8152 63.007ZM63.8588 63.007C63.2315 63.3382 62.7056 64.2149 62.7056 64.9295C62.7056 65.6668 63.2312 66.5228 63.8905 66.8592C64.2129 67.0237 64.6828 67.1583 64.9345 67.1583C65.6718 67.1583 66.5279 66.6328 66.8643 65.9735C67.0288 65.651 67.1634 65.1812 67.1634 64.9295C67.1634 64.1922 66.6378 63.3361 65.9785 62.9997C65.2464 62.6263 64.5758 62.6285 63.8588 63.007Z" fill="#8BD176"/>
</svg>
